<svg width="154" height="32" viewBox="0 0 154 32" fill="none" xmlns="http://www.w3.org/2000/svg">
<g clip-path="url(#clip0_68_1092)">
<path d="M14.7044 27.9117V25.4927H18.9306V27.9117L21.6271 27.9988C22.008 28.0596 22.8366 28.248 23.5761 28.9267C24.8545 30.0957 24.8038 31.7488 24.7917 32.0021H8.85548C8.84332 31.7448 8.79267 30.2152 9.96975 29.0503C10.7497 28.2763 11.6574 28.0737 12.02 28.013" fill="#7984EB"/>
<path d="M3.05717 7.93579H0V17.8204H3.05717V7.93579Z" fill="#446E93"/>
<path d="M33.6492 7.93579H30.592V17.8204H33.6492V7.93579Z" fill="#446E93"/>
<path d="M26.3009 0H7.34811C4.97827 0 3.05713 1.92114 3.05713 4.29098V21.465C3.05713 23.8349 4.97827 25.756 7.34811 25.756H26.3009C28.6708 25.756 30.5919 23.8349 30.5919 21.465V4.29098C30.5919 1.92114 28.6708 0 26.3009 0Z" fill="#7984EB"/>
<path d="M24.4977 23.341H9.14908C7.2305 23.341 5.67456 21.781 5.67456 19.8543V5.89951C5.67456 3.97486 7.2305 2.41284 9.14908 2.41284H24.4957C26.4143 2.41284 27.9702 3.97283 27.9702 5.89951V19.8563C27.9702 21.781 26.4143 23.343 24.4957 23.343L24.4977 23.341Z" fill="#81CDF9"/>
<path d="M24.8828 23.341H11.2319C9.52606 23.341 8.14233 21.781 8.14233 19.8543V5.89951C8.14233 3.97486 9.52606 2.41284 11.2319 2.41284H24.8828C26.5887 2.41284 27.9724 3.97283 27.9724 5.89951V19.8563C27.9724 21.781 26.5887 23.343 24.8828 23.343V23.341Z" fill="#DCEEFA"/>
<path d="M18.1101 17.3867H16.6919V18.8049H18.1101V17.3867Z" fill="#7984EB"/>
<path d="M15.2736 17.3867H13.8555V18.8049H15.2736V17.3867Z" fill="#7984EB"/>
<path d="M16.6919 17.3867H15.2737V18.8049H16.6919V17.3867Z" fill="#7984EB"/>
<path d="M19.528 17.3867H18.1099V18.8049H19.528V17.3867Z" fill="#7984EB"/>
<path d="M10.9362 9.4895H9.51807V10.9077H10.9362V9.4895Z" fill="#7984EB"/>
<path d="M12.3361 9.4895H10.918V10.9077H12.3361V9.4895Z" fill="#7984EB"/>
<path d="M13.7544 10.9077H12.3362V12.3259H13.7544V10.9077Z" fill="#7984EB"/>
<path d="M13.7544 12.3259H12.3362V13.7441H13.7544V12.3259Z" fill="#7984EB"/>
<path d="M9.5605 10.9077H8.14233V12.3259H9.5605V10.9077Z" fill="#7984EB"/>
<path d="M9.5605 12.3259H8.14233V13.7441H9.5605V12.3259Z" fill="#7984EB"/>
<path d="M10.9179 15.1621H9.49976V16.5803H10.9179V15.1621Z" fill="#7984EB"/>
<path d="M12.3361 15.1621H10.918V16.5803H12.3361V15.1621Z" fill="#7984EB"/>
<path d="M9.5605 13.7439H8.14233V15.1621H9.5605V13.7439Z" fill="#7984EB"/>
<path d="M13.7544 13.7439H12.3362V15.1621H13.7544V13.7439Z" fill="#7984EB"/>
<path d="M22.6867 9.4895H21.2686V10.9077H22.6867V9.4895Z" fill="#7984EB"/>
<path d="M24.0866 9.4895H22.6685V10.9077H24.0866V9.4895Z" fill="#7984EB"/>
<path d="M25.5048 10.9077H24.0867V12.3259H25.5048V10.9077Z" fill="#7984EB"/>
<path d="M25.5048 12.3259H24.0867V13.7441H25.5048V12.3259Z" fill="#7984EB"/>
<path d="M21.311 10.9077H19.8928V12.3259H21.311V10.9077Z" fill="#7984EB"/>
<path d="M21.311 12.3259H19.8928V13.7441H21.311V12.3259Z" fill="#7984EB"/>
<path d="M22.6684 15.1621H21.2502V16.5803H22.6684V15.1621Z" fill="#7984EB"/>
<path d="M24.0866 15.1621H22.6685V16.5803H24.0866V15.1621Z" fill="#7984EB"/>
<path d="M21.311 13.7439H19.8928V15.1621H21.311V13.7439Z" fill="#7984EB"/>
<path d="M25.5048 13.7439H24.0867V15.1621H25.5048V13.7439Z" fill="#7984EB"/>
</g>
<path d="M49.3518 25.6401H43.1643V8.18555H49.4029C51.1586 8.18555 52.67 8.53499 53.937 9.23385C55.2041 9.92703 56.1785 10.9242 56.8603 12.2253C57.5478 13.5265 57.8916 15.0833 57.8916 16.8958C57.8916 18.714 57.5478 20.2765 56.8603 21.5833C56.1785 22.8901 55.1984 23.8929 53.92 24.5919C52.6473 25.2907 51.1245 25.6401 49.3518 25.6401ZM46.8546 22.4781H49.1984C50.2893 22.4781 51.2069 22.2851 51.9512 21.8987C52.7012 21.5065 53.2637 20.9015 53.6387 20.0833C54.0194 19.2594 54.2098 18.1969 54.2098 16.8958C54.2098 15.606 54.0194 14.552 53.6387 13.7338C53.2637 12.9157 52.7041 12.3134 51.9598 11.927C51.2154 11.5407 50.2978 11.3475 49.2069 11.3475H46.8546V22.4781ZM66.4719 25.8957C65.1481 25.8957 64.0031 25.6145 63.0373 25.0521C62.0769 24.4839 61.3355 23.6941 60.8127 22.6827C60.29 21.6657 60.0287 20.4867 60.0287 19.1458C60.0287 17.7935 60.29 16.6117 60.8127 15.6003C61.3355 14.5833 62.0769 13.7935 63.0373 13.231C64.0031 12.6628 65.1481 12.3787 66.4719 12.3787C67.7957 12.3787 68.9377 12.6628 69.8981 13.231C70.8639 13.7935 71.6083 14.5833 72.1309 15.6003C72.6537 16.6117 72.9151 17.7935 72.9151 19.1458C72.9151 20.4867 72.6537 21.6657 72.1309 22.6827C71.6083 23.6941 70.8639 24.4839 69.8981 25.0521C68.9377 25.6145 67.7957 25.8957 66.4719 25.8957ZM66.4889 23.0833C67.0911 23.0833 67.5941 22.9129 67.9975 22.5719C68.4009 22.2253 68.7049 21.7537 68.9093 21.1571C69.1197 20.5605 69.2247 19.8816 69.2247 19.1202C69.2247 18.3588 69.1197 17.6799 68.9093 17.0833C68.7049 16.4867 68.4009 16.0151 67.9975 15.6685C67.5941 15.3219 67.0911 15.1486 66.4889 15.1486C65.8809 15.1486 65.3697 15.3219 64.9549 15.6685C64.5457 16.0151 64.2361 16.4867 64.0259 17.0833C63.8213 17.6799 63.7191 18.3588 63.7191 19.1202C63.7191 19.8816 63.8213 20.5605 64.0259 21.1571C64.2361 21.7537 64.5457 22.2253 64.9549 22.5719C65.3697 22.9129 65.8809 23.0833 66.4889 23.0833ZM81.1907 25.8957C79.8497 25.8957 78.6963 25.6117 77.7303 25.0435C76.7701 24.4697 76.0315 23.6743 75.5145 22.6571C75.0031 21.6401 74.7475 20.4697 74.7475 19.1458C74.7475 17.8049 75.0059 16.6287 75.5231 15.6174C76.0457 14.6003 76.7873 13.8077 77.7475 13.2395C78.7077 12.6657 79.8497 12.3787 81.1735 12.3787C82.3157 12.3787 83.3157 12.5861 84.1735 13.0009C85.0315 13.4157 85.7105 13.998 86.2105 14.748C86.7105 15.498 86.9861 16.3787 87.0373 17.3901H83.6111C83.5145 16.7367 83.2589 16.2111 82.8441 15.8134C82.4349 15.41 81.8981 15.2083 81.2333 15.2083C80.6707 15.2083 80.1793 15.3617 79.7589 15.6685C79.3441 15.9696 79.0201 16.41 78.7873 16.9895C78.5543 17.5691 78.4377 18.2708 78.4377 19.0946C78.4377 19.9299 78.5515 20.6401 78.7787 21.2253C79.0117 21.8105 79.3383 22.2565 79.7589 22.5635C80.1793 22.8703 80.6707 23.0237 81.2333 23.0237C81.6481 23.0237 82.0201 22.9385 82.3497 22.7679C82.6849 22.5975 82.9605 22.3503 83.1765 22.0265C83.3981 21.6969 83.5429 21.3021 83.6111 20.8419H87.0373C86.9803 21.8419 86.7077 22.7225 86.2191 23.4839C85.7361 24.2395 85.0685 24.8305 84.2161 25.2565C83.3639 25.6827 82.3553 25.8957 81.1907 25.8957ZM100.254 16.2821L96.9299 16.4867C96.8731 16.2026 96.7509 15.9469 96.5635 15.7196C96.3759 15.4867 96.1289 15.302 95.8221 15.1657C95.5209 15.0236 95.1601 14.9526 94.7397 14.9526C94.1771 14.9526 93.7027 15.0719 93.3163 15.3105C92.9299 15.5435 92.7367 15.856 92.7367 16.248C92.7367 16.5605 92.8617 16.8248 93.1117 17.0407C93.3617 17.2566 93.7907 17.4299 94.3987 17.5605L96.7681 18.0378C98.0407 18.2992 98.9897 18.7196 99.6147 19.2992C100.24 19.8787 100.552 20.6401 100.552 21.5833C100.552 22.4413 100.299 23.1941 99.7937 23.8419C99.2937 24.4895 98.6061 24.9953 97.7311 25.3589C96.8617 25.7169 95.8589 25.8957 94.7225 25.8957C92.9897 25.8957 91.6089 25.5351 90.5805 24.8135C89.5579 24.0861 88.9583 23.0975 88.7823 21.8475L92.3533 21.6601C92.4613 22.1885 92.7225 22.5919 93.1373 22.8703C93.5521 23.1429 94.0833 23.2793 94.7311 23.2793C95.3675 23.2793 95.8789 23.1571 96.2651 22.9129C96.6573 22.6629 96.8561 22.3419 96.8617 21.9497C96.8561 21.6203 96.7169 21.3503 96.4441 21.1401C96.1715 20.9243 95.7509 20.7595 95.1829 20.6457L92.9157 20.1941C91.6373 19.9384 90.6857 19.4952 90.0607 18.8645C89.4413 18.2338 89.1317 17.4299 89.1317 16.4526C89.1317 15.6117 89.3589 14.8873 89.8135 14.2793C90.2737 13.6713 90.9187 13.2026 91.7481 12.873C92.5833 12.5435 93.5607 12.3787 94.6799 12.3787C96.3333 12.3787 97.6345 12.7282 98.5833 13.427C99.5379 14.1259 100.095 15.0776 100.254 16.2821ZM104.96 25.8617C104.398 25.8617 103.915 25.6629 103.512 25.2651C103.114 24.8617 102.915 24.3787 102.915 23.8163C102.915 23.2595 103.114 22.7821 103.512 22.3845C103.915 21.9867 104.398 21.7879 104.96 21.7879C105.506 21.7879 105.983 21.9867 106.392 22.3845C106.801 22.7821 107.006 23.2595 107.006 23.8163C107.006 24.1913 106.909 24.5351 106.716 24.8475C106.529 25.1543 106.281 25.4015 105.975 25.5889C105.668 25.7707 105.33 25.8617 104.96 25.8617ZM114.811 25.8531C113.816 25.8531 112.916 25.5975 112.109 25.0861C111.308 24.5691 110.671 23.8105 110.2 22.8105C109.734 21.8049 109.501 20.5719 109.501 19.1117C109.501 17.6117 109.742 16.3645 110.225 15.3702C110.708 14.3702 111.35 13.623 112.151 13.1287C112.958 12.6287 113.842 12.3787 114.802 12.3787C115.535 12.3787 116.146 12.5037 116.634 12.7537C117.129 12.998 117.526 13.3049 117.828 13.6742C118.134 14.0378 118.367 14.3958 118.526 14.748H118.637V8.18555H122.259V25.6401H118.68V23.5435H118.526C118.356 23.9071 118.115 24.2679 117.802 24.6259C117.495 24.9781 117.095 25.2707 116.6 25.5037C116.112 25.7367 115.515 25.8531 114.811 25.8531ZM115.961 22.9639C116.546 22.9639 117.041 22.8049 117.444 22.4867C117.853 22.1629 118.166 21.7111 118.382 21.1315C118.603 20.5521 118.714 19.873 118.714 19.0946C118.714 18.3162 118.606 17.6401 118.39 17.0662C118.174 16.4924 117.862 16.0492 117.453 15.7367C117.044 15.4242 116.546 15.2679 115.961 15.2679C115.365 15.2679 114.862 15.4299 114.453 15.7537C114.044 16.0776 113.734 16.5265 113.524 17.1003C113.313 17.6742 113.208 18.339 113.208 19.0946C113.208 19.856 113.313 20.5293 113.524 21.1145C113.74 21.6941 114.049 22.1487 114.453 22.4781C114.862 22.8021 115.365 22.9639 115.961 22.9639ZM131.21 25.8957C129.864 25.8957 128.705 25.6231 127.733 25.0777C126.767 24.5265 126.023 23.7481 125.5 22.7423C124.977 21.7311 124.716 20.5351 124.716 19.1543C124.716 17.8077 124.977 16.6259 125.5 15.6088C126.023 14.5918 126.759 13.7992 127.708 13.231C128.662 12.6628 129.781 12.3787 131.066 12.3787C131.929 12.3787 132.733 12.5179 133.477 12.7963C134.227 13.0691 134.881 13.481 135.438 14.0321C136 14.5833 136.438 15.2765 136.75 16.1117C137.063 16.9412 137.219 17.9128 137.219 19.0265V20.0237H126.165V17.7736H133.801C133.801 17.2509 133.688 16.7878 133.46 16.3844C133.233 15.981 132.918 15.6657 132.514 15.4384C132.117 15.2054 131.654 15.089 131.125 15.089C130.574 15.089 130.085 15.2168 129.659 15.4725C129.239 15.7225 128.909 16.0605 128.671 16.4867C128.432 16.9071 128.31 17.3759 128.304 17.8929V20.0321C128.304 20.6799 128.423 21.2395 128.662 21.7111C128.906 22.1827 129.25 22.5463 129.693 22.8021C130.137 23.0577 130.662 23.1855 131.27 23.1855C131.673 23.1855 132.043 23.1287 132.378 23.0151C132.713 22.9015 133 22.7311 133.239 22.5037C133.477 22.2765 133.659 21.9981 133.784 21.6685L137.142 21.8901C136.972 22.6969 136.622 23.4015 136.094 24.0037C135.571 24.6003 134.895 25.0663 134.066 25.4015C133.242 25.7311 132.29 25.8957 131.21 25.8957ZM151.441 12.5492L146.865 25.6401H142.774L138.197 12.5492H142.032L144.751 21.9157H144.887L147.597 12.5492H151.441Z" fill="#7984EB"/>
<defs>
<clipPath id="clip0_68_1092">
<rect width="33.6471" height="32" fill="white"/>
</clipPath>
</defs>
</svg>
