<svg xmlns="http://www.w3.org/2000/svg" width="7" height="11" viewBox="0 0 7 11" fill="red">
<path d="M1.05989 1.32043L5.1325 5.50043L1.05989 9.68042C0.986971 9.7551 0.946148 9.85536 0.946148 9.95976C0.946148 10.0642 0.986971 10.1644 1.05989 10.2391C1.0953 10.2753 1.13757 10.304 1.18422 10.3236C1.23087 10.3432 1.28096 10.3533 1.33156 10.3533C1.38216 10.3533 1.43226 10.3432 1.4789 10.3236C1.52555 10.304 1.56782 10.2753 1.60324 10.2391L5.93665 5.79231C6.01273 5.71422 6.05531 5.60948 6.05531 5.50043C6.05531 5.39138 6.01273 5.28664 5.93665 5.20855L1.60407 0.76176C1.56863 0.725343 1.52626 0.696398 1.47946 0.676634C1.43265 0.656871 1.38236 0.646688 1.33156 0.646688C1.28076 0.646688 1.23047 0.656871 1.18367 0.676634C1.13686 0.696398 1.09449 0.725343 1.05905 0.76176C0.986135 0.836439 0.945313 0.936696 0.945313 1.0411C0.945313 1.14549 0.986135 1.24575 1.05905 1.32043H1.05989Z" fill="blue"/>
</svg>