<svg xmlns="http://www.w3.org/2000/svg" width="18" height="18" viewBox="0 0 18 18" fill="none">
<path d="M10.5 6.5L8 9M8 9L10.5 11.5M8 9H14" stroke="#A2A1A5" stroke-opacity="0.75" stroke-width="1.5" stroke-linecap="round" stroke-linejoin="round"/>
<path d="M15 4.66045e-09C15.7652 -4.26217e-05 16.5015 0.292325 17.0583 0.817284C17.615 1.34224 17.9501 2.06011 17.995 2.824L18 3V15C18 15.7652 17.7077 16.5015 17.1827 17.0583C16.6578 17.615 15.9399 17.9501 15.176 17.995L15 18H3C2.23479 18 1.49849 17.7077 0.941739 17.1827C0.384993 16.6578 0.0498925 15.9399 0.00500012 15.176L4.66045e-09 15V3C-4.26217e-05 2.23479 0.292325 1.49849 0.817284 0.941739C1.34224 0.384993 2.06011 0.0498925 2.824 0.00500012L3 4.66045e-09H15ZM15 2H5.5V16H15C15.2449 16 15.4813 15.91 15.6644 15.7473C15.8474 15.5845 15.9643 15.3603 15.993 15.117L16 15V3C16 2.75507 15.91 2.51866 15.7473 2.33563C15.5845 2.15259 15.3603 2.03566 15.117 2.007L15 2Z" fill="#A2A1A5" fill-opacity="0.75"/>
</svg>