<svg width="36" height="28" viewBox="0 0 36 28" fill="none" xmlns="http://www.w3.org/2000/svg">
<rect x="11.9951" y="10" width="24" height="9" rx="4.5" fill="#E0DDE6"/>
<g filter="url(#filter0_d_357_29)">
<rect x="4" y="4" width="20" height="20" rx="10" fill="white" shape-rendering="crispEdges"/>
<path d="M14.0002 16.6667C15.4729 16.6667 16.6668 15.4728 16.6668 14C16.6668 12.5273 15.4729 11.3334 14.0002 11.3334C12.5274 11.3334 11.3335 12.5273 11.3335 14C11.3335 15.4728 12.5274 16.6667 14.0002 16.6667Z" stroke="#FFD870" stroke-width="2" stroke-linejoin="round"/>
<path d="M19.3333 14H20M8 14H8.66667M14 19.3333V20M14 8V8.66667M17.7713 17.7713L18.2427 18.2427M9.75733 9.75733L10.2287 10.2287M10.2287 17.7713L9.75733 18.2427M18.2427 9.75733L17.7713 10.2287" stroke="#FFD870" stroke-width="2" stroke-linecap="round"/>
</g>
<defs>
<filter id="filter0_d_357_29" x="0" y="0" width="28" height="28" filterUnits="userSpaceOnUse" color-interpolation-filters="sRGB">
<feFlood flood-opacity="0" result="BackgroundImageFix"/>
<feColorMatrix in="SourceAlpha" type="matrix" values="0 0 0 0 0 0 0 0 0 0 0 0 0 0 0 0 0 0 127 0" result="hardAlpha"/>
<feOffset/>
<feGaussianBlur stdDeviation="2"/>
<feComposite in2="hardAlpha" operator="out"/>
<feColorMatrix type="matrix" values="0 0 0 0 0.635294 0 0 0 0 0.631373 0 0 0 0 0.647059 0 0 0 1 0"/>
<feBlend mode="normal" in2="BackgroundImageFix" result="effect1_dropShadow_357_29"/>
<feBlend mode="normal" in="SourceGraphic" in2="effect1_dropShadow_357_29" result="shape"/>
</filter>
</defs>
</svg>
