<svg xmlns="http://www.w3.org/2000/svg" width="24" height="28" viewBox="0 0 24 28" fill="none">
<path d="M15.9223 13.3C15.9223 14.154 15.3051 14.854 14.5234 14.854C13.7554 14.854 13.1246 14.154 13.1246 13.3C13.1246 12.446 13.7417 11.746 14.5234 11.746C15.3051 11.746 15.9223 12.446 15.9223 13.3ZM9.51771 11.746C8.736 11.746 8.11886 12.446 8.11886 13.3C8.11886 14.154 8.74971 14.854 9.51771 14.854C10.2994 14.854 10.9166 14.154 10.9166 13.3C10.9303 12.446 10.2994 11.746 9.51771 11.746ZM24 2.884V28C20.545 24.8831 21.6499 25.9149 17.6366 22.106L18.3634 24.696H2.81143C1.26171 24.696 0 23.408 0 21.812V2.884C0 1.288 1.26171 0 2.81143 0H21.1886C22.7383 0 24 1.288 24 2.884ZM20.0914 16.156C20.0914 11.648 18.1166 7.994 18.1166 7.994C16.1417 6.482 14.2629 6.524 14.2629 6.524L14.0709 6.748C16.4023 7.476 17.4857 8.526 17.4857 8.526C14.228 6.70332 10.4012 6.70299 7.24114 8.12C6.73371 8.358 6.432 8.526 6.432 8.526C6.432 8.526 7.57028 7.42 10.0389 6.692L9.90171 6.524C9.90171 6.524 8.02286 6.482 6.048 7.994C6.048 7.994 4.07314 11.648 4.07314 16.156C4.07314 16.156 5.22514 18.186 8.256 18.284C8.256 18.284 8.76343 17.654 9.17486 17.122C7.43314 16.59 6.77486 15.47 6.77486 15.47C6.97661 15.6142 7.30929 15.801 7.33714 15.82C9.65196 17.1433 12.9401 17.5769 15.8949 16.31C16.3749 16.128 16.9097 15.862 17.472 15.484C17.472 15.484 16.7863 16.632 14.9897 17.15C15.4011 17.682 15.8949 18.284 15.8949 18.284C18.9257 18.186 20.0914 16.156 20.0914 16.156Z" fill="#4D5462"/>
</svg>