<svg xmlns="http://www.w3.org/2000/svg" width="27" height="28" viewBox="0 0 27 28" fill="none">
<path d="M9.03085 22.2404C9.03085 22.352 8.90565 22.4413 8.74778 22.4413C8.56814 22.4581 8.44294 22.3688 8.44294 22.2404C8.44294 22.1287 8.56815 22.0394 8.72601 22.0394C8.88931 22.0226 9.03085 22.1119 9.03085 22.2404ZM7.3379 21.9891C7.2998 22.1008 7.40867 22.2292 7.57198 22.2627C7.71351 22.3185 7.87681 22.2627 7.90948 22.151C7.94214 22.0394 7.83871 21.911 7.6754 21.8607C7.53387 21.8216 7.37601 21.8775 7.3379 21.9891ZM9.74395 21.8942C9.58609 21.9333 9.47722 22.0394 9.49355 22.1678C9.50988 22.2794 9.65141 22.352 9.81472 22.3129C9.97258 22.2739 10.0815 22.1678 10.0651 22.0561C10.0488 21.95 9.90181 21.8775 9.74395 21.8942ZM13.3258 0.5C5.77561 0.5 0 6.37894 0 14.1226C0 20.3142 3.7996 25.6125 9.22681 27.4773C9.92359 27.6057 10.1685 27.1646 10.1685 26.8017C10.1685 26.4556 10.1522 24.5462 10.1522 23.3737C10.1522 23.3737 6.34173 24.2112 5.54153 21.71C5.54153 21.71 4.92097 20.0853 4.02823 19.6666C4.02823 19.6666 2.78165 18.79 4.11532 18.8068C4.11532 18.8068 5.47077 18.9185 6.21653 20.2472C7.40867 22.4023 9.40645 21.7826 10.1849 21.4141C10.3101 20.5208 10.6639 19.9011 11.0558 19.5326C8.0129 19.1864 4.94274 18.7342 4.94274 13.3633C4.94274 11.828 5.35645 11.0575 6.22742 10.0749C6.08589 9.71202 5.62319 8.21576 6.36895 6.28403C7.50665 5.92113 10.125 7.79145 10.125 7.79145C11.2137 7.4788 12.3841 7.31689 13.5435 7.31689C14.703 7.31689 15.8734 7.4788 16.9621 7.79145C16.9621 7.79145 19.5804 5.91555 20.7181 6.28403C21.4639 8.22134 21.0012 9.71202 20.8597 10.0749C21.7306 11.0631 22.2641 11.8336 22.2641 13.3633C22.2641 18.751 19.0579 19.1809 16.0149 19.5326C16.5157 19.9736 16.9403 20.8111 16.9403 22.1231C16.9403 24.0046 16.924 26.3327 16.924 26.7905C16.924 27.1534 17.1744 27.5945 17.8657 27.4661C23.3093 25.6125 27 20.3142 27 14.1226C27 6.37894 20.876 0.5 13.3258 0.5ZM5.29113 19.7559C5.22036 19.8117 5.23669 19.9401 5.32923 20.0462C5.41633 20.1356 5.54153 20.1746 5.6123 20.1021C5.68306 20.0462 5.66673 19.9178 5.57419 19.8117C5.4871 19.7224 5.3619 19.6833 5.29113 19.7559ZM4.70323 19.3037C4.66512 19.3763 4.71956 19.4656 4.82843 19.5214C4.91552 19.5772 5.02439 19.5605 5.0625 19.4823C5.10061 19.4098 5.04617 19.3204 4.9373 19.2646C4.82843 19.2311 4.74133 19.2478 4.70323 19.3037ZM6.46694 21.2912C6.37984 21.3638 6.4125 21.5313 6.5377 21.6374C6.6629 21.7658 6.82077 21.7826 6.89153 21.6932C6.9623 21.6206 6.92964 21.4531 6.82077 21.3471C6.70101 21.2187 6.5377 21.2019 6.46694 21.2912ZM5.84637 20.4705C5.75927 20.5264 5.75927 20.6715 5.84637 20.7999C5.93347 20.9283 6.08044 20.9842 6.15121 20.9283C6.23831 20.8558 6.23831 20.7106 6.15121 20.5822C6.075 20.4538 5.93347 20.398 5.84637 20.4705Z" fill="#4D5462"/>
</svg>