<svg xmlns="http://www.w3.org/2000/svg" width="27" height="28" viewBox="0 0 27 28" fill="none">
  <path d="M13.503 6.82115C9.67211 6.82115 6.5821 10.0263 6.5821 14C6.5821 17.9737 9.67211 21.1788 13.503 21.1788C17.3339 21.1788 20.4239 17.9737 20.4239 14C20.4239 10.0263 17.3339 6.82115 13.503 6.82115ZM13.503 18.6672C11.0274 18.6672 9.00351 16.5741 9.00351 14C9.00351 11.4259 11.0214 9.33281 13.503 9.33281C15.9847 9.33281 18.0025 11.4259 18.0025 14C18.0025 16.5741 15.9786 18.6672 13.503 18.6672ZM22.3213 6.5275C22.3213 7.45844 21.5985 8.20194 20.707 8.20194C19.8095 8.20194 19.0928 7.45219 19.0928 6.5275C19.0928 5.60281 19.8156 4.85306 20.707 4.85306C21.5985 4.85306 22.3213 5.60281 22.3213 6.5275ZM26.9051 8.22693C26.8027 5.98393 26.3088 3.9971 24.7247 2.36015C23.1465 0.723195 21.2311 0.210867 19.0687 0.0984045C16.84 -0.0328015 10.16 -0.0328015 7.93134 0.0984045C5.77496 0.204619 3.85951 0.716947 2.27535 2.3539C0.691188 3.99085 0.203291 5.97769 0.0948689 8.22069C-0.031623 10.5324 -0.031623 17.4613 0.0948689 19.7731C0.197267 22.0161 0.691188 24.0029 2.27535 25.6399C3.85951 27.2768 5.76893 27.7891 7.93134 27.9016C10.16 28.0328 16.84 28.0328 19.0687 27.9016C21.2311 27.7954 23.1465 27.2831 24.7247 25.6399C26.3028 24.0029 26.7967 22.0161 26.9051 19.7731C27.0316 17.4613 27.0316 10.5387 26.9051 8.22693ZM24.0259 22.2535C23.5561 23.4781 22.6466 24.4215 21.46 24.9151C19.683 25.6461 15.4666 25.4774 13.503 25.4774C11.5394 25.4774 7.31695 25.6399 5.54607 24.9151C4.36548 24.4278 3.45594 23.4843 2.98009 22.2535C2.27535 20.4104 2.43798 16.0368 2.43798 14C2.43798 11.9632 2.28137 7.5834 2.98009 5.74651C3.44992 4.52192 4.35945 3.57849 5.54607 3.0849C7.32298 2.3539 11.5394 2.52259 13.503 2.52259C15.4666 2.52259 19.6891 2.36015 21.46 3.0849C22.6405 3.57224 23.5501 4.51568 24.0259 5.74651C24.7307 7.58965 24.568 11.9632 24.568 14C24.568 16.0368 24.7307 20.4166 24.0259 22.2535Z" fill="#4D5462"/>
</svg>