<svg width="20" height="21" viewBox="0 0 20 21" fill="none" xmlns="http://www.w3.org/2000/svg">
<rect x="8.00012" y="5" width="1" height="1" fill="#7984EB"/>
<rect x="8.00012" y="11" width="1" height="1" fill="#7984EB"/>
<rect x="8.00012" y="10" width="1" height="1" fill="#7984EB"/>
<rect x="9.00012" y="10" width="1" height="1" fill="#7984EB"/>
<rect x="10.0001" y="9" width="1" height="1" fill="#7984EB"/>
<rect x="11.0001" y="8" width="1" height="1" fill="#7984EB"/>
<rect x="12.0001" y="7" width="1" height="1" fill="#7984EB"/>
<rect x="13.0001" y="6" width="1" height="1" fill="#7984EB"/>
<rect x="14.0001" y="5" width="1" height="1" fill="#7984EB"/>
<rect x="9.00012" y="9" width="1" height="1" fill="#7984EB"/>
<rect x="10.0001" y="8" width="1" height="1" fill="#7984EB"/>
<rect x="11.0001" y="7" width="1" height="1" fill="#7984EB"/>
<rect x="12.0001" y="6" width="1" height="1" fill="#7984EB"/>
<rect x="13.0001" y="5" width="1" height="1" fill="#7984EB"/>
<rect x="14.0001" y="4" width="1" height="1" fill="#7984EB"/>
<rect x="15.0001" y="4" width="1" height="1" fill="#7984EB"/>
<rect x="16.0001" y="4" width="1" height="1" fill="#7984EB"/>
<rect x="16.0001" y="5" width="1" height="1" fill="#7984EB"/>
<rect x="16.0001" y="6" width="1" height="1" fill="#7984EB"/>
<rect x="16.0001" y="7" width="1" height="1" fill="#7984EB"/>
<rect x="12.0001" y="4" width="1" height="1" transform="rotate(-90 12.0001 4)" fill="#7984EB"/>
<rect x="13.0001" y="4" width="1" height="1" transform="rotate(-90 13.0001 4)" fill="#7984EB"/>
<rect x="14.0001" y="4" width="1" height="1" transform="rotate(-90 14.0001 4)" fill="#7984EB"/>
<rect x="16.0001" y="4" width="1" height="1" transform="rotate(-90 16.0001 4)" fill="#7984EB"/>
<rect x="15.0001" y="4" width="1" height="1" transform="rotate(-90 15.0001 4)" fill="#7984EB"/>
<rect x="7.00012" y="5" width="1" height="1" fill="#7984EB"/>
<rect x="6.00012" y="5" width="1" height="1" fill="#7984EB"/>
<rect x="8.00012" y="4" width="1" height="1" fill="#7984EB"/>
<rect x="7.00012" y="4" width="1" height="1" fill="#7984EB"/>
<rect x="6.00012" y="4" width="1" height="1" fill="#7984EB"/>
<rect x="5.00012" y="5" width="1" height="1" fill="#7984EB"/>
<rect x="5.00012" y="4" width="1" height="1" fill="#7984EB"/>
<rect x="4.00012" y="6" width="1" height="1" fill="#7984EB"/>
<rect x="4.00012" y="5" width="1" height="1" fill="#7984EB"/>
<rect x="4.00012" y="7" width="1" height="1" fill="#7984EB"/>
<rect x="4.00012" y="8" width="1" height="1" fill="#7984EB"/>
<rect x="4.00012" y="10" width="1" height="1" fill="#7984EB"/>
<rect x="4.00012" y="9" width="1" height="1" fill="#7984EB"/>
<rect x="4.00012" y="11" width="1" height="1" fill="#7984EB"/>
<rect x="3.00012" y="11" width="1" height="1" fill="#7984EB"/>
<rect x="4.00012" y="12" width="1" height="1" fill="#7984EB"/>
<rect x="4.00012" y="14" width="1" height="1" fill="#7984EB"/>
<rect x="4.00012" y="13" width="1" height="1" fill="#7984EB"/>
<rect x="14.0001" y="10" width="1" height="1" fill="#7984EB"/>
<rect x="14.0001" y="11" width="1" height="1" fill="#7984EB"/>
<rect x="14.0001" y="12" width="1" height="1" fill="#7984EB"/>
<rect x="14.0001" y="14" width="1" height="1" fill="#7984EB"/>
<rect x="14.0001" y="13" width="1" height="1" fill="#7984EB"/>
<rect x="15.0001" y="10" width="1" height="1" fill="#7984EB"/>
<rect x="15.0001" y="11" width="1" height="1" fill="#7984EB"/>
<rect x="15.0001" y="12" width="1" height="1" fill="#7984EB"/>
<rect x="15.0001" y="14" width="1" height="1" fill="#7984EB"/>
<rect x="15.0001" y="15" width="1" height="1" fill="#7984EB"/>
<rect x="15.0001" y="13" width="1" height="1" fill="#7984EB"/>
<rect x="4.00012" y="15" width="1" height="1" fill="#7984EB"/>
<rect x="3.00012" y="6" width="1" height="1" fill="#7984EB"/>
<rect x="3.00012" y="7" width="1" height="1" fill="#7984EB"/>
<rect x="3.00012" y="8" width="1" height="1" fill="#7984EB"/>
<rect x="3.00012" y="10" width="1" height="1" fill="#7984EB"/>
<rect x="3.00012" y="9" width="1" height="1" fill="#7984EB"/>
<rect x="3.00012" y="12" width="1" height="1" fill="#7984EB"/>
<rect x="3.00012" y="14" width="1" height="1" fill="#7984EB"/>
<rect x="3.00012" y="13" width="1" height="1" fill="#7984EB"/>
<rect x="3.00012" y="15" width="1" height="1" fill="#7984EB"/>
<rect x="4.00012" y="16" width="1" height="1" fill="#7984EB"/>
<rect x="5.00012" y="16" width="1" height="1" fill="#7984EB"/>
<rect x="6.00012" y="16" width="1" height="1" fill="#7984EB"/>
<rect x="7.00012" y="16" width="1" height="1" fill="#7984EB"/>
<rect x="8.00012" y="16" width="1" height="1" fill="#7984EB"/>
<rect x="9.00012" y="16" width="1" height="1" fill="#7984EB"/>
<rect x="10.0001" y="16" width="1" height="1" fill="#7984EB"/>
<rect x="11.0001" y="16" width="1" height="1" fill="#7984EB"/>
<rect x="12.0001" y="16" width="1" height="1" fill="#7984EB"/>
<rect x="13.0001" y="16" width="1" height="1" fill="#7984EB"/>
<rect x="5.00012" y="17" width="1" height="1" fill="#7984EB"/>
<rect x="6.00012" y="17" width="1" height="1" fill="#7984EB"/>
<rect x="7.00012" y="17" width="1" height="1" fill="#7984EB"/>
<rect x="8.00012" y="17" width="1" height="1" fill="#7984EB"/>
<rect x="9.00012" y="17" width="1" height="1" fill="#7984EB"/>
<rect x="10.0001" y="17" width="1" height="1" fill="#7984EB"/>
<rect x="11.0001" y="17" width="1" height="1" fill="#7984EB"/>
<rect x="12.0001" y="17" width="1" height="1" fill="#7984EB"/>
<rect x="13.0001" y="17" width="1" height="1" fill="#7984EB"/>
<rect x="14.0001" y="16" width="1" height="1" fill="#7984EB"/>
<rect x="14.0001" y="15" width="1" height="1" fill="#7984EB"/>
</svg>
