<svg xmlns="http://www.w3.org/2000/svg" width="21" height="15" viewBox="0 0 21 15" fill="none">
  <rect x="4.12512" width="0.9375" height="0.9375" fill="#7984EB"/>
  <rect x="5.06262" width="0.9375" height="0.9375" fill="#7984EB"/>
  <rect x="6.00012" width="0.9375" height="0.9375" fill="#7984EB"/>
  <rect x="6.93762" width="0.9375" height="0.9375" fill="#7984EB"/>
  <rect x="7.87512" width="0.9375" height="0.9375" fill="#7984EB"/>
  <rect x="8.81262" width="0.9375" height="0.9375" fill="#7984EB"/>
  <rect x="9.75012" width="0.9375" height="0.9375" fill="#7984EB"/>
  <rect x="10.6876" width="0.9375" height="0.9375" fill="#7984EB"/>
  <rect x="11.6251" width="0.9375" height="0.9375" fill="#7984EB"/>
  <rect x="12.5626" width="0.9375" height="0.9375" fill="#7984EB"/>
  <rect x="13.5001" width="0.9375" height="0.9375" fill="#7984EB"/>
  <rect x="14.4376" width="0.9375" height="0.9375" fill="#7984EB"/>
  <rect x="4.12512" y="0.9375" width="0.9375" height="0.9375" fill="#7984EB"/>
  <rect x="3.18762" y="1.875" width="0.9375" height="0.9375" fill="#7984EB"/>
  <rect x="3.18762" y="2.8125" width="0.9375" height="0.9375" fill="#7984EB"/>
  <rect x="3.18762" y="3.75" width="0.9375" height="0.9375" fill="#7984EB"/>
  <rect x="1.31262" y="4.6875" width="0.9375" height="0.9375" fill="#7984EB"/>
  <rect x="1.31262" y="5.625" width="0.9375" height="0.9375" fill="#7984EB"/>
  <rect x="1.31262" y="6.5625" width="0.9375" height="0.9375" fill="#7984EB"/>
  <rect x="1.31262" y="7.5" width="0.9375" height="0.9375" fill="#7984EB"/>
  <rect x="0.375122" y="7.5" width="0.9375" height="0.9375" fill="#7984EB"/>
  <rect x="0.375122" y="6.5625" width="0.9375" height="0.9375" fill="#7984EB"/>
  <rect x="0.375122" y="5.625" width="0.9375" height="0.9375" fill="#7984EB"/>
  <rect x="0.375122" y="4.6875" width="0.9375" height="0.9375" fill="#7984EB"/>
  <rect x="20.0626" y="4.6875" width="0.9375" height="0.9375" fill="#7984EB"/>
  <rect x="20.0626" y="5.625" width="0.9375" height="0.9375" fill="#7984EB"/>
  <rect x="20.0626" y="6.5625" width="0.9375" height="0.9375" fill="#7984EB"/>
  <rect x="20.0626" y="7.5" width="0.9375" height="0.9375" fill="#7984EB"/>
  <rect x="19.1251" y="7.5" width="0.9375" height="0.9375" fill="#7984EB"/>
  <rect x="19.1251" y="6.5625" width="0.9375" height="0.9375" fill="#7984EB"/>
  <rect x="19.1251" y="5.625" width="0.9375" height="0.9375" fill="#7984EB"/>
  <rect x="19.1251" y="4.6875" width="0.9375" height="0.9375" fill="#7984EB"/>
  <rect x="3.18762" y="4.6875" width="0.9375" height="0.9375" fill="#7984EB"/>
  <rect x="3.18762" y="5.625" width="0.9375" height="0.9375" fill="#7984EB"/>
  <rect x="3.18762" y="6.5625" width="0.9375" height="0.9375" fill="#7984EB"/>
  <rect x="3.18762" y="7.5" width="0.9375" height="0.9375" fill="#7984EB"/>
  <rect x="3.18762" y="8.4375" width="0.9375" height="0.9375" fill="#7984EB"/>
  <rect x="3.18762" y="9.375" width="0.9375" height="0.9375" fill="#7984EB"/>
  <rect x="4.12512" y="10.3125" width="0.9375" height="0.9375" fill="#7984EB"/>
  <rect x="4.12512" y="11.25" width="0.9375" height="0.9375" fill="#7984EB"/>
  <rect x="4.12512" y="1.875" width="0.9375" height="0.9375" fill="#7984EB"/>
  <rect x="4.12512" y="2.8125" width="0.9375" height="0.9375" fill="#7984EB"/>
  <rect x="4.12512" y="3.75" width="0.9375" height="0.9375" fill="#7984EB"/>
  <rect x="4.12512" y="4.6875" width="0.9375" height="0.9375" fill="#7984EB"/>
  <rect x="6.93762" y="4.6875" width="0.9375" height="0.9375" fill="#7984EB"/>
  <rect x="13.5001" y="4.6875" width="0.9375" height="0.9375" fill="#7984EB"/>
  <rect x="13.5001" y="5.625" width="0.9375" height="0.9375" fill="#7984EB"/>
  <rect x="6.93762" y="5.625" width="0.9375" height="0.9375" fill="#7984EB"/>
  <rect x="8.81262" y="6.5625" width="0.9375" height="0.9375" fill="#7984EB"/>
  <rect x="9.75012" y="7.5" width="0.9375" height="0.9375" fill="#7984EB"/>
  <rect x="10.6876" y="7.5" width="0.9375" height="0.9375" fill="#7984EB"/>
  <rect x="11.6251" y="6.5625" width="0.9375" height="0.9375" fill="#7984EB"/>
  <rect x="4.12512" y="5.625" width="0.9375" height="0.9375" fill="#7984EB"/>
  <rect x="4.12512" y="6.5625" width="0.9375" height="0.9375" fill="#7984EB"/>
  <rect x="4.12512" y="7.5" width="0.9375" height="0.9375" fill="#7984EB"/>
  <rect x="4.12512" y="8.4375" width="0.9375" height="0.9375" fill="#7984EB"/>
  <rect x="4.12512" y="9.375" width="0.9375" height="0.9375" fill="#7984EB"/>
  <rect x="4.12512" y="13.125" width="0.9375" height="0.9375" fill="#7984EB"/>
  <rect x="4.12512" y="14.0625" width="0.9375" height="0.9375" fill="#7984EB"/>
  <rect x="5.06262" y="13.125" width="0.9375" height="0.9375" fill="#7984EB"/>
  <rect x="6.00012" y="12.1875" width="0.9375" height="0.9375" fill="#7984EB"/>
  <rect x="6.00012" y="11.25" width="0.9375" height="0.9375" fill="#7984EB"/>
  <rect x="6.93762" y="11.25" width="0.9375" height="0.9375" fill="#7984EB"/>
  <rect x="6.93762" y="10.3125" width="0.9375" height="0.9375" fill="#7984EB"/>
  <rect x="4.12512" y="12.1875" width="0.9375" height="0.9375" fill="#7984EB"/>
  <rect x="3.18762" y="10.3125" width="0.9375" height="0.9375" fill="#7984EB"/>
  <rect x="3.18762" y="11.25" width="0.9375" height="0.9375" fill="#7984EB"/>
  <rect x="3.18762" y="13.125" width="0.9375" height="0.9375" fill="#7984EB"/>
  <rect x="3.18762" y="14.0625" width="0.9375" height="0.9375" fill="#7984EB"/>
  <rect x="3.18762" y="12.1875" width="0.9375" height="0.9375" fill="#7984EB"/>
  <rect x="5.06262" y="0.9375" width="0.9375" height="0.9375" fill="#7984EB"/>
  <rect x="6.00012" y="0.9375" width="0.9375" height="0.9375" fill="#7984EB"/>
  <rect x="6.93762" y="0.9375" width="0.9375" height="0.9375" fill="#7984EB"/>
  <rect x="7.87512" y="0.9375" width="0.9375" height="0.9375" fill="#7984EB"/>
  <rect x="8.81262" y="0.9375" width="0.9375" height="0.9375" fill="#7984EB"/>
  <rect x="9.75012" y="0.9375" width="0.9375" height="0.9375" fill="#7984EB"/>
  <rect x="10.6876" y="0.9375" width="0.9375" height="0.9375" fill="#7984EB"/>
  <rect x="11.6251" y="0.9375" width="0.9375" height="0.9375" fill="#7984EB"/>
  <rect x="12.5626" y="0.9375" width="0.9375" height="0.9375" fill="#7984EB"/>
  <rect x="13.5001" y="0.9375" width="0.9375" height="0.9375" fill="#7984EB"/>
  <rect x="14.4376" y="0.9375" width="0.9375" height="0.9375" fill="#7984EB"/>
  <rect x="15.3751" width="0.9375" height="0.9375" fill="#7984EB"/>
  <rect x="15.3751" y="0.9375" width="0.9375" height="0.9375" fill="#7984EB"/>
  <rect x="16.3126" y="0.9375" width="0.9375" height="0.9375" fill="#7984EB"/>
  <rect x="16.3126" y="10.3125" width="0.9375" height="0.9375" fill="#7984EB"/>
  <rect x="16.3126" y="11.25" width="0.9375" height="0.9375" fill="#7984EB"/>
  <rect x="16.3126" width="0.9375" height="0.9375" fill="#7984EB"/>
  <rect x="16.3126" y="1.875" width="0.9375" height="0.9375" fill="#7984EB"/>
  <rect x="16.3126" y="2.8125" width="0.9375" height="0.9375" fill="#7984EB"/>
  <rect x="17.2501" y="1.875" width="0.9375" height="0.9375" fill="#7984EB"/>
  <rect x="17.2501" y="2.8125" width="0.9375" height="0.9375" fill="#7984EB"/>
  <rect x="16.3126" y="3.75" width="0.9375" height="0.9375" fill="#7984EB"/>
  <rect x="16.3126" y="4.6875" width="0.9375" height="0.9375" fill="#7984EB"/>
  <rect x="17.2501" y="3.75" width="0.9375" height="0.9375" fill="#7984EB"/>
  <rect x="17.2501" y="4.6875" width="0.9375" height="0.9375" fill="#7984EB"/>
  <rect x="16.3126" y="5.625" width="0.9375" height="0.9375" fill="#7984EB"/>
  <rect x="16.3126" y="6.5625" width="0.9375" height="0.9375" fill="#7984EB"/>
  <rect x="17.2501" y="5.625" width="0.9375" height="0.9375" fill="#7984EB"/>
  <rect x="17.2501" y="6.5625" width="0.9375" height="0.9375" fill="#7984EB"/>
  <rect x="16.3126" y="7.5" width="0.9375" height="0.9375" fill="#7984EB"/>
  <rect x="16.3126" y="8.4375" width="0.9375" height="0.9375" fill="#7984EB"/>
  <rect x="17.2501" y="7.5" width="0.9375" height="0.9375" fill="#7984EB"/>
  <rect x="17.2501" y="8.4375" width="0.9375" height="0.9375" fill="#7984EB"/>
  <rect x="16.3126" y="9.375" width="0.9375" height="0.9375" fill="#7984EB"/>
  <rect x="17.2501" y="9.375" width="0.9375" height="0.9375" fill="#7984EB"/>
  <rect x="7.87512" y="10.3125" width="0.9375" height="0.9375" fill="#7984EB"/>
  <rect x="8.81262" y="10.3125" width="0.9375" height="0.9375" fill="#7984EB"/>
  <rect x="9.75012" y="10.3125" width="0.9375" height="0.9375" fill="#7984EB"/>
  <rect x="10.6876" y="10.3125" width="0.9375" height="0.9375" fill="#7984EB"/>
  <rect x="11.6251" y="10.3125" width="0.9375" height="0.9375" fill="#7984EB"/>
  <rect x="12.5626" y="10.3125" width="0.9375" height="0.9375" fill="#7984EB"/>
  <rect x="13.5001" y="10.3125" width="0.9375" height="0.9375" fill="#7984EB"/>
  <rect x="14.4376" y="10.3125" width="0.9375" height="0.9375" fill="#7984EB"/>
  <rect x="15.3751" y="10.3125" width="0.9375" height="0.9375" fill="#7984EB"/>
  <rect x="15.3751" y="11.25" width="0.9375" height="0.9375" fill="#7984EB"/>
  <rect x="7.87512" y="11.25" width="0.9375" height="0.9375" fill="#7984EB"/>
  <rect x="8.81262" y="11.25" width="0.9375" height="0.9375" fill="#7984EB"/>
  <rect x="9.75012" y="11.25" width="0.9375" height="0.9375" fill="#7984EB"/>
  <rect x="10.6876" y="11.25" width="0.9375" height="0.9375" fill="#7984EB"/>
  <rect x="11.6251" y="11.25" width="0.9375" height="0.9375" fill="#7984EB"/>
  <rect x="12.5626" y="11.25" width="0.9375" height="0.9375" fill="#7984EB"/>
  <rect x="13.5001" y="11.25" width="0.9375" height="0.9375" fill="#7984EB"/>
  <rect x="14.4376" y="11.25" width="0.9375" height="0.9375" fill="#7984EB"/>
</svg>