<svg width="19" height="19" viewBox="0 0 19 19" fill="none" xmlns="http://www.w3.org/2000/svg">
<path d="M3.00012 3H4.18194V4.18182H3.00012V3Z" fill="#7984EB"/>
<path d="M4.18201 4.18164H5.36383V5.36346H4.18201V4.18164Z" fill="#7984EB"/>
<path d="M5.36365 5.36328H6.54547V6.5451H5.36365V5.36328Z" fill="#7984EB"/>
<path d="M6.54553 6.54492H7.72735V7.72674H6.54553V6.54492Z" fill="#7984EB"/>
<path d="M7.72742 7.72656H8.90924V8.90838H7.72742V7.72656Z" fill="#7984EB"/>
<path d="M7.72742 8.9082H8.90924V10.09H7.72742V8.9082Z" fill="#7984EB"/>
<path d="M10.0909 8.9082H11.2728V10.09H10.0909V8.9082Z" fill="#7984EB"/>
<path d="M4.18201 3H5.36383V4.18182H4.18201V3Z" fill="#7984EB"/>
<path d="M5.36365 4.18164H6.54547V5.36346H5.36365V4.18164Z" fill="#7984EB"/>
<path d="M6.54553 5.36328H7.72735V6.5451H6.54553V5.36328Z" fill="#7984EB"/>
<path d="M7.72742 6.54492H8.90924V7.72674H7.72742V6.54492Z" fill="#7984EB"/>
<path d="M8.9093 7.72656H10.0911V8.90838H8.9093V7.72656Z" fill="#7984EB"/>
<path d="M8.9093 8.9082H10.0911V10.09H8.9093V8.9082Z" fill="#7984EB"/>
<path d="M10.0909 10.0918H11.2728V11.2736H10.0909V10.0918Z" fill="#7984EB"/>
<path d="M11.2728 11.2734H12.4546V12.4553H11.2728V11.2734Z" fill="#7984EB"/>
<path d="M12.4547 12.4551H13.6365V13.6369H12.4547V12.4551Z" fill="#7984EB"/>
<path d="M13.6366 13.6367H14.8184V14.8185H13.6366V13.6367Z" fill="#7984EB"/>
<path d="M14.8182 14.8184H16.0001V16.0002H14.8182V14.8184Z" fill="#7984EB"/>
<path d="M8.9093 10.0918H10.0911V11.2736H8.9093V10.0918Z" fill="#7984EB"/>
<path d="M10.0909 11.2734H11.2728V12.4553H10.0909V11.2734Z" fill="#7984EB"/>
<path d="M11.2728 12.4551H12.4546V13.6369H11.2728V12.4551Z" fill="#7984EB"/>
<path d="M12.4547 13.6367H13.6365V14.8185H12.4547V13.6367Z" fill="#7984EB"/>
<path d="M13.6366 14.8184H14.8184V16.0002H13.6366V14.8184Z" fill="#7984EB"/>
<path d="M10.0909 7.72656H11.2728V8.90838H10.0909V7.72656Z" fill="#7984EB"/>
<path d="M11.2728 6.54492H12.4546V7.72674H11.2728V6.54492Z" fill="#7984EB"/>
<path d="M12.4547 5.36328H13.6365V6.5451H12.4547V5.36328Z" fill="#7984EB"/>
<path d="M13.6366 4.18164H14.8184V5.36346H13.6366V4.18164Z" fill="#7984EB"/>
<path d="M14.8182 3H16.0001V4.18182H14.8182V3Z" fill="#7984EB"/>
<path d="M8.9093 7.72656H10.0911V8.90838H8.9093V7.72656Z" fill="#7984EB"/>
<path d="M8.9093 7.72656H10.0911V8.90838H8.9093V7.72656Z" fill="#7984EB"/>
<path d="M10.0909 6.54492H11.2728V7.72674H10.0909V6.54492Z" fill="#7984EB"/>
<path d="M11.2728 5.36328H12.4546V6.5451H11.2728V5.36328Z" fill="#7984EB"/>
<path d="M12.4547 4.18164H13.6365V5.36346H12.4547V4.18164Z" fill="#7984EB"/>
<path d="M13.6366 3H14.8184V4.18182H13.6366V3Z" fill="#7984EB"/>
<path d="M4.18201 14.8184H5.36383V16.0002H4.18201V14.8184Z" fill="#7984EB"/>
<path d="M5.36365 13.6367H6.54547V14.8185H5.36365V13.6367Z" fill="#7984EB"/>
<path d="M6.54553 12.4551H7.72735V13.6369H6.54553V12.4551Z" fill="#7984EB"/>
<path d="M7.72742 11.2734H8.90924V12.4553H7.72742V11.2734Z" fill="#7984EB"/>
<path d="M8.9093 10.0918H10.0911V11.2736H8.9093V10.0918Z" fill="#7984EB"/>
<path d="M3.00012 14.8184H4.18194V16.0002H3.00012V14.8184Z" fill="#7984EB"/>
<path d="M4.18201 13.6367H5.36383V14.8185H4.18201V13.6367Z" fill="#7984EB"/>
<path d="M5.36365 12.4551H6.54547V13.6369H5.36365V12.4551Z" fill="#7984EB"/>
<path d="M6.54553 11.2734H7.72735V12.4553H6.54553V11.2734Z" fill="#7984EB"/>
<path d="M7.72742 10.0918H8.90924V11.2736H7.72742V10.0918Z" fill="#7984EB"/>
</svg>
