<svg width="16" height="10" viewBox="0 0 16 10" fill="none" xmlns="http://www.w3.org/2000/svg">
<path id="Vector" d="M14.8894 0.975088L7.99929 7.69152L1.10916 0.975088C0.986059 0.854835 0.8208 0.787511 0.648713 0.787511C0.476625 0.787511 0.311366 0.854835 0.188268 0.975088C0.128661 1.03349 0.0813067 1.1032 0.0489791 1.18013C0.0166514 1.25707 0 1.33968 0 1.42313C0 1.50658 0.0166514 1.58919 0.0489791 1.66612C0.0813067 1.74305 0.128661 1.81276 0.188268 1.87116L7.51817 9.01772C7.64689 9.14319 7.81954 9.21341 7.99929 9.21341C8.17905 9.21341 8.3517 9.14319 8.48042 9.01772L15.8103 1.87254C15.8703 1.8141 15.9181 1.74422 15.9506 1.66703C15.9832 1.58984 16 1.50691 16 1.42313C16 1.33934 15.9832 1.25641 15.9506 1.17922C15.9181 1.10204 15.8703 1.03216 15.8103 0.973709C15.6872 0.853456 15.522 0.786133 15.3499 0.786133C15.1778 0.786133 15.0125 0.853456 14.8894 0.973709V0.975088Z" fill="white"/>
</svg>
