<svg width="16" height="10" viewBox="0 0 16 10" fill="none" xmlns="http://www.w3.org/2000/svg">
<path id="Vector" d="M14.8894 9.02491L7.99929 2.30848L1.10916 9.02491C0.986059 9.14516 0.8208 9.21249 0.648713 9.21249C0.476625 9.21249 0.311366 9.14516 0.188268 9.02491C0.128661 8.96651 0.0813067 8.8968 0.0489791 8.81987C0.0166514 8.74293 0 8.66032 0 8.57687C0 8.49342 0.0166514 8.41081 0.0489791 8.33388C0.0813067 8.25695 0.128661 8.18724 0.188268 8.12884L7.51817 0.982284C7.64689 0.856813 7.81954 0.786592 7.99929 0.786592C8.17905 0.786592 8.3517 0.856813 8.48042 0.982284L15.8103 8.12746C15.8703 8.1859 15.9181 8.25578 15.9506 8.33297C15.9832 8.41016 16 8.49309 16 8.57687C16 8.66066 15.9832 8.74359 15.9506 8.82078C15.9181 8.89796 15.8703 8.96784 15.8103 9.02629C15.6872 9.14654 15.522 9.21387 15.3499 9.21387C15.1778 9.21387 15.0125 9.14654 14.8894 9.02629V9.02491Z" fill="white"/>
</svg>
