<svg width="9" height="17" viewBox="0 0 9 17" fill="none" xmlns="http://www.w3.org/2000/svg">
<path id="Vector" d="M0.475317 1.48703L7.19175 8.37717L0.475317 15.2673C0.355064 15.3904 0.28774 15.5557 0.28774 15.7278C0.28774 15.8998 0.355064 16.0651 0.475317 16.1882C0.53372 16.2478 0.603428 16.2952 0.680361 16.3275C0.757295 16.3598 0.839906 16.3765 0.923355 16.3765C1.0068 16.3765 1.08941 16.3598 1.16635 16.3275C1.24328 16.2952 1.31299 16.2478 1.37139 16.1882L8.51795 8.85829C8.64342 8.72957 8.71364 8.55693 8.71364 8.37717C8.71364 8.19741 8.64342 8.02477 8.51795 7.89605L1.37277 0.566143C1.31433 0.506115 1.24445 0.458405 1.16726 0.425826C1.09007 0.393249 1.00714 0.376466 0.923355 0.376466C0.839574 0.376466 0.756641 0.393249 0.679452 0.425826C0.602264 0.458405 0.532384 0.506115 0.473938 0.566143C0.353685 0.689242 0.286362 0.854502 0.286362 1.02659C0.286362 1.19868 0.353685 1.36394 0.473938 1.48703H0.475317Z" fill="white"/>
</svg>
