<svg width="9" height="17" viewBox="0 0 9 17" fill="none" xmlns="http://www.w3.org/2000/svg">
<path id="Vector" d="M8.52467 1.48703L1.80823 8.37717L8.52467 15.2673C8.64492 15.3904 8.71224 15.5557 8.71224 15.7278C8.71224 15.8998 8.64492 16.0651 8.52467 16.1882C8.46627 16.2478 8.39656 16.2952 8.31962 16.3275C8.24269 16.3598 8.16008 16.3765 8.07663 16.3765C7.99318 16.3765 7.91057 16.3598 7.83364 16.3275C7.7567 16.2952 7.68699 16.2478 7.62859 16.1882L0.482039 8.85829C0.356569 8.72957 0.286348 8.55693 0.286348 8.37717C0.286348 8.19741 0.356569 8.02477 0.482039 7.89605L7.62721 0.566143C7.68566 0.506115 7.75554 0.458405 7.83273 0.425826C7.90992 0.393249 7.99285 0.376466 8.07663 0.376466C8.16041 0.376466 8.24334 0.393249 8.32053 0.425826C8.39772 0.458405 8.4676 0.506115 8.52605 0.566143C8.6463 0.689242 8.71362 0.854502 8.71362 1.02659C8.71362 1.19868 8.6463 1.36394 8.52605 1.48703H8.52467Z" fill="white"/>
</svg>
