<svg width="1352" height="448" viewBox="0 0 1352 448" fill="none" xmlns="http://www.w3.org/2000/svg">
<mask id="mask0_1462_7902" style="mask-type:luminance" maskUnits="userSpaceOnUse" x="0" y="11" width="1352" height="437">
<path d="M1352 11H0V448H1352V11Z" fill="white"/>
</mask>
<g mask="url(#mask0_1462_7902)">
<path d="M1352 491.741C1204.86 408.575 1136.89 378.642 1015.06 431.761C876.74 368.425 824.456 389.725 676 455.775C601.798 404.014 573.332 382.525 538.952 414.909C454.293 344.523 407.765 321.489 336.838 382.789C329.15 389.418 318.953 394.329 307.464 396.936C295.974 399.543 283.676 399.736 272.037 397.491C165.25 376.794 62.6356 463.466 0 491.741H1352Z" fill="#5865F2" fill-opacity="0.2"/>
<path d="M1249.76 436.473C1247.64 435.153 1244.37 434.475 1240.46 434.475C1237.14 434.511 1233.85 434.892 1230.69 435.606L1228.58 436.096C1228.64 435.002 1228.46 433.908 1228.05 432.854C1226.89 429.536 1223.82 426.822 1219.23 424.974C1212.36 422.185 1202.7 421.732 1193.46 423.73C1191.65 424.112 1189.88 424.591 1188.18 425.163C1187.38 423.328 1186.29 421.569 1184.9 419.923C1176.61 409.97 1159.39 404.126 1146.51 406.916C1141.01 408.085 1136.9 410.762 1134.94 414.381C1132.41 419.056 1133.52 424.824 1138.06 430.252C1144.76 438.358 1157.65 443.937 1169.48 443.975C1169.59 444.465 1169.69 444.955 1169.85 445.408C1170.19 446.309 1170.67 447.181 1171.28 448.009H1172.49C1171.78 447.138 1171.24 446.198 1170.91 445.219C1170.71 444.674 1170.57 444.12 1170.48 443.56C1170.47 443.467 1170.41 443.381 1170.31 443.318C1170.21 443.255 1170.09 443.221 1169.96 443.221H1169.59C1158.07 443.221 1145.5 437.755 1138.95 429.875C1134.62 424.635 1133.52 419.093 1135.89 414.645C1137.74 411.252 1141.65 408.764 1146.82 407.633C1159.23 404.956 1175.92 410.649 1184 420.3C1185.43 422.028 1186.55 423.877 1187.33 425.804C1187.39 425.904 1187.51 425.985 1187.65 426.03C1187.79 426.068 1187.93 426.068 1188.07 426.03C1189.91 425.392 1191.81 424.863 1193.77 424.447C1202.75 422.524 1212.05 422.939 1218.7 425.615C1223.03 427.387 1225.94 429.951 1227.05 433.042C1227.48 434.209 1227.62 435.421 1227.47 436.624C1227.47 436.752 1227.55 436.874 1227.68 436.963C1227.75 437.006 1227.84 437.033 1227.93 437.039C1228.03 437.046 1228.12 437.033 1228.21 437.001L1231.01 436.322C1238.72 434.663 1245.64 434.927 1249.07 437.038C1250.92 438.132 1251.66 439.677 1251.29 441.487C1250.92 443.296 1249.17 445.86 1246.48 448.009H1247.85C1250.34 445.898 1251.97 443.673 1252.34 441.6C1252.71 439.526 1251.87 437.717 1249.76 436.473Z" fill="#808AFF"/>
<path d="M55.9571 272.482C102.063 255.894 134.648 268.75 134.648 268.75C157.463 263.698 177.532 267.242 187.936 273.01C194.379 276.629 179.908 275.988 147.428 275.988H57.1718C56.4854 275.988 55.8272 275.794 55.3419 275.447C54.8566 275.101 54.584 274.631 54.584 274.141C54.5882 273.803 54.7173 273.471 54.9585 273.18C55.1996 272.888 55.544 272.648 55.9571 272.482Z" fill="#5865F2" fill-opacity="0.2"/>
<path d="M430.686 284.496C442.358 280.274 450.596 283.554 450.596 283.554C456.353 282.272 461.476 283.177 464.064 284.609C465.701 285.552 462.057 285.363 453.818 285.363H430.95C430.782 285.363 430.621 285.316 430.502 285.231C430.383 285.146 430.316 285.031 430.316 284.911C430.315 284.824 430.35 284.738 430.415 284.665C430.481 284.591 430.575 284.533 430.686 284.496Z" fill="#5865F2" fill-opacity="0.2"/>
<path d="M1245.47 291.908C1245.4 288.635 1243.73 285.482 1240.76 282.987C1237.8 280.491 1233.71 278.809 1229.19 278.226C1224.68 277.643 1220.03 278.196 1216.02 279.791C1212.02 281.385 1208.91 283.923 1207.23 286.97C1205.76 286.741 1204.26 286.627 1202.75 286.63C1199.71 286.624 1196.72 287.093 1193.97 288.005C1191.23 288.918 1188.79 290.25 1186.85 291.908H1245.47Z" fill="#5865F2" fill-opacity="0.2"/>
<path d="M188.123 75C184.955 75.0011 181.835 75.5504 179.029 76.6007C176.224 77.6514 173.817 79.1718 172.015 81.0319C164.965 78.7394 157.142 77.9398 149.474 78.7285C141.807 79.5172 134.618 81.8606 128.762 85.4805H207.083C205.986 82.4845 203.532 79.8316 200.102 77.936C196.673 76.0401 192.46 75.0079 188.123 75Z" fill="#5865F2" fill-opacity="0.2"/>
<path d="M1175.37 109.904C1176.7 109.914 1178.01 109.715 1179.22 109.32C1180.42 108.925 1181.49 108.345 1182.34 107.62C1183.19 106.896 1183.81 106.045 1184.15 105.13C1184.49 104.215 1184.54 103.257 1184.3 102.327C1181.77 92.5835 1174.86 83.6931 1164.63 76.9977C1154.39 70.3022 1141.39 66.1654 1127.57 65.212C1113.75 64.2582 1099.88 66.5398 1088.04 71.7118C1076.19 76.8838 1067.03 84.6654 1061.93 93.8819C1057.21 93.1546 1052.39 92.7878 1047.57 92.7886C1038.29 92.7776 1029.1 94.1503 1020.61 96.8183C1012.12 99.4863 1004.5 103.391 998.238 108.283C998.069 108.424 997.958 108.596 997.921 108.779C997.879 108.963 997.916 109.151 998.022 109.321C998.127 109.49 998.296 109.635 998.513 109.739C998.729 109.842 998.983 109.899 999.242 109.904H1175.37Z" fill="#5865F2" fill-opacity="0.2"/>
<path d="M908.692 447.774H907.635C908.058 439.253 905.84 433.712 900.823 430.884C895.805 428.057 887.408 427.868 875.631 430.469C875.489 430.495 875.335 430.482 875.209 430.432C875.077 430.37 874.981 430.276 874.945 430.168C874.617 428.652 873.746 427.223 872.41 426.02C871.079 424.817 869.331 423.882 867.34 423.306C862.27 421.836 855.985 422.666 850.598 425.493C837.5 432.317 838.926 444.531 838.926 444.644C838.926 444.722 838.9 444.799 838.842 444.865C838.789 444.932 838.705 444.986 838.61 445.021C838.515 445.058 838.409 445.07 838.303 445.056C838.198 445.042 838.097 445.004 838.029 444.946C831.216 440.611 826.463 438.914 822.607 439.404C818.752 439.894 815.266 442.835 811.305 447.774H810.091C814.369 442.42 817.854 439.216 822.396 438.65C826.938 438.085 831.216 439.743 837.817 443.815C837.765 440.799 838.504 430.884 849.964 424.89C855.668 421.912 862.322 421.044 867.709 422.628C869.785 423.206 871.623 424.147 873.054 425.367C874.485 426.586 875.462 428.042 875.895 429.602C887.725 427.076 896.07 427.303 901.456 430.319C906.843 433.335 909.114 438.989 908.692 447.774Z" fill="#808AFF"/>
<path d="M249.166 161.583C247.229 160.682 245.584 159.475 244.346 158.049C243.109 156.622 242.309 155.01 242.005 153.328L240.77 147.459C240.741 147.329 240.649 147.212 240.513 147.128C240.378 147.043 240.206 146.998 240.029 147C239.852 146.998 239.68 147.043 239.544 147.128C239.408 147.212 239.317 147.329 239.289 147.459L238.054 153.328C237.725 155.005 236.916 156.61 235.68 158.033C234.445 159.458 232.811 160.668 230.893 161.583L229.905 162.041C229.786 162.08 229.686 162.144 229.62 162.227C229.553 162.309 229.523 162.405 229.535 162.5C229.523 162.595 229.553 162.692 229.62 162.773C229.686 162.856 229.786 162.921 229.905 162.959L230.893 163.417C232.805 164.36 234.43 165.589 235.664 167.027C236.897 168.464 237.711 170.078 238.054 171.763L239.289 177.541C239.317 177.671 239.408 177.788 239.544 177.872C239.68 177.957 239.852 178.002 240.029 178C240.206 178.002 240.378 177.957 240.513 177.872C240.649 177.788 240.741 177.671 240.77 177.541L242.005 171.763C242.323 170.073 243.128 168.452 244.364 167.012C245.599 165.572 247.237 164.346 249.166 163.417L250.154 162.959C250.272 162.921 250.371 162.856 250.438 162.773C250.504 162.692 250.534 162.595 250.524 162.5C250.534 162.405 250.504 162.309 250.438 162.227C250.371 162.144 250.272 162.08 250.154 162.041L249.166 161.583Z" fill="#91FFAD"/>
<path d="M1060.15 189.021C1059.13 188.576 1058.27 187.991 1057.61 187.303C1056.95 186.615 1056.52 185.84 1056.34 185.031L1055.73 182.233C1055.71 182.169 1055.65 182.112 1055.58 182.07C1055.5 182.028 1055.4 182.003 1055.31 182C1055.21 181.999 1055.11 182.022 1055.03 182.065C1054.95 182.107 1054.9 182.167 1054.88 182.233L1054.27 185.031C1054.08 185.842 1053.64 186.617 1052.98 187.305C1052.32 187.993 1051.44 188.578 1050.42 189.021L1049.88 189.254C1049.82 189.281 1049.78 189.316 1049.75 189.356C1049.71 189.396 1049.69 189.441 1049.69 189.487C1049.69 189.534 1049.71 189.579 1049.74 189.62C1049.77 189.66 1049.82 189.695 1049.88 189.72L1050.42 189.953C1051.45 190.402 1052.32 190.991 1052.98 191.683C1053.64 192.376 1054.08 193.155 1054.27 193.969L1054.88 196.767C1054.9 196.833 1054.95 196.893 1055.03 196.936C1055.11 196.978 1055.21 197.001 1055.31 197C1055.4 196.997 1055.5 196.972 1055.58 196.93C1055.65 196.888 1055.71 196.831 1055.73 196.767L1056.34 193.969C1056.52 193.156 1056.95 192.378 1057.61 191.686C1058.26 190.994 1059.13 190.403 1060.15 189.953L1060.73 189.72C1060.78 189.694 1060.83 189.658 1060.85 189.617C1060.88 189.576 1060.89 189.532 1060.88 189.487C1060.89 189.443 1060.88 189.399 1060.85 189.358C1060.82 189.318 1060.78 189.282 1060.73 189.254L1060.15 189.021Z" fill="#3F99F2"/>
<path d="M1153.27 366.606C1152.13 366.081 1151.17 365.388 1150.44 364.576C1149.71 363.763 1149.24 362.849 1149.04 361.894L1148.3 358.614C1148.3 358.534 1148.26 358.457 1148.18 358.401C1148.1 358.344 1147.99 358.313 1147.88 358.313C1147.76 358.312 1147.65 358.343 1147.56 358.398C1147.47 358.454 1147.41 358.531 1147.4 358.614L1146.72 361.894C1146.51 362.851 1146.03 363.767 1145.29 364.579C1144.55 365.391 1143.58 366.082 1142.44 366.606L1141.86 366.87C1141.8 366.902 1141.75 366.941 1141.72 366.986C1141.68 367.032 1141.65 367.082 1141.65 367.134C1141.65 367.188 1141.66 367.24 1141.71 367.287C1141.74 367.333 1141.8 367.371 1141.86 367.398L1142.44 367.662C1143.58 368.189 1144.54 368.882 1145.28 369.694C1146.02 370.505 1146.51 371.419 1146.72 372.374L1147.4 375.654C1147.41 375.738 1147.47 375.815 1147.56 375.87C1147.65 375.926 1147.76 375.957 1147.88 375.956C1147.99 375.956 1148.1 375.924 1148.18 375.868C1148.26 375.811 1148.3 375.734 1148.3 375.654L1149.04 372.374C1149.24 371.421 1149.72 370.509 1150.45 369.697C1151.18 368.885 1152.14 368.192 1153.27 367.662L1153.85 367.398C1153.92 367.375 1153.97 367.337 1154.01 367.29C1154.05 367.243 1154.06 367.189 1154.06 367.134C1154.06 367.081 1154.04 367.028 1154 366.982C1153.96 366.936 1153.91 366.897 1153.85 366.87L1153.27 366.606Z" fill="#404EED"/>
<path d="M475.788 367.963C475.358 367.769 474.994 367.509 474.72 367.203C474.447 366.897 474.27 366.552 474.203 366.192L473.939 364.985C473.939 364.955 473.922 364.926 473.893 364.905C473.863 364.884 473.822 364.872 473.781 364.872C473.738 364.872 473.698 364.884 473.669 364.905C473.639 364.926 473.622 364.955 473.622 364.985L473.358 366.192C473.291 366.552 473.115 366.897 472.841 367.203C472.567 367.509 472.203 367.769 471.774 367.963L471.51 368.077C471.457 368.077 471.457 368.152 471.457 368.19C471.454 368.21 471.458 368.231 471.467 368.25C471.476 368.27 471.49 368.288 471.51 368.303L471.774 368.378C472.191 368.582 472.547 368.844 472.819 369.148C473.092 369.453 473.275 369.794 473.358 370.15L473.622 371.394C473.622 371.424 473.639 371.453 473.669 371.474C473.698 371.495 473.738 371.507 473.781 371.507C473.822 371.507 473.863 371.495 473.893 371.474C473.922 371.453 473.939 371.424 473.939 371.394L474.203 370.15C474.286 369.794 474.469 369.453 474.741 369.148C475.014 368.844 475.369 368.582 475.788 368.378L476.052 368.303C476.071 368.288 476.085 368.27 476.094 368.25C476.103 368.231 476.106 368.21 476.104 368.19C476.104 368.152 476.104 368.077 476.052 368.077L475.788 367.963Z" fill="#FF78B9"/>
<path d="M498.075 416.332C497.855 416.239 497.667 416.113 497.521 415.964C497.375 415.814 497.276 415.644 497.23 415.465L497.124 414.824H496.965L496.807 415.465C496.77 415.642 496.68 415.811 496.543 415.96C496.406 416.11 496.226 416.237 496.015 416.332L495.909 416.408C495.895 416.408 495.882 416.412 495.872 416.419C495.862 416.426 495.856 416.435 495.856 416.445C495.856 416.455 495.862 416.465 495.872 416.472C495.882 416.479 495.895 416.483 495.909 416.483L496.015 416.558C496.226 416.654 496.406 416.781 496.543 416.93C496.68 417.08 496.77 417.249 496.807 417.426L496.965 418.066H497.124L497.23 417.426C497.276 417.246 497.375 417.076 497.521 416.927C497.667 416.777 497.855 416.652 498.075 416.558L498.18 416.483L498.075 416.332Z" fill="#FFC619"/>
<path d="M721.313 412.789C720.838 412.56 720.436 412.265 720.13 411.921C719.818 411.578 719.612 411.193 719.517 410.791L719.253 409.433C719.253 409.358 719.148 409.32 719.042 409.32C719.021 409.32 719 409.323 718.979 409.329C718.963 409.335 718.947 409.343 718.931 409.353C718.915 409.364 718.905 409.376 718.894 409.39C718.889 409.404 718.883 409.419 718.883 409.433L718.567 410.791C718.493 411.194 718.303 411.58 718.002 411.925C717.701 412.27 717.299 412.565 716.824 412.789L716.56 412.902C716.507 412.902 716.454 412.939 716.454 413.015C716.454 413.053 716.507 413.09 716.56 413.128L716.824 413.241C717.289 413.463 717.685 413.752 717.986 414.09C718.287 414.427 718.482 414.806 718.567 415.201L718.883 416.559C718.883 416.589 718.899 416.617 718.931 416.639C718.957 416.66 719 416.672 719.042 416.672C719.148 416.672 719.253 416.634 719.253 416.559L719.517 415.201C719.618 414.806 719.829 414.429 720.135 414.092C720.447 413.755 720.843 413.466 721.313 413.241L721.577 413.128C721.598 413.113 721.609 413.095 721.619 413.075C721.63 413.056 721.63 413.035 721.63 413.015C721.63 412.939 721.63 412.902 721.577 412.902L721.313 412.789Z" fill="#91FFAD"/>
<path d="M174.334 403.892C173.826 403.647 173.395 403.329 173.068 402.959C172.741 402.59 172.524 402.175 172.433 401.743L172.116 400.235C172.063 400.159 172.01 400.084 171.905 400.084C171.849 400.084 171.795 400.1 171.755 400.128C171.716 400.156 171.693 400.195 171.693 400.235L171.376 401.743C171.275 402.178 171.05 402.593 170.713 402.963C170.377 403.333 169.937 403.649 169.422 403.892L169.106 404.005C169.053 404.042 169.053 404.08 169.053 404.156C169.053 404.193 169.053 404.269 169.106 404.269L169.422 404.419C169.942 404.659 170.385 404.974 170.722 405.345C171.058 405.715 171.281 406.132 171.376 406.568L171.693 408.076C171.693 408.152 171.799 408.189 171.905 408.189C172.01 408.189 172.063 408.152 172.116 408.076L172.433 406.568C172.518 406.134 172.732 405.719 173.06 405.348C173.387 404.977 173.822 404.661 174.334 404.419L174.651 404.269C174.704 404.269 174.756 404.193 174.756 404.156C174.756 404.127 174.747 404.097 174.728 404.071C174.71 404.045 174.684 404.022 174.651 404.005L174.334 403.892Z" fill="#FF78B9"/>
<path d="M269.803 305.808C269.295 305.563 268.864 305.245 268.537 304.875C268.209 304.506 267.993 304.091 267.901 303.659L267.585 302.151C267.532 302.075 267.479 302 267.373 302C267.317 302 267.264 302.016 267.224 302.044C267.184 302.072 267.162 302.111 267.162 302.151L266.845 303.659C266.744 304.094 266.518 304.509 266.182 304.879C265.845 305.249 265.406 305.565 264.891 305.808L264.574 305.921C264.521 305.958 264.521 305.996 264.521 306.072C264.521 306.109 264.521 306.185 264.574 306.185L264.891 306.335C265.411 306.575 265.853 306.89 266.19 307.261C266.527 307.631 266.75 308.048 266.845 308.484L267.162 309.992C267.162 310.068 267.268 310.105 267.373 310.105C267.479 310.105 267.532 310.068 267.585 309.992L267.901 308.484C267.987 308.05 268.2 307.635 268.528 307.264C268.856 306.893 269.29 306.577 269.803 306.335L270.12 306.185C270.172 306.185 270.225 306.109 270.225 306.072C270.225 306.043 270.216 306.014 270.197 305.987C270.179 305.961 270.152 305.938 270.12 305.921L269.803 305.808Z" fill="#B756FE"/>
</g>
</svg>
