<svg width="66" height="51" viewBox="0 0 66 51" fill="none" xmlns="http://www.w3.org/2000/svg">
<g id="Logo" clip-path="url(#clip0_1462_7927)">
<path id="Vector" d="M55.6945 4.6701C51.4065 2.69641 46.8702 1.29402 42.2053 0.5C41.6243 1.53342 40.9454 2.92337 40.4772 4.02915C35.4477 3.28518 30.4645 3.28518 25.5274 4.02915C25.0595 2.92362 24.3653 1.53342 23.7789 0.5C19.1095 1.29439 14.5693 2.70035 10.2793 4.6804C1.74249 17.3711 -0.571773 29.7462 0.585229 41.9462C6.24738 46.1058 11.7346 48.6327 17.1293 50.2862C18.4701 48.4724 19.6552 46.5521 20.6726 44.5452C18.7357 43.8198 16.8684 42.9258 15.093 41.8739C15.5602 41.5332 16.0164 41.1782 16.4609 40.8093C27.2192 45.7595 38.9088 45.7595 49.5389 40.8093C49.9854 41.1757 50.4414 41.5307 50.9066 41.8739C49.1283 42.9286 47.2576 43.8244 45.3167 44.5505C46.3399 46.5656 47.5229 48.4877 48.86 50.2912C54.2599 48.6379 59.7522 46.1111 65.4143 41.9462C66.7721 27.8035 63.0952 15.542 55.6945 4.6701ZM22.1384 34.4435C18.9088 34.4435 16.2602 31.4774 16.2602 27.8656C16.2602 24.2538 18.8523 21.2827 22.1384 21.2827C25.4247 21.2827 28.0731 24.2485 28.0166 27.8656C28.0217 31.4774 25.4247 34.4435 22.1384 34.4435ZM43.8612 34.4435C40.6315 34.4435 37.9832 31.4774 37.9832 27.8656C37.9832 24.2538 40.5751 21.2827 43.8612 21.2827C47.1475 21.2827 49.7958 24.2485 49.7394 27.8656C49.7394 31.4774 47.1475 34.4435 43.8612 34.4435Z" fill="#5865F2"/>
</g>
<defs>
<clipPath id="clip0_1462_7927">
<rect width="65.3846" height="50" fill="white" transform="translate(0.307617 0.5)"/>
</clipPath>
</defs>
</svg>
