<svg width="48" height="50" viewBox="0 0 48 50" fill="none" xmlns="http://www.w3.org/2000/svg">
<g id="pixel_white &#34;Vercel&#34;">
<path id="Vector" d="M25.018 36.1113H22.2402V33.3335H25.018V36.1113Z" fill="white"/>
<path id="Vector_2" d="M25.018 41.667H22.2402V38.8892H25.018V41.667Z" fill="white"/>
<path id="Vector_3" d="M25.018 47.2227H22.2402V44.4449H25.018V47.2227Z" fill="white"/>
<path id="Vector_4" d="M30.5727 36.1113H27.7949V33.3335H30.5727V36.1113Z" fill="white"/>
<path id="Vector_5" d="M27.7954 36.1113H25.0176V33.3335H27.7954V36.1113Z" fill="white"/>
<path id="Vector_6" d="M30.5727 41.667H27.7949V38.8892H30.5727V41.667Z" fill="white"/>
<path id="Vector_7" d="M30.5727 38.8887H27.7949V36.1109H30.5727V38.8887Z" fill="white"/>
<path id="Vector_8" d="M33.351 48.333H30.5732V45.5552H33.351V48.333Z" fill="white"/>
<path id="Vector_9" d="M33.351 46.667H30.5732V43.8892H33.351V46.667Z" fill="white"/>
<path id="Vector_10" d="M33.351 44.4443H30.5732V41.6666H33.351V44.4443Z" fill="white"/>
<path id="Vector_11" d="M33.351 38.8887H30.5732V36.1109H33.351V38.8887Z" fill="white"/>
<path id="Vector_12" d="M35.5727 47.2227H32.7949V44.4449H35.5727V47.2227Z" fill="white"/>
<path id="Vector_13" d="M27.7954 50H25.0176V47.2222H27.7954V50Z" fill="white"/>
<path id="Vector_14" d="M30.5727 50H27.7949V47.2222H30.5727V50Z" fill="white"/>
<path id="Vector_15" d="M33.351 36.1113H30.5732V33.3335H33.351V36.1113Z" fill="white"/>
<path id="Vector_16" d="M33.351 41.667H30.5732V38.8892H33.351V41.667Z" fill="white"/>
<path id="Vector_17" d="M16.684 47.2227H13.9062V44.4449H16.684V47.2227Z" fill="white"/>
<path id="Vector_18" d="M16.684 48.333H13.9062V45.5552H16.684V48.333Z" fill="white"/>
<path id="Vector_19" d="M16.684 48.333H13.9062V45.5552H16.684V48.333Z" fill="white"/>
<path id="Vector_20" d="M14.4623 47.2227H11.6846V44.4449H14.4623V47.2227Z" fill="white"/>
<path id="Vector_21" d="M16.684 44.4443H13.9062V41.6666H16.684V44.4443Z" fill="white"/>
<path id="Vector_22" d="M16.684 41.667H13.9062V38.8892H16.684V41.667Z" fill="white"/>
<path id="Vector_23" d="M16.684 38.8887H13.9062V36.1109H16.684V38.8887Z" fill="white"/>
<path id="Vector_24" d="M27.7954 47.2227H25.0176V44.4449H27.7954V47.2227Z" fill="white"/>
<path id="Vector_25" d="M30.5727 47.2227H27.7949V44.4449H30.5727V47.2227Z" fill="white"/>
<path id="Vector_26" d="M27.7954 44.4443H25.0176V41.6666H27.7954V44.4443Z" fill="white"/>
<path id="Vector_27" d="M27.7954 41.667H25.0176V38.8892H27.7954V41.667Z" fill="white"/>
<path id="Vector_28" d="M27.7954 38.8887H25.0176V36.1109H27.7954V38.8887Z" fill="white"/>
<path id="Vector_29" d="M22.2397 36.1113H19.4619V33.3335H22.2397V36.1113Z" fill="white"/>
<path id="Vector_30" d="M22.2397 50H19.4619V47.2222H22.2397V50Z" fill="white"/>
<path id="Vector_31" d="M19.4623 50H16.6846V47.2222H19.4623V50Z" fill="white"/>
<path id="Vector_32" d="M22.2397 47.2227H19.4619V44.4449H22.2397V47.2227Z" fill="white"/>
<path id="Vector_33" d="M22.2397 44.4443H19.4619V41.6666H22.2397V44.4443Z" fill="white"/>
<path id="Vector_34" d="M22.2397 41.667H19.4619V38.8892H22.2397V41.667Z" fill="white"/>
<path id="Vector_35" d="M22.2397 38.8887H19.4619V36.1109H22.2397V38.8887Z" fill="white"/>
<path id="Vector_36" d="M30.5727 44.4443H27.7949V41.6666H30.5727V44.4443Z" fill="white"/>
<path id="Vector_37" d="M36.1284 36.1113H33.3506V33.3335H36.1284V36.1113Z" fill="white"/>
<path id="Vector_38" d="M36.1284 41.667H33.3506V38.8892H36.1284V41.667Z" fill="white"/>
<path id="Vector_39" d="M36.1284 38.8887H33.3506V36.1109H36.1284V38.8887Z" fill="white"/>
<path id="Vector_40" d="M36.1284 44.4443H33.3506V41.6666H36.1284V44.4443Z" fill="white"/>
<path id="Vector_41" d="M38.9067 33.333H36.1289V30.5552H38.9067V33.333Z" fill="white"/>
<path id="Vector_42" d="M37.7954 33.333H35.0176V30.5552H37.7954V33.333Z" fill="white"/>
<path id="Vector_43" d="M41.684 36.1113H38.9062V33.3335H41.684V36.1113Z" fill="white"/>
<path id="Vector_44" d="M41.684 41.667H38.9062V38.8892H41.684V41.667Z" fill="white"/>
<path id="Vector_45" d="M41.684 38.8887H38.9062V36.1109H41.684V38.8887Z" fill="white"/>
<path id="Vector_46" d="M38.9067 36.1113H36.1289V33.3335H38.9067V36.1113Z" fill="white"/>
<path id="Vector_47" d="M38.9067 41.667H36.1289V38.8892H38.9067V41.667Z" fill="white"/>
<path id="Vector_48" d="M38.9067 38.8887H36.1289V36.1109H38.9067V38.8887Z" fill="white"/>
<path id="Vector_49" d="M38.9067 44.4443H36.1289V41.6666H38.9067V44.4443Z" fill="white"/>
<path id="Vector_50" d="M19.4623 41.667H16.6846V38.8892H19.4623V41.667Z" fill="white"/>
<path id="Vector_51" d="M19.4623 38.8887H16.6846V36.1109H19.4623V38.8887Z" fill="white"/>
<path id="Vector_52" d="M16.684 36.1113H13.9062V33.3335H16.684V36.1113Z" fill="white"/>
<path id="Vector_53" d="M11.684 44.4443H8.90625V41.6666H11.684V44.4443Z" fill="white"/>
<path id="Vector_54" d="M11.1284 41.667H8.35059V38.8892H11.1284V41.667Z" fill="white"/>
<path id="Vector_55" d="M11.1284 38.8887H8.35059V36.1109H11.1284V38.8887Z" fill="white"/>
<path id="Vector_56" d="M11.1284 36.1113H8.35059V33.3335H11.1284V36.1113Z" fill="white"/>
<path id="Vector_57" d="M11.1284 16.667H8.35059V13.8892H11.1284V16.667Z" fill="white"/>
<path id="Vector_58" d="M11.1284 13.8887H8.35059V11.1109H11.1284V13.8887Z" fill="white"/>
<path id="Vector_59" d="M11.1284 11.1113H8.35059V8.33355H11.1284V11.1113Z" fill="white"/>
<path id="Vector_60" d="M11.1284 8.33301H8.35059V5.55523H11.1284V8.33301Z" fill="white"/>
<path id="Vector_61" d="M11.1284 33.333H8.35059V30.5552H11.1284V33.333Z" fill="white"/>
<path id="Vector_62" d="M12.2397 33.333H9.46191V30.5552H12.2397V33.333Z" fill="white"/>
<path id="Vector_63" d="M11.1284 30.5557H8.35059V27.7779H11.1284V30.5557Z" fill="white"/>
<path id="Vector_64" d="M11.1284 27.7773H8.35059V24.9996H11.1284V27.7773Z" fill="white"/>
<path id="Vector_65" d="M11.1284 25H8.35059V22.2222H11.1284V25Z" fill="white"/>
<path id="Vector_66" d="M11.1284 19.4443H8.35059V16.6666H11.1284V19.4443Z" fill="white"/>
<path id="Vector_67" d="M11.1284 22.2227H8.35059V19.4449H11.1284V22.2227Z" fill="white"/>
<path id="Vector_68" d="M8.35102 16.667H5.57324V13.8892H8.35102V16.667Z" fill="white"/>
<path id="Vector_69" d="M8.35102 13.8887H5.57324V11.1109H8.35102V13.8887Z" fill="white"/>
<path id="Vector_70" d="M8.90668 11.1113H6.12891V8.33355H8.90668V11.1113Z" fill="white"/>
<path id="Vector_71" d="M11.1284 8.33301H8.35059V5.55523H11.1284V8.33301Z" fill="white"/>
<path id="Vector_72" d="M8.35102 33.333H5.57324V30.5552H8.35102V33.333Z" fill="white"/>
<path id="Vector_73" d="M8.35102 30.5557H5.57324V27.7779H8.35102V30.5557Z" fill="white"/>
<path id="Vector_74" d="M8.35102 27.7773H5.57324V24.9996H8.35102V27.7773Z" fill="white"/>
<path id="Vector_75" d="M8.35102 25H5.57324V22.2222H8.35102V25Z" fill="white"/>
<path id="Vector_76" d="M8.35102 19.4443H5.57324V16.6666H8.35102V19.4443Z" fill="white"/>
<path id="Vector_77" d="M8.35102 22.2227H5.57324V19.4449H8.35102V22.2227Z" fill="white"/>
<path id="Vector_78" d="M5.5727 16.667H2.79492V13.8892H5.5727V16.667Z" fill="white"/>
<path id="Vector_79" d="M6.12836 13.8887H3.35059V11.1109H6.12836V13.8887Z" fill="white"/>
<path id="Vector_80" d="M13.9067 11.1113H11.1289V8.33355H13.9067V11.1113Z" fill="white"/>
<path id="Vector_81" d="M5.5727 33.333H2.79492V30.5552H5.5727V33.333Z" fill="white"/>
<path id="Vector_82" d="M3.90668 36.1113H1.12891V33.3335H3.90668V36.1113Z" fill="white"/>
<path id="Vector_83" d="M6.12836 36.1113H3.35059V33.3335H6.12836V36.1113Z" fill="white"/>
<path id="Vector_84" d="M6.12836 38.8887H3.35059V36.1109H6.12836V38.8887Z" fill="white"/>
<path id="Vector_85" d="M8.35102 38.8887H5.57324V36.1109H8.35102V38.8887Z" fill="white"/>
<path id="Vector_86" d="M8.90668 41.667H6.12891V38.8892H8.90668V41.667Z" fill="white"/>
<path id="Vector_87" d="M5.5727 30.5557H2.79492V27.7779H5.5727V30.5557Z" fill="white"/>
<path id="Vector_88" d="M5.5727 27.7773H2.79492V24.9996H5.5727V27.7773Z" fill="white"/>
<path id="Vector_89" d="M5.5727 25H2.79492V22.2222H5.5727V25Z" fill="white"/>
<path id="Vector_90" d="M5.5727 19.4443H2.79492V16.6666H5.5727V19.4443Z" fill="white"/>
<path id="Vector_91" d="M5.5727 22.2227H2.79492V19.4449H5.5727V22.2227Z" fill="white"/>
<path id="Vector_92" d="M2.79536 19.4443H0.0175781V16.6666H2.79536V19.4443Z" fill="white"/>
<path id="Vector_93" d="M3.90668 16.667H1.12891V13.8892H3.90668V16.667Z" fill="white"/>
<path id="Vector_94" d="M13.9067 19.4443H11.1289V16.6666H13.9067V19.4443Z" fill="white"/>
<path id="Vector_95" d="M17.7954 22.2227H15.0176V19.4449H17.7954V22.2227Z" fill="white"/>
<path id="Vector_96" d="M15.018 22.2227H12.2402V19.4449H15.018V22.2227Z" fill="white"/>
<path id="Vector_97" d="M13.9067 25H11.1289V22.2222H13.9067V25Z" fill="white"/>
<path id="Vector_98" d="M13.9067 27.7773H11.1289V24.9996H13.9067V27.7773Z" fill="white"/>
<path id="Vector_99" d="M15.018 27.7773H12.2402V24.9996H15.018V27.7773Z" fill="white"/>
<path id="Vector_100" d="M13.9067 30.5557H11.1289V27.7779H13.9067V30.5557Z" fill="white"/>
<path id="Vector_101" d="M16.684 25H13.9062V22.2222H16.684V25Z" fill="white"/>
<path id="Vector_102" d="M13.9067 22.2227H11.1289V19.4449H13.9067V22.2227Z" fill="white"/>
<path id="Vector_103" d="M16.684 19.4443H13.9062V16.6666H16.684V19.4443Z" fill="white"/>
<path id="Vector_104" d="M19.4623 19.4443H16.6846V16.6666H19.4623V19.4443Z" fill="white"/>
<path id="Vector_105" d="M8.35102 36.1113H5.57324V33.3335H8.35102V36.1113Z" fill="white"/>
<path id="Vector_106" d="M2.79536 33.333H0.0175781V30.5552H2.79536V33.333Z" fill="white"/>
<path id="Vector_107" d="M2.79536 30.5557H0.0175781V27.7779H2.79536V30.5557Z" fill="white"/>
<path id="Vector_108" d="M2.79536 27.7773H0.0175781V24.9996H2.79536V27.7773Z" fill="white"/>
<path id="Vector_109" d="M2.79536 22.2227H0.0175781V19.4449H2.79536V22.2227Z" fill="white"/>
<path id="Vector_110" d="M2.79536 25H0.0175781V22.2222H2.79536V25Z" fill="white"/>
<path id="Vector_111" d="M47.2397 19.4443H44.4619V16.6666H47.2397V19.4443Z" fill="white"/>
<path id="Vector_112" d="M46.1284 16.667H43.3506V13.8892H46.1284V16.667Z" fill="white"/>
<path id="Vector_113" d="M47.2397 33.333H44.4619V30.5552H47.2397V33.333Z" fill="white"/>
<path id="Vector_114" d="M47.2397 30.5557H44.4619V27.7779H47.2397V30.5557Z" fill="white"/>
<path id="Vector_115" d="M47.2397 27.7773H44.4619V24.9996H47.2397V27.7773Z" fill="white"/>
<path id="Vector_116" d="M47.2397 22.2227H44.4619V19.4449H47.2397V22.2227Z" fill="white"/>
<path id="Vector_117" d="M47.2397 25H44.4619V22.2222H47.2397V25Z" fill="white"/>
<path id="Vector_118" d="M44.4623 19.4443H41.6846V16.6666H44.4623V19.4443Z" fill="white"/>
<path id="Vector_119" d="M44.4623 16.667H41.6846V13.8892H44.4623V16.667Z" fill="white"/>
<path id="Vector_120" d="M44.4623 33.333H41.6846V30.5552H44.4623V33.333Z" fill="white"/>
<path id="Vector_121" d="M46.1284 36.1113H43.3506V33.3335H46.1284V36.1113Z" fill="white"/>
<path id="Vector_122" d="M44.4623 36.1113H41.6846V33.3335H44.4623V36.1113Z" fill="white"/>
<path id="Vector_123" d="M44.4623 38.8887H41.6846V36.1109H44.4623V38.8887Z" fill="white"/>
<path id="Vector_124" d="M44.4623 30.5557H41.6846V27.7779H44.4623V30.5557Z" fill="white"/>
<path id="Vector_125" d="M44.4623 27.7773H41.6846V24.9996H44.4623V27.7773Z" fill="white"/>
<path id="Vector_126" d="M44.4623 22.2227H41.6846V19.4449H44.4623V22.2227Z" fill="white"/>
<path id="Vector_127" d="M44.4623 25H41.6846V22.2222H44.4623V25Z" fill="white"/>
<path id="Vector_128" d="M41.684 16.667H38.9062V13.8892H41.684V16.667Z" fill="white"/>
<path id="Vector_129" d="M41.684 13.8887H38.9062V11.1109H41.684V13.8887Z" fill="white"/>
<path id="Vector_130" d="M44.4623 13.8887H41.6846V11.1109H44.4623V13.8887Z" fill="white"/>
<path id="Vector_131" d="M41.684 11.1113H38.9062V8.33355H41.684V11.1113Z" fill="white"/>
<path id="Vector_132" d="M38.9067 8.33301H36.1289V5.55523H38.9067V8.33301Z" fill="white"/>
<path id="Vector_133" d="M38.9067 8.33301H36.1289V5.55523H38.9067V8.33301Z" fill="white"/>
<path id="Vector_134" d="M38.9067 11.1113H36.1289V8.33355H38.9067V11.1113Z" fill="white"/>
<path id="Vector_135" d="M41.684 33.333H38.9062V30.5552H41.684V33.333Z" fill="white"/>
<path id="Vector_136" d="M41.684 30.5557H38.9062V27.7779H41.684V30.5557Z" fill="white"/>
<path id="Vector_137" d="M41.684 27.7773H38.9062V24.9996H41.684V27.7773Z" fill="white"/>
<path id="Vector_138" d="M41.684 25H38.9062V22.2222H41.684V25Z" fill="white"/>
<path id="Vector_139" d="M41.684 19.4443H38.9062V16.6666H41.684V19.4443Z" fill="white"/>
<path id="Vector_140" d="M41.684 22.2227H38.9062V19.4449H41.684V22.2227Z" fill="white"/>
<path id="Vector_141" d="M13.9067 44.4443H11.1289V41.6666H13.9067V44.4443Z" fill="white"/>
<path id="Vector_142" d="M13.9067 41.667H11.1289V38.8892H13.9067V41.667Z" fill="white"/>
<path id="Vector_143" d="M13.9067 38.8887H11.1289V36.1109H13.9067V38.8887Z" fill="white"/>
<path id="Vector_144" d="M13.9067 36.1113H11.1289V33.3335H13.9067V36.1113Z" fill="white"/>
<path id="Vector_145" d="M19.4623 36.1113H16.6846V33.3335H19.4623V36.1113Z" fill="white"/>
<path id="Vector_146" d="M19.4623 47.2227H16.6846V44.4449H19.4623V47.2227Z" fill="white"/>
<path id="Vector_147" d="M25.018 5.55566H22.2402V2.77789H25.018V5.55566Z" fill="white"/>
<path id="Vector_148" d="M33.351 3.88867H30.5732V1.11089H33.351V3.88867Z" fill="white"/>
<path id="Vector_149" d="M33.351 6.11133H30.5732V3.33355H33.351V6.11133Z" fill="white"/>
<path id="Vector_150" d="M36.1284 5.55566H33.3506V2.77789H36.1284V5.55566Z" fill="white"/>
<path id="Vector_151" d="M16.684 3.88867H13.9062V1.11089H16.684V3.88867Z" fill="white"/>
<path id="Vector_152" d="M16.684 5.55566H13.9062V2.77789H16.684V5.55566Z" fill="white"/>
<path id="Vector_153" d="M13.9067 5.55566H11.1289V2.77789H13.9067V5.55566Z" fill="white"/>
<path id="Vector_154" d="M27.7954 5.55566H25.0176V2.77789H27.7954V5.55566Z" fill="white"/>
<path id="Vector_155" d="M30.5727 5.55566H27.7949V2.77789H30.5727V5.55566Z" fill="white"/>
<path id="Vector_156" d="M22.2397 5.55566H19.4619V2.77789H22.2397V5.55566Z" fill="white"/>
<path id="Vector_157" d="M19.4623 5.55566H16.6846V2.77789H19.4623V5.55566Z" fill="white"/>
<path id="Vector_158" d="M25.018 8.33301H22.2402V5.55523H25.018V8.33301Z" fill="white"/>
<path id="Vector_159" d="M33.351 8.33301H30.5732V5.55523H33.351V8.33301Z" fill="white"/>
<path id="Vector_160" d="M36.1284 8.33301H33.3506V5.55523H36.1284V8.33301Z" fill="white"/>
<path id="Vector_161" d="M16.684 8.33301H13.9062V5.55523H16.684V8.33301Z" fill="white"/>
<path id="Vector_162" d="M13.9067 8.33301H11.1289V5.55523H13.9067V8.33301Z" fill="white"/>
<path id="Vector_163" d="M13.9067 16.667H11.1289V13.8892H13.9067V16.667Z" fill="white"/>
<path id="Vector_164" d="M13.9067 13.8887H11.1289V11.1109H13.9067V13.8887Z" fill="white"/>
<path id="Vector_165" d="M16.684 16.667H13.9062V13.8892H16.684V16.667Z" fill="white"/>
<path id="Vector_166" d="M16.684 13.8887H13.9062V11.1109H16.684V13.8887Z" fill="white"/>
<path id="Vector_167" d="M19.4623 16.667H16.6846V13.8892H19.4623V16.667Z" fill="white"/>
<path id="Vector_168" d="M20.5727 16.667H17.7949V13.8892H20.5727V16.667Z" fill="white"/>
<path id="Vector_169" d="M19.4623 13.8887H16.6846V11.1109H19.4623V13.8887Z" fill="white"/>
<path id="Vector_170" d="M22.2397 13.8887H19.4619V11.1109H22.2397V13.8887Z" fill="white"/>
<path id="Vector_171" d="M30.5727 16.667H27.7949V13.8892H30.5727V16.667Z" fill="white"/>
<path id="Vector_172" d="M29.4623 16.667H26.6846V13.8892H29.4623V16.667Z" fill="white"/>
<path id="Vector_173" d="M30.5727 19.4443H27.7949V16.6666H30.5727V19.4443Z" fill="white"/>
<path id="Vector_174" d="M30.5727 13.8887H27.7949V11.1109H30.5727V13.8887Z" fill="white"/>
<path id="Vector_175" d="M27.7954 13.8887H25.0176V11.1109H27.7954V13.8887Z" fill="white"/>
<path id="Vector_176" d="M33.351 16.667H30.5732V13.8892H33.351V16.667Z" fill="white"/>
<path id="Vector_177" d="M33.351 13.8887H30.5732V11.1109H33.351V13.8887Z" fill="white"/>
<path id="Vector_178" d="M36.1284 16.667H33.3506V13.8892H36.1284V16.667Z" fill="white"/>
<path id="Vector_179" d="M36.1284 13.8887H33.3506V11.1109H36.1284V13.8887Z" fill="white"/>
<path id="Vector_180" d="M38.9067 16.667H36.1289V13.8892H38.9067V16.667Z" fill="white"/>
<path id="Vector_181" d="M38.9067 13.8887H36.1289V11.1109H38.9067V13.8887Z" fill="white"/>
<path id="Vector_182" d="M38.9067 22.2227H36.1289V19.4449H38.9067V22.2227Z" fill="white"/>
<path id="Vector_183" d="M38.9067 19.4443H36.1289V16.6666H38.9067V19.4443Z" fill="white"/>
<path id="Vector_184" d="M38.9067 27.7773H36.1289V24.9996H38.9067V27.7773Z" fill="white"/>
<path id="Vector_185" d="M38.9067 30.5557H36.1289V27.7779H38.9067V30.5557Z" fill="white"/>
<path id="Vector_186" d="M38.9067 25H36.1289V22.2222H38.9067V25Z" fill="white"/>
<path id="Vector_187" d="M36.1284 27.7773H33.3506V24.9996H36.1284V27.7773Z" fill="white"/>
<path id="Vector_188" d="M35.018 27.7773H32.2402V24.9996H35.018V27.7773Z" fill="white"/>
<path id="Vector_189" d="M36.1284 30.5557H33.3506V27.7779H36.1284V30.5557Z" fill="white"/>
<path id="Vector_190" d="M36.1284 25H33.3506V22.2222H36.1284V25Z" fill="white"/>
<path id="Vector_191" d="M36.1284 22.2227H33.3506V19.4449H36.1284V22.2227Z" fill="white"/>
<path id="Vector_192" d="M36.1284 19.4443H33.3506V16.6666H36.1284V19.4443Z" fill="white"/>
<path id="Vector_193" d="M33.351 19.4443H30.5732V16.6666H33.351V19.4443Z" fill="white"/>
<path id="Vector_194" d="M33.351 22.2227H30.5732V19.4449H33.351V22.2227Z" fill="white"/>
<path id="Vector_195" d="M32.2397 22.2227H29.4619V19.4449H32.2397V22.2227Z" fill="white"/>
<path id="Vector_196" d="M33.351 25H30.5732V22.2222H33.351V25Z" fill="white"/>
<path id="Vector_197" d="M27.7954 8.33301H25.0176V5.55523H27.7954V8.33301Z" fill="white"/>
<path id="Vector_198" d="M30.5727 8.33301H27.7949V5.55523H30.5727V8.33301Z" fill="white"/>
<path id="Vector_199" d="M22.2397 8.33301H19.4619V5.55523H22.2397V8.33301Z" fill="white"/>
<path id="Vector_200" d="M19.4623 8.33301H16.6846V5.55523H19.4623V8.33301Z" fill="white"/>
<path id="Vector_201" d="M33.351 11.1113H30.5732V8.33355H33.351V11.1113Z" fill="white"/>
<path id="Vector_202" d="M30.5727 11.1113H27.7949V8.33355H30.5727V11.1113Z" fill="white"/>
<path id="Vector_203" d="M36.1284 11.1113H33.3506V8.33355H36.1284V11.1113Z" fill="white"/>
<path id="Vector_204" d="M25.018 11.1113H22.2402V8.33355H25.018V11.1113Z" fill="white"/>
<path id="Vector_205" d="M22.2397 11.1113H19.4619V8.33355H22.2397V11.1113Z" fill="white"/>
<path id="Vector_206" d="M19.4623 11.1113H16.6846V8.33355H19.4623V11.1113Z" fill="white"/>
<path id="Vector_207" d="M16.684 11.1113H13.9062V8.33355H16.684V11.1113Z" fill="white"/>
<path id="Vector_208" d="M27.7954 11.1113H25.0176V8.33355H27.7954V11.1113Z" fill="white"/>
<path id="Vector_209" d="M19.4623 44.4443H16.6846V41.6666H19.4623V44.4443Z" fill="white"/>
<path id="Vector_210" d="M25.018 50H22.2402V47.2222H25.018V50Z" fill="white"/>
<path id="Vector_211" d="M27.7954 2.77734H25.0176V-0.000433922H27.7954V2.77734Z" fill="white"/>
<path id="Vector_212" d="M30.5727 2.77734H27.7949V-0.000433922H30.5727V2.77734Z" fill="white"/>
<path id="Vector_213" d="M22.2397 2.77734H19.4619V-0.000433922H22.2397V2.77734Z" fill="white"/>
<path id="Vector_214" d="M19.4623 2.77734H16.6846V-0.000433922H19.4623V2.77734Z" fill="white"/>
<path id="Vector_215" d="M25.018 2.77734H22.2402V-0.000433922H25.018V2.77734Z" fill="white"/>
<path id="Vector_216" d="M25.018 44.4443H22.2402V41.6666H25.018V44.4443Z" fill="white"/>
<path id="Vector_217" d="M25.018 38.8887H22.2402V36.1109H25.018V38.8887Z" fill="white"/>
</g>
</svg>
