<svg width="51" height="50" viewBox="0 0 51 50" fill="none" xmlns="http://www.w3.org/2000/svg">
<g id="pixel_white &#34;VS Code&#34;">
<path id="Vector" d="M39.7416 0H36.9639V2.77778H39.7416V0Z" fill="white"/>
<path id="Vector_2" d="M39.7416 2.77734H36.9639V5.55512H39.7416V2.77734Z" fill="white"/>
<path id="Vector_3" d="M42.519 2.77734H39.7412V5.55512H42.519V2.77734Z" fill="white"/>
<path id="Vector_4" d="M42.519 0H39.7412V2.77778H42.519V0Z" fill="white"/>
<path id="Vector_5" d="M39.7416 5.55566H36.9639V8.33344H39.7416V5.55566Z" fill="white"/>
<path id="Vector_6" d="M45.2973 2.77734H42.5195V5.55512H45.2973V2.77734Z" fill="white"/>
<path id="Vector_7" d="M36.9633 8.33301H34.1855V11.1108H36.9633V8.33301Z" fill="white"/>
<path id="Vector_8" d="M36.9633 5.55566H34.1855V8.33344H36.9633V5.55566Z" fill="white"/>
<path id="Vector_9" d="M36.9633 2.77734H34.1855V5.55512H36.9633V2.77734Z" fill="white"/>
<path id="Vector_10" d="M42.519 5.55566H39.7412V8.33344H42.519V5.55566Z" fill="white"/>
<path id="Vector_11" d="M45.2973 5.55566H42.5195V8.33344H45.2973V5.55566Z" fill="white"/>
<path id="Vector_12" d="M39.7416 8.33301H36.9639V11.1108H39.7416V8.33301Z" fill="white"/>
<path id="Vector_13" d="M36.9633 11.1113H34.1855V13.8891H36.9633V11.1113Z" fill="white"/>
<path id="Vector_14" d="M42.519 8.33301H39.7412V11.1108H42.519V8.33301Z" fill="white"/>
<path id="Vector_15" d="M45.2973 8.33301H42.5195V11.1108H45.2973V8.33301Z" fill="white"/>
<path id="Vector_16" d="M39.7416 11.1113H36.9639V13.8891H39.7416V11.1113Z" fill="white"/>
<path id="Vector_17" d="M36.9633 13.8887H34.1855V16.6664H36.9633V13.8887Z" fill="white"/>
<path id="Vector_18" d="M34.186 11.1113H31.4082V13.8891H34.186V11.1113Z" fill="white"/>
<path id="Vector_19" d="M34.186 8.33301H31.4082V11.1108H34.186V8.33301Z" fill="white"/>
<path id="Vector_20" d="M34.186 5.55566H31.4082V8.33344H34.186V5.55566Z" fill="white"/>
<path id="Vector_21" d="M34.186 13.8887H31.4082V16.6664H34.186V13.8887Z" fill="white"/>
<path id="Vector_22" d="M34.186 16.667H31.4082V19.4448H34.186V16.667Z" fill="white"/>
<path id="Vector_23" d="M31.4077 13.8887H28.6299V16.6664H31.4077V13.8887Z" fill="white"/>
<path id="Vector_24" d="M31.4077 11.1113H28.6299V13.8891H31.4077V11.1113Z" fill="white"/>
<path id="Vector_25" d="M31.4077 8.33301H28.6299V11.1108H31.4077V8.33301Z" fill="white"/>
<path id="Vector_26" d="M31.4077 16.667H28.6299V19.4448H31.4077V16.667Z" fill="white"/>
<path id="Vector_27" d="M31.4077 19.4443H28.6299V22.2221H31.4077V19.4443Z" fill="white"/>
<path id="Vector_28" d="M28.6303 16.667H25.8525V19.4448H28.6303V16.667Z" fill="white"/>
<path id="Vector_29" d="M28.6303 13.8887H25.8525V16.6664H28.6303V13.8887Z" fill="white"/>
<path id="Vector_30" d="M28.6303 11.1113H25.8525V13.8891H28.6303V11.1113Z" fill="white"/>
<path id="Vector_31" d="M28.6303 19.4443H25.8525V22.2221H28.6303V19.4443Z" fill="white"/>
<path id="Vector_32" d="M28.6303 22.2227H25.8525V25.0004H28.6303V22.2227Z" fill="white"/>
<path id="Vector_33" d="M25.853 19.4443H23.0752V22.2221H25.853V19.4443Z" fill="white"/>
<path id="Vector_34" d="M25.853 16.667H23.0752V19.4448H25.853V16.667Z" fill="white"/>
<path id="Vector_35" d="M25.853 13.8887H23.0752V16.6664H25.853V13.8887Z" fill="white"/>
<path id="Vector_36" d="M25.853 22.2227H23.0752V25.0004H25.853V22.2227Z" fill="white"/>
<path id="Vector_37" d="M25.853 25H23.0752V27.7778H25.853V25Z" fill="white"/>
<path id="Vector_38" d="M23.0747 22.2227H20.2969V25.0004H23.0747V22.2227Z" fill="white"/>
<path id="Vector_39" d="M23.0747 19.4443H20.2969V22.2221H23.0747V19.4443Z" fill="white"/>
<path id="Vector_40" d="M23.0747 16.667H20.2969V19.4448H23.0747V16.667Z" fill="white"/>
<path id="Vector_41" d="M23.0747 25H20.2969V27.7778H23.0747V25Z" fill="white"/>
<path id="Vector_42" d="M23.0747 27.7773H20.2969V30.5551H23.0747V27.7773Z" fill="white"/>
<path id="Vector_43" d="M20.2973 25H17.5195V27.7778H20.2973V25Z" fill="white"/>
<path id="Vector_44" d="M20.2973 22.2227H17.5195V25.0004H20.2973V22.2227Z" fill="white"/>
<path id="Vector_45" d="M20.2973 19.4443H17.5195V22.2221H20.2973V19.4443Z" fill="white"/>
<path id="Vector_46" d="M17.519 19.4443H14.7412V22.2221H17.519V19.4443Z" fill="white"/>
<path id="Vector_47" d="M14.7416 19.4443H11.9639V22.2221H14.7416V19.4443Z" fill="white"/>
<path id="Vector_48" d="M17.519 22.2227H14.7412V25.0004H17.519V22.2227Z" fill="white"/>
<path id="Vector_49" d="M14.7416 22.2227H11.9639V25.0004H14.7416V22.2227Z" fill="white"/>
<path id="Vector_50" d="M17.519 25H14.7412V27.7778H17.519V25Z" fill="white"/>
<path id="Vector_51" d="M17.519 27.7773H14.7412V30.5551H17.519V27.7773Z" fill="white"/>
<path id="Vector_52" d="M14.7416 27.7773H11.9639V30.5551H14.7416V27.7773Z" fill="white"/>
<path id="Vector_53" d="M14.7416 30.5557H11.9639V33.3334H14.7416V30.5557Z" fill="white"/>
<path id="Vector_54" d="M11.9633 30.5557H9.18555V33.3334H11.9633V30.5557Z" fill="white"/>
<path id="Vector_55" d="M11.9633 27.7773H9.18555V30.5551H11.9633V27.7773Z" fill="white"/>
<path id="Vector_56" d="M9.18598 30.5557H6.4082V33.3334H9.18598V30.5557Z" fill="white"/>
<path id="Vector_57" d="M9.18598 33.333H6.4082V36.1108H9.18598V33.333Z" fill="white"/>
<path id="Vector_58" d="M11.9633 33.333H9.18555V36.1108H11.9633V33.333Z" fill="white"/>
<path id="Vector_59" d="M14.7416 25H11.9639V27.7778H14.7416V25Z" fill="white"/>
<path id="Vector_60" d="M11.9633 19.4443H9.18555V22.2221H11.9633V19.4443Z" fill="white"/>
<path id="Vector_61" d="M14.7416 16.667H11.9639V19.4448H14.7416V16.667Z" fill="white"/>
<path id="Vector_62" d="M11.9633 16.667H9.18555V19.4448H11.9633V16.667Z" fill="white"/>
<path id="Vector_63" d="M11.9633 13.8887H9.18555V16.6664H11.9633V13.8887Z" fill="white"/>
<path id="Vector_64" d="M9.18598 13.8887H6.4082V16.6664H9.18598V13.8887Z" fill="white"/>
<path id="Vector_65" d="M9.18598 16.667H6.4082V19.4448H9.18598V16.667Z" fill="white"/>
<path id="Vector_66" d="M9.18598 11.1113H6.4082V13.8891H9.18598V11.1113Z" fill="white"/>
<path id="Vector_67" d="M6.40766 11.1113H3.62988V13.8891H6.40766V11.1113Z" fill="white"/>
<path id="Vector_68" d="M6.40766 13.8887H3.62988V16.6664H6.40766V13.8887Z" fill="white"/>
<path id="Vector_69" d="M3.63032 13.8887H0.852539V16.6664H3.63032V13.8887Z" fill="white"/>
<path id="Vector_70" d="M6.40766 19.4443H3.62988V22.2221H6.40766V19.4443Z" fill="white"/>
<path id="Vector_71" d="M3.63032 19.4443H0.852539V22.2221H3.63032V19.4443Z" fill="white"/>
<path id="Vector_72" d="M6.40766 25H3.62988V27.7778H6.40766V25Z" fill="white"/>
<path id="Vector_73" d="M3.63032 25H0.852539V27.7778H3.63032V25Z" fill="white"/>
<path id="Vector_74" d="M6.40766 30.5557H3.62988V33.3334H6.40766V30.5557Z" fill="white"/>
<path id="Vector_75" d="M3.63032 30.5557H0.852539V33.3334H3.63032V30.5557Z" fill="white"/>
<path id="Vector_76" d="M3.63032 16.667H0.852539V19.4448H3.63032V16.667Z" fill="white"/>
<path id="Vector_77" d="M6.40766 16.667H3.62988V19.4448H6.40766V16.667Z" fill="white"/>
<path id="Vector_78" d="M3.63032 22.2227H0.852539V25.0004H3.63032V22.2227Z" fill="white"/>
<path id="Vector_79" d="M6.40766 22.2227H3.62988V25.0004H6.40766V22.2227Z" fill="white"/>
<path id="Vector_80" d="M3.63032 27.7773H0.852539V30.5551H3.63032V27.7773Z" fill="white"/>
<path id="Vector_81" d="M6.40766 27.7773H3.62988V30.5551H6.40766V27.7773Z" fill="white"/>
<path id="Vector_82" d="M3.63032 33.333H0.852539V36.1108H3.63032V33.333Z" fill="white"/>
<path id="Vector_83" d="M6.40766 33.333H3.62988V36.1108H6.40766V33.333Z" fill="white"/>
<path id="Vector_84" d="M9.18598 36.1113H6.4082V38.8891H9.18598V36.1113Z" fill="white"/>
<path id="Vector_85" d="M6.40766 36.1113H3.62988V38.8891H6.40766V36.1113Z" fill="white"/>
<path id="Vector_86" d="M20.2973 27.7773H17.5195V30.5551H20.2973V27.7773Z" fill="white"/>
<path id="Vector_87" d="M25.853 27.7773H23.0752V30.5551H25.853V27.7773Z" fill="white"/>
<path id="Vector_88" d="M28.6303 27.7773H25.8525V30.5551H28.6303V27.7773Z" fill="white"/>
<path id="Vector_89" d="M23.0747 30.5557H20.2969V33.3334H23.0747V30.5557Z" fill="white"/>
<path id="Vector_90" d="M25.853 30.5557H23.0752V33.3334H25.853V30.5557Z" fill="white"/>
<path id="Vector_91" d="M25.853 33.333H23.0752V36.1108H25.853V33.333Z" fill="white"/>
<path id="Vector_92" d="M28.6303 30.5557H25.8525V33.3334H28.6303V30.5557Z" fill="white"/>
<path id="Vector_93" d="M31.4077 30.5557H28.6299V33.3334H31.4077V30.5557Z" fill="white"/>
<path id="Vector_94" d="M28.6303 33.333H25.8525V36.1108H28.6303V33.333Z" fill="white"/>
<path id="Vector_95" d="M31.4077 33.333H28.6299V36.1108H31.4077V33.333Z" fill="white"/>
<path id="Vector_96" d="M34.186 33.333H31.4082V36.1108H34.186V33.333Z" fill="white"/>
<path id="Vector_97" d="M28.6303 36.1113H25.8525V38.8891H28.6303V36.1113Z" fill="white"/>
<path id="Vector_98" d="M31.4077 38.8887H28.6299V41.6665H31.4077V38.8887Z" fill="white"/>
<path id="Vector_99" d="M31.4077 36.1113H28.6299V38.8891H31.4077V36.1113Z" fill="white"/>
<path id="Vector_100" d="M34.186 36.1113H31.4082V38.8891H34.186V36.1113Z" fill="white"/>
<path id="Vector_101" d="M34.186 38.8887H31.4082V41.6665H34.186V38.8887Z" fill="white"/>
<path id="Vector_102" d="M34.186 41.667H31.4082V44.4448H34.186V41.667Z" fill="white"/>
<path id="Vector_103" d="M28.6303 25H25.8525V27.7778H28.6303V25Z" fill="white"/>
<path id="Vector_104" d="M31.4077 27.7773H28.6299V30.5551H31.4077V27.7773Z" fill="white"/>
<path id="Vector_105" d="M34.186 30.5557H31.4082V33.3334H34.186V30.5557Z" fill="white"/>
<path id="Vector_106" d="M36.9633 33.333H34.1855V36.1108H36.9633V33.333Z" fill="white"/>
<path id="Vector_107" d="M36.9633 36.1113H34.1855V38.8891H36.9633V36.1113Z" fill="white"/>
<path id="Vector_108" d="M36.9633 38.8887H34.1855V41.6665H36.9633V38.8887Z" fill="white"/>
<path id="Vector_109" d="M36.9633 41.667H34.1855V44.4448H36.9633V41.667Z" fill="white"/>
<path id="Vector_110" d="M36.9633 44.4443H34.1855V47.2221H36.9633V44.4443Z" fill="white"/>
<path id="Vector_111" d="M39.7416 44.4443H36.9639V47.2221H39.7416V44.4443Z" fill="white"/>
<path id="Vector_112" d="M42.519 44.4443H39.7412V47.2221H42.519V44.4443Z" fill="white"/>
<path id="Vector_113" d="M45.2973 44.4443H42.5195V47.2221H45.2973V44.4443Z" fill="white"/>
<path id="Vector_114" d="M42.519 47.2227H39.7412V50.0004H42.519V47.2227Z" fill="white"/>
<path id="Vector_115" d="M42.519 11.1113H39.7412V13.8891H42.519V11.1113Z" fill="white"/>
<path id="Vector_116" d="M45.2973 11.1113H42.5195V13.8891H45.2973V11.1113Z" fill="white"/>
<path id="Vector_117" d="M48.0747 2.77734H45.2969V5.55512H48.0747V2.77734Z" fill="white"/>
<path id="Vector_118" d="M48.0747 5.55566H45.2969V8.33344H48.0747V5.55566Z" fill="white"/>
<path id="Vector_119" d="M48.0747 8.33301H45.2969V11.1108H48.0747V8.33301Z" fill="white"/>
<path id="Vector_120" d="M48.0747 11.1113H45.2969V13.8891H48.0747V11.1113Z" fill="white"/>
<path id="Vector_121" d="M50.853 5.55566H48.0752V8.33344H50.853V5.55566Z" fill="white"/>
<path id="Vector_122" d="M50.853 8.33301H48.0752V11.1108H50.853V8.33301Z" fill="white"/>
<path id="Vector_123" d="M50.853 11.1113H48.0752V13.8891H50.853V11.1113Z" fill="white"/>
<path id="Vector_124" d="M48.0747 13.8887H45.2969V16.6664H48.0747V13.8887Z" fill="white"/>
<path id="Vector_125" d="M48.0747 16.667H45.2969V19.4448H48.0747V16.667Z" fill="white"/>
<path id="Vector_126" d="M48.0747 19.4443H45.2969V22.2221H48.0747V19.4443Z" fill="white"/>
<path id="Vector_127" d="M48.0747 22.2227H45.2969V25.0004H48.0747V22.2227Z" fill="white"/>
<path id="Vector_128" d="M48.0747 25H45.2969V27.7778H48.0747V25Z" fill="white"/>
<path id="Vector_129" d="M48.0747 27.7773H45.2969V30.5551H48.0747V27.7773Z" fill="white"/>
<path id="Vector_130" d="M48.0747 30.5557H45.2969V33.3334H48.0747V30.5557Z" fill="white"/>
<path id="Vector_131" d="M48.0747 33.333H45.2969V36.1108H48.0747V33.333Z" fill="white"/>
<path id="Vector_132" d="M48.0747 36.1113H45.2969V38.8891H48.0747V36.1113Z" fill="white"/>
<path id="Vector_133" d="M48.0747 38.8887H45.2969V41.6665H48.0747V38.8887Z" fill="white"/>
<path id="Vector_134" d="M48.0747 41.667H45.2969V44.4448H48.0747V41.667Z" fill="white"/>
<path id="Vector_135" d="M42.519 13.8887H39.7412V16.6664H42.519V13.8887Z" fill="white"/>
<path id="Vector_136" d="M42.519 16.667H39.7412V19.4448H42.519V16.667Z" fill="white"/>
<path id="Vector_137" d="M42.519 19.4443H39.7412V22.2221H42.519V19.4443Z" fill="white"/>
<path id="Vector_138" d="M42.519 22.2227H39.7412V25.0004H42.519V22.2227Z" fill="white"/>
<path id="Vector_139" d="M42.519 25H39.7412V27.7778H42.519V25Z" fill="white"/>
<path id="Vector_140" d="M42.519 27.7773H39.7412V30.5551H42.519V27.7773Z" fill="white"/>
<path id="Vector_141" d="M42.519 30.5557H39.7412V33.3334H42.519V30.5557Z" fill="white"/>
<path id="Vector_142" d="M42.519 33.333H39.7412V36.1108H42.519V33.333Z" fill="white"/>
<path id="Vector_143" d="M42.519 36.1113H39.7412V38.8891H42.519V36.1113Z" fill="white"/>
<path id="Vector_144" d="M42.519 38.8887H39.7412V41.6665H42.519V38.8887Z" fill="white"/>
<path id="Vector_145" d="M42.519 41.667H39.7412V44.4448H42.519V41.667Z" fill="white"/>
<path id="Vector_146" d="M39.7416 13.8887H36.9639V16.6664H39.7416V13.8887Z" fill="white"/>
<path id="Vector_147" d="M39.7416 16.667H36.9639V19.4448H39.7416V16.667Z" fill="white"/>
<path id="Vector_148" d="M39.7416 19.4443H36.9639V22.2221H39.7416V19.4443Z" fill="white"/>
<path id="Vector_149" d="M39.7416 22.2227H36.9639V25.0004H39.7416V22.2227Z" fill="white"/>
<path id="Vector_150" d="M39.7416 25H36.9639V27.7778H39.7416V25Z" fill="white"/>
<path id="Vector_151" d="M39.7416 27.7773H36.9639V30.5551H39.7416V27.7773Z" fill="white"/>
<path id="Vector_152" d="M39.7416 30.5557H36.9639V33.3334H39.7416V30.5557Z" fill="white"/>
<path id="Vector_153" d="M39.7416 33.333H36.9639V36.1108H39.7416V33.333Z" fill="white"/>
<path id="Vector_154" d="M39.7416 36.1113H36.9639V38.8891H39.7416V36.1113Z" fill="white"/>
<path id="Vector_155" d="M39.7416 38.8887H36.9639V41.6665H39.7416V38.8887Z" fill="white"/>
<path id="Vector_156" d="M39.7416 41.667H36.9639V44.4448H39.7416V41.667Z" fill="white"/>
<path id="Vector_157" d="M45.2973 13.8887H42.5195V16.6664H45.2973V13.8887Z" fill="white"/>
<path id="Vector_158" d="M45.2973 16.667H42.5195V19.4448H45.2973V16.667Z" fill="white"/>
<path id="Vector_159" d="M45.2973 19.4443H42.5195V22.2221H45.2973V19.4443Z" fill="white"/>
<path id="Vector_160" d="M45.2973 22.2227H42.5195V25.0004H45.2973V22.2227Z" fill="white"/>
<path id="Vector_161" d="M45.2973 25H42.5195V27.7778H45.2973V25Z" fill="white"/>
<path id="Vector_162" d="M45.2973 27.7773H42.5195V30.5551H45.2973V27.7773Z" fill="white"/>
<path id="Vector_163" d="M45.2973 30.5557H42.5195V33.3334H45.2973V30.5557Z" fill="white"/>
<path id="Vector_164" d="M45.2973 33.333H42.5195V36.1108H45.2973V33.333Z" fill="white"/>
<path id="Vector_165" d="M45.2973 36.1113H42.5195V38.8891H45.2973V36.1113Z" fill="white"/>
<path id="Vector_166" d="M45.2973 38.8887H42.5195V41.6665H45.2973V38.8887Z" fill="white"/>
<path id="Vector_167" d="M45.2973 41.667H42.5195V44.4448H45.2973V41.667Z" fill="white"/>
<path id="Vector_168" d="M50.853 13.8887H48.0752V16.6664H50.853V13.8887Z" fill="white"/>
<path id="Vector_169" d="M50.853 16.667H48.0752V19.4448H50.853V16.667Z" fill="white"/>
<path id="Vector_170" d="M50.853 19.4443H48.0752V22.2221H50.853V19.4443Z" fill="white"/>
<path id="Vector_171" d="M50.853 22.2227H48.0752V25.0004H50.853V22.2227Z" fill="white"/>
<path id="Vector_172" d="M50.853 25H48.0752V27.7778H50.853V25Z" fill="white"/>
<path id="Vector_173" d="M50.853 27.7773H48.0752V30.5551H50.853V27.7773Z" fill="white"/>
<path id="Vector_174" d="M50.853 30.5557H48.0752V33.3334H50.853V30.5557Z" fill="white"/>
<path id="Vector_175" d="M50.853 33.333H48.0752V36.1108H50.853V33.333Z" fill="white"/>
<path id="Vector_176" d="M50.853 36.1113H48.0752V38.8891H50.853V36.1113Z" fill="white"/>
<path id="Vector_177" d="M50.853 38.8887H48.0752V41.6665H50.853V38.8887Z" fill="white"/>
<path id="Vector_178" d="M50.853 41.667H48.0752V44.4448H50.853V41.667Z" fill="white"/>
</g>
</svg>
