<svg width="55" height="50" viewBox="0 0 55 50" fill="none" xmlns="http://www.w3.org/2000/svg">
<g id="pixel_white &#34;Google Drive&#34;">
<path id="Vector" d="M22.4483 3.20508H19.2432V-5.00679e-05H22.4483V3.20508Z" fill="#D4D4D4"/>
<path id="Vector_2" d="M25.6534 3.20508H22.4482V-5.00679e-05H25.6534V3.20508Z" fill="#D4D4D4"/>
<path id="Vector_3" d="M28.8584 3.20508H25.6533V-5.00679e-05H28.8584V3.20508Z" fill="#D4D4D4"/>
<path id="Vector_4" d="M32.0635 3.20508H28.8584V-5.00679e-05H32.0635V3.20508Z" fill="#D4D4D4"/>
<path id="Vector_5" d="M25.6534 6.41016H22.4482V3.20503H25.6534V6.41016Z" fill="#D4D4D4"/>
<path id="Vector_6" d="M22.4483 6.41016H19.2432V3.20503H22.4483V6.41016Z" fill="#D4D4D4"/>
<path id="Vector_7" d="M28.8584 6.41016H25.6533V3.20503H28.8584V6.41016Z" fill="#D4D4D4"/>
<path id="Vector_8" d="M32.0635 6.41016H28.8584V3.20503H32.0635V6.41016Z" fill="#D4D4D4"/>
<path id="Vector_9" d="M35.2696 6.41016H32.0645V3.20503H35.2696V6.41016Z" fill="#D4D4D4"/>
<path id="Vector_10" d="M25.6534 9.61523H22.4482V6.41011H25.6534V9.61523Z" fill="#D4D4D4"/>
<path id="Vector_11" d="M28.8584 9.61523H25.6533V6.41011H28.8584V9.61523Z" fill="#D4D4D4"/>
<path id="Vector_12" d="M27.5772 12.8203H24.3721V9.61518H27.5772V12.8203Z" fill="#D4D4D4"/>
<path id="Vector_13" d="M28.8584 16.0254H25.6533V12.8203H28.8584V16.0254Z" fill="#D4D4D4"/>
<path id="Vector_14" d="M32.0635 16.0254H28.8584V12.8203H32.0635V16.0254Z" fill="white"/>
<path id="Vector_15" d="M35.2696 16.0254H32.0645V12.8203H35.2696V16.0254Z" fill="white"/>
<path id="Vector_16" d="M33.9874 12.8203H30.7822V9.61518H33.9874V12.8203Z" fill="white"/>
<path id="Vector_17" d="M35.2696 9.61523H32.0645V6.41011H35.2696V9.61523Z" fill="white"/>
<path id="Vector_18" d="M38.4747 9.61523H35.2695V6.41011H38.4747V9.61523Z" fill="white"/>
<path id="Vector_19" d="M38.4747 6.41016H35.2695V3.20503H38.4747V6.41016Z" fill="white"/>
<path id="Vector_20" d="M38.4747 4.4873H35.2695V1.28218H38.4747V4.4873Z" fill="white"/>
<path id="Vector_21" d="M38.4747 16.0254H35.2695V12.8203H38.4747V16.0254Z" fill="white"/>
<path id="Vector_22" d="M41.6797 16.0254H38.4746V12.8203H41.6797V16.0254Z" fill="white"/>
<path id="Vector_23" d="M41.6797 9.61523H38.4746V6.41011H41.6797V9.61523Z" fill="white"/>
<path id="Vector_24" d="M39.7559 7.05176H36.5508V3.84663H39.7559V7.05176Z" fill="white"/>
<path id="Vector_25" d="M37.1924 12.8203H33.9873V9.61518H37.1924V12.8203Z" fill="white"/>
<path id="Vector_26" d="M40.3975 12.8203H37.1924V9.61518H40.3975V12.8203Z" fill="white"/>
<path id="Vector_27" d="M43.6026 12.8203H40.3975V9.61518H43.6026V12.8203Z" fill="white"/>
<path id="Vector_28" d="M44.8848 16.0254H41.6797V12.8203H44.8848V16.0254Z" fill="white"/>
<path id="Vector_29" d="M33.3458 19.2305H30.1406V16.0253H33.3458V19.2305Z" fill="white"/>
<path id="Vector_30" d="M36.5508 19.2305H33.3457V16.0253H36.5508V19.2305Z" fill="white"/>
<path id="Vector_31" d="M39.7559 19.2305H36.5508V16.0253H39.7559V19.2305Z" fill="white"/>
<path id="Vector_32" d="M42.961 19.2305H39.7559V16.0253H42.961V19.2305Z" fill="white"/>
<path id="Vector_33" d="M46.1661 19.2305H42.9609V16.0253H46.1661V19.2305Z" fill="white"/>
<path id="Vector_34" d="M46.8077 19.2305H43.6025V16.0253H46.8077V19.2305Z" fill="white"/>
<path id="Vector_35" d="M34.628 22.4355H31.4229V19.2304H34.628V22.4355Z" fill="white"/>
<path id="Vector_36" d="M37.8331 22.4355H34.6279V19.2304H37.8331V22.4355Z" fill="white"/>
<path id="Vector_37" d="M41.0381 22.4355H37.833V19.2304H41.0381V22.4355Z" fill="white"/>
<path id="Vector_38" d="M44.2432 22.4355H41.0381V19.2304H44.2432V22.4355Z" fill="white"/>
<path id="Vector_39" d="M47.4483 22.4355H44.2432V19.2304H47.4483V22.4355Z" fill="white"/>
<path id="Vector_40" d="M48.7305 22.4355H45.5254V19.2304H48.7305V22.4355Z" fill="white"/>
<path id="Vector_41" d="M35.9102 25.6406H32.7051V22.4355H35.9102V25.6406Z" fill="white"/>
<path id="Vector_42" d="M39.1153 25.6406H35.9102V22.4355H39.1153V25.6406Z" fill="white"/>
<path id="Vector_43" d="M42.3204 25.6406H39.1152V22.4355H42.3204V25.6406Z" fill="white"/>
<path id="Vector_44" d="M45.5254 25.6406H42.3203V22.4355H45.5254V25.6406Z" fill="white"/>
<path id="Vector_45" d="M48.7305 25.6406H45.5254V22.4355H48.7305V25.6406Z" fill="white"/>
<path id="Vector_46" d="M50.6534 25.6406H47.4482V22.4355H50.6534V25.6406Z" fill="white"/>
<path id="Vector_47" d="M37.1924 28.8457H33.9873V25.6406H37.1924V28.8457Z" fill="white"/>
<path id="Vector_48" d="M40.3975 28.8457H37.1924V25.6406H40.3975V28.8457Z" fill="white"/>
<path id="Vector_49" d="M38.4747 32.0518H35.2695V28.8466H38.4747V32.0518Z" fill="white"/>
<path id="Vector_50" d="M39.1153 33.9746H35.9102V30.7695H39.1153V33.9746Z" fill="white"/>
<path id="Vector_51" d="M43.6026 28.8457H40.3975V25.6406H43.6026V28.8457Z" fill="white"/>
<path id="Vector_52" d="M46.8077 28.8457H43.6025V25.6406H46.8077V28.8457Z" fill="white"/>
<path id="Vector_53" d="M50.0127 28.8457H46.8076V25.6406H50.0127V28.8457Z" fill="white"/>
<path id="Vector_54" d="M51.9356 28.8457H48.7305V25.6406H51.9356V28.8457Z" fill="white"/>
<path id="Vector_55" d="M54.5 32.0518H51.2949V28.8466H54.5V32.0518Z" fill="white"/>
<path id="Vector_56" d="M41.6797 32.0518H38.4746V28.8466H41.6797V32.0518Z" fill="white"/>
<path id="Vector_57" d="M44.8848 32.0518H41.6797V28.8466H44.8848V32.0518Z" fill="white"/>
<path id="Vector_58" d="M48.0899 32.0518H44.8848V28.8466H48.0899V32.0518Z" fill="white"/>
<path id="Vector_59" d="M51.295 32.0518H48.0898V28.8466H51.295V32.0518Z" fill="white"/>
<path id="Vector_60" d="M41.6797 35.2568H38.4746V32.0517H41.6797V35.2568Z" fill="white"/>
<path id="Vector_61" d="M44.8848 35.2568H41.6797V32.0517H44.8848V35.2568Z" fill="white"/>
<path id="Vector_62" d="M48.0899 35.2568H44.8848V32.0517H48.0899V35.2568Z" fill="white"/>
<path id="Vector_63" d="M51.295 35.2568H48.0898V32.0517H51.295V35.2568Z" fill="white"/>
<path id="Vector_64" d="M54.5 35.2568H51.2949V32.0517H54.5V35.2568Z" fill="white"/>
<path id="Vector_65" d="M30.7823 12.8203H27.5771V9.61518H30.7823V12.8203Z" fill="#D4D4D4"/>
<path id="Vector_66" d="M32.0635 9.61523H28.8584V6.41011H32.0635V9.61523Z" fill="#D4D4D4"/>
<path id="Vector_67" d="M35.2696 3.20508H32.0645V-5.00679e-05H35.2696V3.20508Z" fill="#D4D4D4"/>
<path id="Vector_68" d="M16.0381 33.333L16.0381 36.5381L12.833 36.5381L12.833 33.333L16.0381 33.333Z" fill="#D4D4D4"/>
<path id="Vector_69" d="M51.2949 38.462L51.2949 35.2568L54.5 35.2568L54.5 38.462L51.2949 38.462Z" fill="#D4D4D4"/>
<path id="Vector_70" d="M46.167 44.8721L46.167 41.667L49.3721 41.667L49.3721 44.8721L46.167 44.8721Z" fill="#D4D4D4"/>
<path id="Vector_71" d="M49.3721 44.8721L49.3721 41.667L52.5772 41.667L52.5772 44.8721L49.3721 44.8721Z" fill="#D4D4D4"/>
<path id="Vector_72" d="M46.8076 48.0772L46.8076 44.8721L50.0127 44.8721L50.0127 48.0772L46.8076 48.0772Z" fill="#D4D4D4"/>
<path id="Vector_73" d="M50.6533 41.667L50.6533 38.4619L53.8584 38.4619L53.8584 41.667L50.6533 41.667Z" fill="#D4D4D4"/>
<path id="Vector_74" d="M38.4746 38.462L38.4746 35.2568L41.6797 35.2568L41.6797 38.462L38.4746 38.462Z" fill="#D4D4D4"/>
<path id="Vector_75" d="M42.9609 44.8721L42.9609 41.667L46.1661 41.667L46.1661 44.8721L42.9609 44.8721Z" fill="#D4D4D4"/>
<path id="Vector_76" d="M44.8848 48.0772L44.8848 44.8721L48.0899 44.8721L48.0899 48.0772L44.8848 48.0772Z" fill="#D4D4D4"/>
<path id="Vector_77" d="M44.8848 50L44.8848 46.7949L48.0899 46.7949L48.0899 50L44.8848 50Z" fill="#D4D4D4"/>
<path id="Vector_78" d="M41.0381 41.667L41.0381 38.4619L44.2432 38.4619L44.2432 41.667L41.0381 41.667Z" fill="#D4D4D4"/>
<path id="Vector_79" d="M44.2432 41.667L44.2432 38.4619L47.4483 38.4619L47.4483 41.667L44.2432 41.667Z" fill="#D4D4D4"/>
<path id="Vector_80" d="M44.8848 38.462L44.8848 35.2568L48.0899 35.2568L48.0899 38.462L44.8848 38.462Z" fill="#D4D4D4"/>
<path id="Vector_81" d="M41.6797 38.462L41.6797 35.2568L44.8848 35.2568L44.8848 38.462L41.6797 38.462Z" fill="#D4D4D4"/>
<path id="Vector_82" d="M48.0898 38.462L48.0898 35.2568L51.295 35.2568L51.295 38.462L48.0898 38.462Z" fill="#D4D4D4"/>
<path id="Vector_83" d="M47.4482 41.667L47.4482 38.4619L50.6534 38.4619L50.6534 41.667L47.4482 41.667Z" fill="#D4D4D4"/>
<path id="Vector_84" d="M35.2695 37.1797L35.2695 33.9746L38.4747 33.9746L38.4747 37.1797L35.2695 37.1797Z" fill="white"/>
<path id="Vector_85" d="M35.2695 40.3848L35.2695 37.1797L38.4747 37.1797L38.4747 40.3848L35.2695 40.3848Z" fill="white"/>
<path id="Vector_86" d="M35.2695 43.5899L35.2695 40.3848L38.4747 40.3848L38.4747 43.5899L35.2695 43.5899Z" fill="white"/>
<path id="Vector_87" d="M35.2695 46.795L35.2695 43.5898L38.4747 43.5898L38.4747 46.795L35.2695 46.795Z" fill="white"/>
<path id="Vector_88" d="M35.2695 50L35.2695 46.7949L38.4747 46.7949L38.4747 50L35.2695 50Z" fill="white"/>
<path id="Vector_89" d="M32.0645 37.1797L32.0645 33.9746L35.2696 33.9746L35.2696 37.1797L32.0645 37.1797Z" fill="white"/>
<path id="Vector_90" d="M32.0645 40.3848L32.0645 37.1797L35.2696 37.1797L35.2696 40.3848L32.0645 40.3848Z" fill="white"/>
<path id="Vector_91" d="M32.0645 43.5899L32.0645 40.3848L35.2696 40.3848L35.2696 43.5899L32.0645 43.5899Z" fill="white"/>
<path id="Vector_92" d="M32.0645 46.795L32.0645 43.5898L35.2696 43.5898L35.2696 46.795L32.0645 46.795Z" fill="white"/>
<path id="Vector_93" d="M32.0645 50L32.0645 46.7949L35.2696 46.7949L35.2696 50L32.0645 50Z" fill="white"/>
<path id="Vector_94" d="M28.8584 37.1797L28.8584 33.9746L32.0635 33.9746L32.0635 37.1797L28.8584 37.1797Z" fill="white"/>
<path id="Vector_95" d="M28.8584 40.3848L28.8584 37.1797L32.0635 37.1797L32.0635 40.3848L28.8584 40.3848Z" fill="white"/>
<path id="Vector_96" d="M28.8584 43.5899L28.8584 40.3848L32.0635 40.3848L32.0635 43.5899L28.8584 43.5899Z" fill="white"/>
<path id="Vector_97" d="M28.8584 46.795L28.8584 43.5898L32.0635 43.5898L32.0635 46.795L28.8584 46.795Z" fill="white"/>
<path id="Vector_98" d="M28.8584 50L28.8584 46.7949L32.0635 46.7949L32.0635 50L28.8584 50Z" fill="white"/>
<path id="Vector_99" d="M25.6533 37.1797L25.6533 33.9746L28.8584 33.9746L28.8584 37.1797L25.6533 37.1797Z" fill="white"/>
<path id="Vector_100" d="M25.6533 40.3848L25.6533 37.1797L28.8584 37.1797L28.8584 40.3848L25.6533 40.3848Z" fill="white"/>
<path id="Vector_101" d="M25.6533 43.5899L25.6533 40.3848L28.8584 40.3848L28.8584 43.5899L25.6533 43.5899Z" fill="white"/>
<path id="Vector_102" d="M25.6533 46.795L25.6533 43.5898L28.8584 43.5898L28.8584 46.795L25.6533 46.795Z" fill="white"/>
<path id="Vector_103" d="M25.6533 50L25.6533 46.7949L28.8584 46.7949L28.8584 50L25.6533 50Z" fill="white"/>
<path id="Vector_104" d="M22.4482 37.1797L22.4482 33.9746L25.6534 33.9746L25.6534 37.1797L22.4482 37.1797Z" fill="white"/>
<path id="Vector_105" d="M22.4482 40.3848L22.4482 37.1797L25.6534 37.1797L25.6534 40.3848L22.4482 40.3848Z" fill="white"/>
<path id="Vector_106" d="M22.4482 43.5899L22.4482 40.3848L25.6534 40.3848L25.6534 43.5899L22.4482 43.5899Z" fill="white"/>
<path id="Vector_107" d="M22.4482 46.795L22.4482 43.5898L25.6534 43.5898L25.6534 46.795L22.4482 46.795Z" fill="white"/>
<path id="Vector_108" d="M22.4482 50L22.4482 46.7949L25.6534 46.7949L25.6534 50L22.4482 50Z" fill="white"/>
<path id="Vector_109" d="M19.2432 37.1797L19.2432 33.9746L22.4483 33.9746L22.4483 37.1797L19.2432 37.1797Z" fill="white"/>
<path id="Vector_110" d="M19.2432 40.3848L19.2432 37.1797L22.4483 37.1797L22.4483 40.3848L19.2432 40.3848Z" fill="white"/>
<path id="Vector_111" d="M19.2432 43.5899L19.2432 40.3848L22.4483 40.3848L22.4483 43.5899L19.2432 43.5899Z" fill="white"/>
<path id="Vector_112" d="M19.2432 46.795L19.2432 43.5898L22.4483 43.5898L22.4483 46.795L19.2432 46.795Z" fill="white"/>
<path id="Vector_113" d="M19.2432 50L19.2432 46.7949L22.4483 46.7949L22.4483 50L19.2432 50Z" fill="white"/>
<path id="Vector_114" d="M16.0381 37.1797L16.0381 33.9746L19.2432 33.9746L19.2432 37.1797L16.0381 37.1797Z" fill="white"/>
<path id="Vector_115" d="M16.0381 40.3848L16.0381 37.1797L19.2432 37.1797L19.2432 40.3848L16.0381 40.3848Z" fill="white"/>
<path id="Vector_116" d="M16.0381 43.5899L16.0381 40.3848L19.2432 40.3848L19.2432 43.5899L16.0381 43.5899Z" fill="white"/>
<path id="Vector_117" d="M16.0381 46.795L16.0381 43.5898L19.2432 43.5898L19.2432 46.795L16.0381 46.795Z" fill="white"/>
<path id="Vector_118" d="M16.0381 50L16.0381 46.7949L19.2432 46.7949L19.2432 50L16.0381 50Z" fill="white"/>
<path id="Vector_119" d="M38.4746 50L38.4746 46.7949L41.6797 46.7949L41.6797 50L38.4746 50Z" fill="white"/>
<path id="Vector_120" d="M38.4746 46.795L38.4746 43.5898L41.6797 43.5898L41.6797 46.795L38.4746 46.795Z" fill="white"/>
<path id="Vector_121" d="M39.7559 46.795L39.7559 43.5898L42.961 43.5898L42.961 46.795L39.7559 46.795Z" fill="white"/>
<path id="Vector_122" d="M41.6797 50L41.6797 46.7949L44.8848 46.7949L44.8848 50L41.6797 50Z" fill="white"/>
<path id="Vector_123" d="M41.6797 48.0772L41.6797 44.8721L44.8848 44.8721L44.8848 48.0772L41.6797 48.0772Z" fill="white"/>
<path id="Vector_124" d="M39.7559 44.8721L39.7559 41.667L42.961 41.667L42.961 44.8721L39.7559 44.8721Z" fill="white"/>
<path id="Vector_125" d="M37.833 41.667L37.833 38.4619L41.0381 38.4619L41.0381 41.667L37.833 41.667Z" fill="white"/>
<path id="Vector_126" d="M37.833 43.5899L37.833 40.3848L41.0381 40.3848L41.0381 43.5899L37.833 43.5899Z" fill="white"/>
<path id="Vector_127" d="M22.4482 3.20508H25.6533V-5.00679e-05H22.4482V3.20508Z" fill="#D4D4D4"/>
<path id="Vector_128" d="M22.4482 6.41016H25.6533V3.20503H22.4482V6.41016Z" fill="#D4D4D4"/>
<path id="Vector_129" d="M19.2431 6.41016H22.4482V3.20503H19.2431V6.41016Z" fill="#D4D4D4"/>
<path id="Vector_130" d="M22.4482 16.0254H25.6533V12.8203H22.4482V16.0254Z" fill="white"/>
<path id="Vector_131" d="M19.2431 16.0254H22.4482V12.8203H19.2431V16.0254Z" fill="white"/>
<path id="Vector_132" d="M20.5253 12.8203H23.7305V9.61518H20.5253V12.8203Z" fill="white"/>
<path id="Vector_133" d="M19.2431 9.61523H22.4482V6.41011H19.2431V9.61523Z" fill="white"/>
<path id="Vector_134" d="M16.038 9.61523H19.2432V6.41011H16.038V9.61523Z" fill="white"/>
<path id="Vector_135" d="M16.038 6.41016H19.2432V3.20503H16.038V6.41016Z" fill="white"/>
<path id="Vector_136" d="M16.038 4.4873H19.2432V1.28218H16.038V4.4873Z" fill="white"/>
<path id="Vector_137" d="M16.038 16.0254H19.2432V12.8203H16.038V16.0254Z" fill="white"/>
<path id="Vector_138" d="M12.833 16.0254H16.0381V12.8203H12.833V16.0254Z" fill="white"/>
<path id="Vector_139" d="M12.833 9.61523H16.0381V6.41011H12.833V9.61523Z" fill="white"/>
<path id="Vector_140" d="M14.7558 7.05176H17.9609V3.84663H14.7558V7.05176Z" fill="white"/>
<path id="Vector_141" d="M17.3203 12.8203H20.5254V9.61518H17.3203V12.8203Z" fill="white"/>
<path id="Vector_142" d="M14.1152 12.8203H17.3203V9.61518H14.1152V12.8203Z" fill="white"/>
<path id="Vector_143" d="M10.9101 12.8203H14.1152V9.61518H10.9101V12.8203Z" fill="white"/>
<path id="Vector_144" d="M9.62788 16.0254H12.833V12.8203H9.62788V16.0254Z" fill="white"/>
<path id="Vector_145" d="M21.1669 19.2305H24.3721V16.0253H21.1669V19.2305Z" fill="white"/>
<path id="Vector_146" d="M17.9619 19.2305H21.167V16.0253H17.9619V19.2305Z" fill="white"/>
<path id="Vector_147" d="M14.7558 19.2305H17.9609V16.0253H14.7558V19.2305Z" fill="white"/>
<path id="Vector_148" d="M11.5507 19.2305H14.7559V16.0253H11.5507V19.2305Z" fill="white"/>
<path id="Vector_149" d="M8.34565 19.2305H11.5508V16.0253H8.34565V19.2305Z" fill="white"/>
<path id="Vector_150" d="M7.70503 19.2305H10.9102V16.0253H7.70503V19.2305Z" fill="white"/>
<path id="Vector_151" d="M19.8847 22.4355H23.0898V19.2304H19.8847V22.4355Z" fill="white"/>
<path id="Vector_152" d="M16.6796 22.4355H19.8848V19.2304H16.6796V22.4355Z" fill="white"/>
<path id="Vector_153" d="M13.4746 22.4355H16.6797V19.2304H13.4746V22.4355Z" fill="white"/>
<path id="Vector_154" d="M10.2695 22.4355H13.4746V19.2304H10.2695V22.4355Z" fill="white"/>
<path id="Vector_155" d="M7.0644 22.4355H10.2695V19.2304H7.0644V22.4355Z" fill="white"/>
<path id="Vector_156" d="M5.78218 22.4355H8.9873V19.2304H5.78218V22.4355Z" fill="white"/>
<path id="Vector_157" d="M18.6025 25.6406H21.8076V22.4355H18.6025V25.6406Z" fill="white"/>
<path id="Vector_158" d="M15.3974 25.6406H18.6025V22.4355H15.3974V25.6406Z" fill="white"/>
<path id="Vector_159" d="M12.1923 25.6406H15.3975V22.4355H12.1923V25.6406Z" fill="white"/>
<path id="Vector_160" d="M8.98725 25.6406H12.1924V22.4355H8.98725V25.6406Z" fill="white"/>
<path id="Vector_161" d="M5.78218 25.6406H8.9873V22.4355H5.78218V25.6406Z" fill="white"/>
<path id="Vector_162" d="M3.85932 25.6406H7.06445V22.4355H3.85932V25.6406Z" fill="white"/>
<path id="Vector_163" d="M17.3203 28.8457H20.5254V25.6406H17.3203V28.8457Z" fill="white"/>
<path id="Vector_164" d="M14.1152 28.8457H17.3203V25.6406H14.1152V28.8457Z" fill="white"/>
<path id="Vector_165" d="M10.9101 28.8457H14.1152V25.6406H10.9101V28.8457Z" fill="white"/>
<path id="Vector_166" d="M7.70503 28.8457H10.9102V25.6406H7.70503V28.8457Z" fill="white"/>
<path id="Vector_167" d="M4.49995 28.8457H7.70508V25.6406H4.49995V28.8457Z" fill="white"/>
<path id="Vector_168" d="M2.5771 28.8457H5.78223V25.6406H2.5771V28.8457Z" fill="white"/>
<path id="Vector_169" d="M0.0126452 32.0518H3.21777V28.8466H0.0126452V32.0518Z" fill="white"/>
<path id="Vector_170" d="M12.833 32.0518H16.0381V28.8466H12.833V32.0518Z" fill="white"/>
<path id="Vector_171" d="M16.038 32.0518H19.2432V28.8466H16.038V32.0518Z" fill="white"/>
<path id="Vector_172" d="M15.3974 33.9746H18.6025V30.7695H15.3974V33.9746Z" fill="white"/>
<path id="Vector_173" d="M9.62788 32.0518H12.833V28.8466H9.62788V32.0518Z" fill="white"/>
<path id="Vector_174" d="M6.4228 32.0518H9.62793V28.8466H6.4228V32.0518Z" fill="white"/>
<path id="Vector_175" d="M3.21772 32.0518H6.42285V28.8466H3.21772V32.0518Z" fill="white"/>
<path id="Vector_176" d="M12.833 35.2568H16.0381V32.0517H12.833V35.2568Z" fill="white"/>
<path id="Vector_177" d="M9.62788 35.2568H12.833V32.0517H9.62788V35.2568Z" fill="white"/>
<path id="Vector_178" d="M6.4228 35.2568H9.62793V32.0517H6.4228V35.2568Z" fill="white"/>
<path id="Vector_179" d="M3.21772 35.2568H6.42285V32.0517H3.21772V35.2568Z" fill="white"/>
<path id="Vector_180" d="M0.0126452 35.2568H3.21777V32.0517H0.0126452V35.2568Z" fill="white"/>
<path id="Vector_181" d="M23.7304 12.8203H26.9355V9.61518H23.7304V12.8203Z" fill="#D4D4D4"/>
<path id="Vector_182" d="M22.4482 9.61523H25.6533V6.41011H22.4482V9.61523Z" fill="#D4D4D4"/>
<path id="Vector_183" d="M19.2431 3.20508H22.4482V-5.00679e-05H19.2431V3.20508Z" fill="#D4D4D4"/>
<path id="Vector_184" d="M3.21777 38.462L3.21777 35.2568L0.0126455 35.2568L0.0126456 38.462L3.21777 38.462Z" fill="#D4D4D4"/>
<path id="Vector_185" d="M8.3457 44.8721L8.3457 41.667L5.14058 41.667L5.14058 44.8721L8.3457 44.8721Z" fill="#D4D4D4"/>
<path id="Vector_186" d="M5.14063 44.8721L5.14062 41.667L1.9355 41.667L1.9355 44.8721L5.14063 44.8721Z" fill="#D4D4D4"/>
<path id="Vector_187" d="M7.70508 48.0772L7.70508 44.8721L4.49995 44.8721L4.49995 48.0772L7.70508 48.0772Z" fill="#D4D4D4"/>
<path id="Vector_188" d="M3.8584 41.667L3.8584 38.4619L0.65327 38.4619L0.653271 41.667L3.8584 41.667Z" fill="#D4D4D4"/>
<path id="Vector_189" d="M16.0381 38.462L16.0381 35.2568L12.833 35.2568L12.833 38.462L16.0381 38.462Z" fill="#D4D4D4"/>
<path id="Vector_190" d="M11.5508 44.8721L11.5508 41.667L8.34565 41.667L8.34565 44.8721L11.5508 44.8721Z" fill="#D4D4D4"/>
<path id="Vector_191" d="M9.62793 48.0772L9.62793 44.8721L6.4228 44.8721L6.4228 48.0772L9.62793 48.0772Z" fill="#D4D4D4"/>
<path id="Vector_192" d="M9.62793 50L9.62793 46.7949L6.4228 46.7949L6.4228 50L9.62793 50Z" fill="#D4D4D4"/>
<path id="Vector_193" d="M13.4746 41.667L13.4746 38.4619L10.2695 38.4619L10.2695 41.667L13.4746 41.667Z" fill="#D4D4D4"/>
<path id="Vector_194" d="M10.2695 41.667L10.2695 38.4619L7.0644 38.4619L7.0644 41.667L10.2695 41.667Z" fill="#D4D4D4"/>
<path id="Vector_195" d="M9.62793 38.462L9.62793 35.2568L6.4228 35.2568L6.4228 38.462L9.62793 38.462Z" fill="#D4D4D4"/>
<path id="Vector_196" d="M12.833 38.462L12.833 35.2568L9.62788 35.2568L9.62788 38.462L12.833 38.462Z" fill="#D4D4D4"/>
<path id="Vector_197" d="M6.42285 38.462L6.42285 35.2568L3.21772 35.2568L3.21772 38.462L6.42285 38.462Z" fill="#D4D4D4"/>
<path id="Vector_198" d="M7.06445 41.667L7.06445 38.4619L3.85933 38.4619L3.85933 41.667L7.06445 41.667Z" fill="#D4D4D4"/>
<path id="Vector_199" d="M19.2432 37.1797L19.2432 33.9746L16.038 33.9746L16.038 37.1797L19.2432 37.1797Z" fill="white"/>
<path id="Vector_200" d="M19.2432 40.3848L19.2432 37.1797L16.038 37.1797L16.038 40.3848L19.2432 40.3848Z" fill="white"/>
<path id="Vector_201" d="M19.2432 43.5899L19.2432 40.3848L16.038 40.3848L16.038 43.5899L19.2432 43.5899Z" fill="white"/>
<path id="Vector_202" d="M19.2432 46.795L19.2432 43.5898L16.038 43.5898L16.038 46.795L19.2432 46.795Z" fill="white"/>
<path id="Vector_203" d="M19.2432 50L19.2432 46.7949L16.038 46.7949L16.038 50L19.2432 50Z" fill="white"/>
<path id="Vector_204" d="M22.4482 37.1797L22.4482 33.9746L19.2431 33.9746L19.2431 37.1797L22.4482 37.1797Z" fill="white"/>
<path id="Vector_205" d="M22.4482 40.3848L22.4482 37.1797L19.2431 37.1797L19.2431 40.3848L22.4482 40.3848Z" fill="white"/>
<path id="Vector_206" d="M22.4482 43.5899L22.4482 40.3848L19.2431 40.3848L19.2431 43.5899L22.4482 43.5899Z" fill="white"/>
<path id="Vector_207" d="M22.4482 46.795L22.4482 43.5898L19.2431 43.5898L19.2431 46.795L22.4482 46.795Z" fill="white"/>
<path id="Vector_208" d="M22.4482 50L22.4482 46.7949L19.2431 46.7949L19.2431 50L22.4482 50Z" fill="white"/>
<path id="Vector_209" d="M25.6533 37.1797L25.6533 33.9746L22.4482 33.9746L22.4482 37.1797L25.6533 37.1797Z" fill="white"/>
<path id="Vector_210" d="M25.6533 40.3848L25.6533 37.1797L22.4482 37.1797L22.4482 40.3848L25.6533 40.3848Z" fill="white"/>
<path id="Vector_211" d="M25.6533 43.5899L25.6533 40.3848L22.4482 40.3848L22.4482 43.5899L25.6533 43.5899Z" fill="white"/>
<path id="Vector_212" d="M25.6533 46.795L25.6533 43.5898L22.4482 43.5898L22.4482 46.795L25.6533 46.795Z" fill="white"/>
<path id="Vector_213" d="M25.6533 50L25.6533 46.7949L22.4482 46.7949L22.4482 50L25.6533 50Z" fill="white"/>
<path id="Vector_214" d="M16.0381 50L16.0381 46.7949L12.833 46.7949L12.833 50L16.0381 50Z" fill="white"/>
<path id="Vector_215" d="M16.0381 46.795L16.0381 43.5898L12.833 43.5898L12.833 46.795L16.0381 46.795Z" fill="white"/>
<path id="Vector_216" d="M14.7559 46.795L14.7559 43.5898L11.5507 43.5898L11.5507 46.795L14.7559 46.795Z" fill="white"/>
<path id="Vector_217" d="M12.833 50L12.833 46.7949L9.62788 46.7949L9.62788 50L12.833 50Z" fill="white"/>
<path id="Vector_218" d="M12.833 48.0772L12.833 44.8721L9.62788 44.8721L9.62788 48.0772L12.833 48.0772Z" fill="white"/>
<path id="Vector_219" d="M14.7559 44.8721L14.7559 41.667L11.5507 41.667L11.5507 44.8721L14.7559 44.8721Z" fill="white"/>
<path id="Vector_220" d="M16.6797 41.667L16.6797 38.4619L13.4746 38.4619L13.4746 41.667L16.6797 41.667Z" fill="white"/>
<path id="Vector_221" d="M16.6797 43.5899L16.6797 40.3848L13.4746 40.3848L13.4746 43.5899L16.6797 43.5899Z" fill="white"/>
</g>
</svg>
