<svg width="53" height="50" viewBox="0 0 53 50" fill="none" xmlns="http://www.w3.org/2000/svg">
<g id="pixel_white &#34;confluence&#34;">
<path id="Vector" d="M20.8484 16.2793H17.9414V19.1863H20.8484V16.2793Z" fill="white"/>
<path id="Vector_2" d="M41.198 16.2793H38.291V19.1863H41.198V16.2793Z" fill="white"/>
<path id="Vector_3" d="M38.2908 16.2793H35.3838V19.1863H38.2908V16.2793Z" fill="white"/>
<path id="Vector_4" d="M29.5701 16.2793H26.6631V19.1863H29.5701V16.2793Z" fill="white"/>
<path id="Vector_5" d="M35.3835 16.2793H32.4766V19.1863H35.3835V16.2793Z" fill="white"/>
<path id="Vector_6" d="M26.6628 16.2793H23.7559V19.1863H26.6628V16.2793Z" fill="white"/>
<path id="Vector_7" d="M23.7556 16.2793H20.8486V19.1863H23.7556V16.2793Z" fill="white"/>
<path id="Vector_8" d="M9.22045 13.3721H6.31348V16.279H9.22045V13.3721Z" fill="white"/>
<path id="Vector_9" d="M9.22045 16.2793H6.31348V19.1863H9.22045V16.2793Z" fill="white"/>
<path id="Vector_10" d="M6.3142 13.3721H3.40723V16.279H6.3142V13.3721Z" fill="white"/>
<path id="Vector_11" d="M6.3142 14.5352H3.40723V17.4421H6.3142V14.5352Z" fill="white"/>
<path id="Vector_12" d="M3.40698 13.3721H0.5V16.279H3.40698V13.3721Z" fill="white"/>
<path id="Vector_13" d="M15.0349 13.3721H12.1279V16.279H15.0349V13.3721Z" fill="white"/>
<path id="Vector_14" d="M12.1277 13.3721H9.2207V16.279H12.1277V13.3721Z" fill="white"/>
<path id="Vector_15" d="M17.9421 13.3721H15.0352V16.279H17.9421V13.3721Z" fill="white"/>
<path id="Vector_16" d="M15.0349 16.2793H12.1279V19.1863H15.0349V16.2793Z" fill="white"/>
<path id="Vector_17" d="M15.0349 18.0234H12.1279V20.9304H15.0349V18.0234Z" fill="white"/>
<path id="Vector_18" d="M12.7097 17.4414H9.80273V20.3484H12.7097V17.4414Z" fill="white"/>
<path id="Vector_19" d="M12.1277 16.2793H9.2207V19.1863H12.1277V16.2793Z" fill="white"/>
<path id="Vector_20" d="M17.9421 16.2793H15.0352V19.1863H17.9421V16.2793Z" fill="white"/>
<path id="Vector_21" d="M17.9421 19.1865H15.0352V22.0935H17.9421V19.1865Z" fill="white"/>
<path id="Vector_22" d="M23.7556 13.3721H20.8486V16.279H23.7556V13.3721Z" fill="white"/>
<path id="Vector_23" d="M20.8484 13.3721H17.9414V16.279H20.8484V13.3721Z" fill="white"/>
<path id="Vector_24" d="M26.6628 13.3721H23.7559V16.279H26.6628V13.3721Z" fill="white"/>
<path id="Vector_25" d="M44.1042 13.3721H41.1973V16.279H44.1042V13.3721Z" fill="white"/>
<path id="Vector_26" d="M47.0115 13.3721H44.1045V16.279H47.0115V13.3721Z" fill="white"/>
<path id="Vector_27" d="M44.1042 16.2793H41.1973V19.1863H44.1042V16.2793Z" fill="white"/>
<path id="Vector_28" d="M47.0115 10.4648H44.1045V13.3718H47.0115V10.4648Z" fill="white"/>
<path id="Vector_29" d="M47.0115 7.55859H44.1045V10.4656H47.0115V7.55859Z" fill="white"/>
<path id="Vector_30" d="M47.0115 4.65137H44.1045V7.55834H47.0115V4.65137Z" fill="white"/>
<path id="Vector_31" d="M47.0115 2.90723H44.1045V5.8142H47.0115V2.90723Z" fill="white"/>
<path id="Vector_32" d="M49.9187 10.4648H47.0117V13.3718H49.9187V10.4648Z" fill="white"/>
<path id="Vector_33" d="M49.9187 7.55859H47.0117V10.4656H49.9187V7.55859Z" fill="white"/>
<path id="Vector_34" d="M52.2439 7.55859H49.3369V10.4656H52.2439V7.55859Z" fill="white"/>
<path id="Vector_35" d="M51.6628 5.81348H48.7559V8.72045H51.6628V5.81348Z" fill="white"/>
<path id="Vector_36" d="M49.9187 4.65137H47.0117V7.55834H49.9187V4.65137Z" fill="white"/>
<path id="Vector_37" d="M41.198 13.3721H38.291V16.279H41.198V13.3721Z" fill="white"/>
<path id="Vector_38" d="M38.2908 13.3721H35.3838V16.279H38.2908V13.3721Z" fill="white"/>
<path id="Vector_39" d="M35.3835 13.3721H32.4766V16.279H35.3835V13.3721Z" fill="white"/>
<path id="Vector_40" d="M29.5701 13.3721H26.6631V16.279H29.5701V13.3721Z" fill="white"/>
<path id="Vector_41" d="M32.4763 13.3721H29.5693V16.279H32.4763V13.3721Z" fill="white"/>
<path id="Vector_42" d="M32.4763 16.2793H29.5693V19.1863H32.4763V16.2793Z" fill="white"/>
<path id="Vector_43" d="M20.8484 19.1865H17.9414V22.0935H20.8484V19.1865Z" fill="white"/>
<path id="Vector_44" d="M41.198 19.1865H38.291V22.0935H41.198V19.1865Z" fill="white"/>
<path id="Vector_45" d="M38.2908 19.1865H35.3838V22.0935H38.2908V19.1865Z" fill="white"/>
<path id="Vector_46" d="M29.5701 19.1865H26.6631V22.0935H29.5701V19.1865Z" fill="white"/>
<path id="Vector_47" d="M35.3835 19.1865H32.4766V22.0935H35.3835V19.1865Z" fill="white"/>
<path id="Vector_48" d="M26.6628 19.1865H23.7559V22.0935H26.6628V19.1865Z" fill="white"/>
<path id="Vector_49" d="M23.7556 19.1865H20.8486V22.0935H23.7556V19.1865Z" fill="white"/>
<path id="Vector_50" d="M32.4763 19.1865H29.5693V22.0935H32.4763V19.1865Z" fill="white"/>
<path id="Vector_51" d="M20.8484 22.0928H17.9414V24.9998H20.8484V22.0928Z" fill="white"/>
<path id="Vector_52" d="M38.2908 22.0928H35.3838V24.9998H38.2908V22.0928Z" fill="white"/>
<path id="Vector_53" d="M29.5701 22.0928H26.6631V24.9998H29.5701V22.0928Z" fill="white"/>
<path id="Vector_54" d="M35.3835 22.0928H32.4766V24.9998H35.3835V22.0928Z" fill="white"/>
<path id="Vector_55" d="M26.6628 22.0928H23.7559V24.9998H26.6628V22.0928Z" fill="white"/>
<path id="Vector_56" d="M23.7556 22.0928H20.8486V24.9998H23.7556V22.0928Z" fill="white"/>
<path id="Vector_57" d="M32.4763 22.0928H29.5693V24.9998H32.4763V22.0928Z" fill="white"/>
<path id="Vector_58" d="M20.8484 10.4648H17.9414V13.3718H20.8484V10.4648Z" fill="white"/>
<path id="Vector_59" d="M41.198 10.4648H38.291V13.3718H41.198V10.4648Z" fill="white"/>
<path id="Vector_60" d="M44.1042 10.4648H41.1973V13.3718H44.1042V10.4648Z" fill="white"/>
<path id="Vector_61" d="M44.1042 4.65137H41.1973V7.55834H44.1042V4.65137Z" fill="white"/>
<path id="Vector_62" d="M44.1042 7.55859H41.1973V10.4656H44.1042V7.55859Z" fill="white"/>
<path id="Vector_63" d="M44.1042 1.74414H41.1973V4.65112H44.1042V1.74414Z" fill="white"/>
<path id="Vector_64" d="M41.198 1.74414H38.291V4.65112H41.198V1.74414Z" fill="white"/>
<path id="Vector_65" d="M40.0349 1.74414H37.1279V4.65112H40.0349V1.74414Z" fill="white"/>
<path id="Vector_66" d="M41.779 0H38.8721V2.90698H41.779V0Z" fill="white"/>
<path id="Vector_67" d="M41.198 4.65137H38.291V7.55834H41.198V4.65137Z" fill="white"/>
<path id="Vector_68" d="M41.198 7.55859H38.291V10.4656H41.198V7.55859Z" fill="white"/>
<path id="Vector_69" d="M38.2908 10.4648H35.3838V13.3718H38.2908V10.4648Z" fill="white"/>
<path id="Vector_70" d="M38.2908 7.55859H35.3838V10.4656H38.2908V7.55859Z" fill="white"/>
<path id="Vector_71" d="M32.4763 7.55859H29.5693V10.4656H32.4763V7.55859Z" fill="white"/>
<path id="Vector_72" d="M35.3835 7.55859H32.4766V10.4656H35.3835V7.55859Z" fill="white"/>
<path id="Vector_73" d="M38.2908 4.65137H35.3838V7.55834H38.2908V4.65137Z" fill="white"/>
<path id="Vector_74" d="M29.5701 10.4648H26.6631V13.3718H29.5701V10.4648Z" fill="white"/>
<path id="Vector_75" d="M29.5701 10.4648H26.6631V13.3718H29.5701V10.4648Z" fill="white"/>
<path id="Vector_76" d="M35.3835 10.4648H32.4766V13.3718H35.3835V10.4648Z" fill="white"/>
<path id="Vector_77" d="M26.6628 10.4648H23.7559V13.3718H26.6628V10.4648Z" fill="white"/>
<path id="Vector_78" d="M23.7556 10.4648H20.8486V13.3718H23.7556V10.4648Z" fill="white"/>
<path id="Vector_79" d="M23.7556 7.55859H20.8486V10.4656H23.7556V7.55859Z" fill="white"/>
<path id="Vector_80" d="M20.8484 7.55859H17.9414V10.4656H20.8484V7.55859Z" fill="white"/>
<path id="Vector_81" d="M17.9421 4.65137H15.0352V7.55834H17.9421V4.65137Z" fill="white"/>
<path id="Vector_82" d="M20.2673 5.81348H17.3604V8.72045H20.2673V5.81348Z" fill="white"/>
<path id="Vector_83" d="M15.0349 4.65137H12.1279V7.55834H15.0349V4.65137Z" fill="white"/>
<path id="Vector_84" d="M15.0349 3.48828H12.1279V6.39526H15.0349V3.48828Z" fill="white"/>
<path id="Vector_85" d="M12.1277 4.65137H9.2207V7.55834H12.1277V4.65137Z" fill="white"/>
<path id="Vector_86" d="M17.9421 7.55859H15.0352V10.4656H17.9421V7.55859Z" fill="white"/>
<path id="Vector_87" d="M15.0349 7.55859H12.1279V10.4656H15.0349V7.55859Z" fill="white"/>
<path id="Vector_88" d="M12.1277 7.55859H9.2207V10.4656H12.1277V7.55859Z" fill="white"/>
<path id="Vector_89" d="M17.9421 10.4648H15.0352V13.3718H17.9421V10.4648Z" fill="white"/>
<path id="Vector_90" d="M15.0349 10.4648H12.1279V13.3718H15.0349V10.4648Z" fill="white"/>
<path id="Vector_91" d="M12.1277 10.4648H9.2207V13.3718H12.1277V10.4648Z" fill="white"/>
<path id="Vector_92" d="M9.22045 10.4648H6.31348V13.3718H9.22045V10.4648Z" fill="white"/>
<path id="Vector_93" d="M6.3142 10.4648H3.40723V13.3718H6.3142V10.4648Z" fill="white"/>
<path id="Vector_94" d="M4.57006 10.4648H1.66309V13.3718H4.57006V10.4648Z" fill="white"/>
<path id="Vector_95" d="M6.3142 7.55859H3.40723V10.4656H6.3142V7.55859Z" fill="white"/>
<path id="Vector_96" d="M7.47631 4.65137H4.56934V7.55834H7.47631V4.65137Z" fill="white"/>
<path id="Vector_97" d="M9.22045 4.65137H6.31348V7.55834H9.22045V4.65137Z" fill="white"/>
<path id="Vector_98" d="M12.1277 1.74414H9.2207V4.65112H12.1277V1.74414Z" fill="white"/>
<path id="Vector_99" d="M9.22045 1.74414H6.31348V4.65112H9.22045V1.74414Z" fill="white"/>
<path id="Vector_100" d="M9.22045 7.55859H6.31348V10.4656H9.22045V7.55859Z" fill="white"/>
<path id="Vector_101" d="M32.4763 10.4648H29.5693V13.3718H32.4763V10.4648Z" fill="white"/>
<path id="Vector_102" d="M29.5701 7.55859H26.6631V10.4656H29.5701V7.55859Z" fill="white"/>
<path id="Vector_103" d="M26.6628 7.55859H23.7559V10.4656H26.6628V7.55859Z" fill="white"/>
<path id="Vector_104" d="M20.8484 35.4648H17.9414V32.5579H20.8484V35.4648Z" fill="white"/>
<path id="Vector_105" d="M41.198 35.4648H38.291V32.5579H41.198V35.4648Z" fill="white"/>
<path id="Vector_106" d="M38.2908 35.4648H35.3838V32.5579H38.2908V35.4648Z" fill="white"/>
<path id="Vector_107" d="M29.5701 35.4648H26.6631V32.5579H29.5701V35.4648Z" fill="white"/>
<path id="Vector_108" d="M35.3835 35.4648H32.4766V32.5579H35.3835V35.4648Z" fill="white"/>
<path id="Vector_109" d="M26.6628 35.4648H23.7559V32.5579H26.6628V35.4648Z" fill="white"/>
<path id="Vector_110" d="M23.7556 35.4648H20.8486V32.5579H23.7556V35.4648Z" fill="white"/>
<path id="Vector_111" d="M9.22045 38.3721H6.31348V35.4651H9.22045V38.3721Z" fill="white"/>
<path id="Vector_112" d="M9.22045 35.4648H6.31348V32.5579H9.22045V35.4648Z" fill="white"/>
<path id="Vector_113" d="M6.3142 38.3721H3.40723V35.4651H6.3142V38.3721Z" fill="white"/>
<path id="Vector_114" d="M3.40698 44.1865H0.5V41.2795H3.40698V44.1865Z" fill="white"/>
<path id="Vector_115" d="M4.57006 45.3486H1.66309V42.4417H4.57006V45.3486Z" fill="white"/>
<path id="Vector_116" d="M3.40698 41.2793H0.5V38.3723H3.40698V41.2793Z" fill="white"/>
<path id="Vector_117" d="M15.0349 38.3721H12.1279V35.4651H15.0349V38.3721Z" fill="white"/>
<path id="Vector_118" d="M12.1277 38.3721H9.2207V35.4651H12.1277V38.3721Z" fill="white"/>
<path id="Vector_119" d="M17.9421 38.3721H15.0352V35.4651H17.9421V38.3721Z" fill="white"/>
<path id="Vector_120" d="M15.0349 35.4648H12.1279V32.5579H15.0349V35.4648Z" fill="white"/>
<path id="Vector_121" d="M12.1277 35.4648H9.2207V32.5579H12.1277V35.4648Z" fill="white"/>
<path id="Vector_122" d="M17.9421 35.4648H15.0352V32.5579H17.9421V35.4648Z" fill="white"/>
<path id="Vector_123" d="M17.9421 32.5586H15.0352V29.6516H17.9421V32.5586Z" fill="white"/>
<path id="Vector_124" d="M15.0349 32.5586H12.1279V29.6516H15.0349V32.5586Z" fill="white"/>
<path id="Vector_125" d="M15.0349 30.8135H12.1279V27.9065H15.0349V30.8135Z" fill="white"/>
<path id="Vector_126" d="M17.9421 29.6514H15.0352V26.7444H17.9421V29.6514Z" fill="white"/>
<path id="Vector_127" d="M12.1277 32.5586H9.2207V29.6516H12.1277V32.5586Z" fill="white"/>
<path id="Vector_128" d="M23.7556 38.3721H20.8486V35.4651H23.7556V38.3721Z" fill="white"/>
<path id="Vector_129" d="M20.8484 38.3721H17.9414V35.4651H20.8484V38.3721Z" fill="white"/>
<path id="Vector_130" d="M26.6628 38.3721H23.7559V35.4651H26.6628V38.3721Z" fill="white"/>
<path id="Vector_131" d="M44.1042 38.3721H41.1973V35.4651H44.1042V38.3721Z" fill="white"/>
<path id="Vector_132" d="M47.0115 38.3721H44.1045V35.4651H47.0115V38.3721Z" fill="white"/>
<path id="Vector_133" d="M44.1042 35.4648H41.1973V32.5579H44.1042V35.4648Z" fill="white"/>
<path id="Vector_134" d="M47.0115 41.2793H44.1045V38.3723H47.0115V41.2793Z" fill="white"/>
<path id="Vector_135" d="M47.0115 44.1865H44.1045V41.2795H47.0115V44.1865Z" fill="white"/>
<path id="Vector_136" d="M49.9187 44.1865H47.0117V41.2795H49.9187V44.1865Z" fill="white"/>
<path id="Vector_137" d="M47.0115 47.0928H44.1045V44.1858H47.0115V47.0928Z" fill="white"/>
<path id="Vector_138" d="M49.9187 41.2793H47.0117V38.3723H49.9187V41.2793Z" fill="white"/>
<path id="Vector_139" d="M32.4763 44.1865H29.5693V41.2795H32.4763V44.1865Z" fill="white"/>
<path id="Vector_140" d="M41.198 38.3721H38.291V35.4651H41.198V38.3721Z" fill="white"/>
<path id="Vector_141" d="M38.2908 38.3721H35.3838V35.4651H38.2908V38.3721Z" fill="white"/>
<path id="Vector_142" d="M35.3835 38.3721H32.4766V35.4651H35.3835V38.3721Z" fill="white"/>
<path id="Vector_143" d="M29.5701 38.3721H26.6631V35.4651H29.5701V38.3721Z" fill="white"/>
<path id="Vector_144" d="M32.4763 38.3721H29.5693V35.4651H32.4763V38.3721Z" fill="white"/>
<path id="Vector_145" d="M32.4763 35.4648H29.5693V32.5579H32.4763V35.4648Z" fill="white"/>
<path id="Vector_146" d="M20.8484 32.5586H17.9414V29.6516H20.8484V32.5586Z" fill="white"/>
<path id="Vector_147" d="M41.198 32.5586H38.291V29.6516H41.198V32.5586Z" fill="white"/>
<path id="Vector_148" d="M38.2908 32.5586H35.3838V29.6516H38.2908V32.5586Z" fill="white"/>
<path id="Vector_149" d="M29.5701 32.5586H26.6631V29.6516H29.5701V32.5586Z" fill="white"/>
<path id="Vector_150" d="M35.3835 32.5586H32.4766V29.6516H35.3835V32.5586Z" fill="white"/>
<path id="Vector_151" d="M26.6628 32.5586H23.7559V29.6516H26.6628V32.5586Z" fill="white"/>
<path id="Vector_152" d="M23.7556 32.5586H20.8486V29.6516H23.7556V32.5586Z" fill="white"/>
<path id="Vector_153" d="M32.4763 32.5586H29.5693V29.6516H32.4763V32.5586Z" fill="white"/>
<path id="Vector_154" d="M20.8484 29.6514H17.9414V26.7444H20.8484V29.6514Z" fill="white"/>
<path id="Vector_155" d="M49.9187 38.3721H47.0117V35.4651H49.9187V38.3721Z" fill="white"/>
<path id="Vector_156" d="M29.5701 29.6514H26.6631V26.7444H29.5701V29.6514Z" fill="white"/>
<path id="Vector_157" d="M35.3835 29.6514H32.4766V26.7444H35.3835V29.6514Z" fill="white"/>
<path id="Vector_158" d="M26.6628 29.6514H23.7559V26.7444H26.6628V29.6514Z" fill="white"/>
<path id="Vector_159" d="M23.7556 29.6514H20.8486V26.7444H23.7556V29.6514Z" fill="white"/>
<path id="Vector_160" d="M32.4763 29.6514H29.5693V26.7444H32.4763V29.6514Z" fill="white"/>
<path id="Vector_161" d="M20.8484 41.2793H17.9414V38.3723H20.8484V41.2793Z" fill="white"/>
<path id="Vector_162" d="M41.198 41.2793H38.291V38.3723H41.198V41.2793Z" fill="white"/>
<path id="Vector_163" d="M44.1042 41.2793H41.1973V38.3723H44.1042V41.2793Z" fill="white"/>
<path id="Vector_164" d="M44.1042 47.0928H41.1973V44.1858H44.1042V47.0928Z" fill="white"/>
<path id="Vector_165" d="M44.1042 44.1865H41.1973V41.2795H44.1042V44.1865Z" fill="white"/>
<path id="Vector_166" d="M44.1042 50H41.1973V47.093H44.1042V50Z" fill="white"/>
<path id="Vector_167" d="M41.198 50H38.291V47.093H41.198V50Z" fill="white"/>
<path id="Vector_168" d="M41.198 47.0928H38.291V44.1858H41.198V47.0928Z" fill="white"/>
<path id="Vector_169" d="M41.198 44.1865H38.291V41.2795H41.198V44.1865Z" fill="white"/>
<path id="Vector_170" d="M38.2908 41.2793H35.3838V38.3723H38.2908V41.2793Z" fill="white"/>
<path id="Vector_171" d="M38.2908 44.1865H35.3838V41.2795H38.2908V44.1865Z" fill="white"/>
<path id="Vector_172" d="M38.2908 47.0928H35.3838V44.1858H38.2908V47.0928Z" fill="white"/>
<path id="Vector_173" d="M29.5701 41.2793H26.6631V38.3723H29.5701V41.2793Z" fill="white"/>
<path id="Vector_174" d="M35.3835 41.2793H32.4766V38.3723H35.3835V41.2793Z" fill="white"/>
<path id="Vector_175" d="M35.3835 44.1865H32.4766V41.2795H35.3835V44.1865Z" fill="white"/>
<path id="Vector_176" d="M26.6628 41.2793H23.7559V38.3723H26.6628V41.2793Z" fill="white"/>
<path id="Vector_177" d="M23.7556 41.2793H20.8486V38.3723H23.7556V41.2793Z" fill="white"/>
<path id="Vector_178" d="M29.5701 43.0234H26.6631V40.1165H29.5701V43.0234Z" fill="white"/>
<path id="Vector_179" d="M26.6628 43.0234H23.7559V40.1165H26.6628V43.0234Z" fill="white"/>
<path id="Vector_180" d="M20.8484 43.0234H17.9414V40.1165H20.8484V43.0234Z" fill="white"/>
<path id="Vector_181" d="M23.7556 43.0234H20.8486V40.1165H23.7556V43.0234Z" fill="white"/>
<path id="Vector_182" d="M15.0349 47.0928H12.1279V44.1858H15.0349V47.0928Z" fill="white"/>
<path id="Vector_183" d="M13.8718 48.2559H10.9648V45.3489H13.8718V48.2559Z" fill="white"/>
<path id="Vector_184" d="M12.1277 47.0928H9.2207V44.1858H12.1277V47.0928Z" fill="white"/>
<path id="Vector_185" d="M17.9421 44.1865H15.0352V41.2795H17.9421V44.1865Z" fill="white"/>
<path id="Vector_186" d="M15.0349 44.1865H12.1279V41.2795H15.0349V44.1865Z" fill="white"/>
<path id="Vector_187" d="M12.1277 44.1865H9.2207V41.2795H12.1277V44.1865Z" fill="white"/>
<path id="Vector_188" d="M17.9421 41.2793H15.0352V38.3723H17.9421V41.2793Z" fill="white"/>
<path id="Vector_189" d="M15.0349 41.2793H12.1279V38.3723H15.0349V41.2793Z" fill="white"/>
<path id="Vector_190" d="M12.1277 41.2793H9.2207V38.3723H12.1277V41.2793Z" fill="white"/>
<path id="Vector_191" d="M9.22045 41.2793H6.31348V38.3723H9.22045V41.2793Z" fill="white"/>
<path id="Vector_192" d="M6.3142 41.2793H3.40723V38.3723H6.3142V41.2793Z" fill="white"/>
<path id="Vector_193" d="M6.3142 44.1865H3.40723V41.2795H6.3142V44.1865Z" fill="white"/>
<path id="Vector_194" d="M6.3142 47.0928H3.40723V44.1858H6.3142V47.0928Z" fill="white"/>
<path id="Vector_195" d="M7.47631 48.2559H4.56934V45.3489H7.47631V48.2559Z" fill="white"/>
<path id="Vector_196" d="M9.22045 47.0928H6.31348V44.1858H9.22045V47.0928Z" fill="white"/>
<path id="Vector_197" d="M12.1277 50H9.2207V47.093H12.1277V50Z" fill="white"/>
<path id="Vector_198" d="M9.22045 50H6.31348V47.093H9.22045V50Z" fill="white"/>
<path id="Vector_199" d="M9.22045 44.1865H6.31348V41.2795H9.22045V44.1865Z" fill="white"/>
<path id="Vector_200" d="M32.4763 41.2793H29.5693V38.3723H32.4763V41.2793Z" fill="white"/>
</g>
</svg>
