<svg width="49" height="50" viewBox="0 0 49 50" fill="none" xmlns="http://www.w3.org/2000/svg">
<g id="pixel_white &#34;Notion&#34;">
<path id="Vector" d="M17.7491 9.65918H14.9082V12.5001H17.7491V9.65918Z" fill="white"/>
<path id="Vector_2" d="M48.9991 8.52246H46.1582V11.3634H48.9991V8.52246Z" fill="white"/>
<path id="Vector_3" d="M48.9991 11.3633H46.1582V14.2042H48.9991V11.3633Z" fill="white"/>
<path id="Vector_4" d="M48.9991 14.2041H46.1582V17.045H48.9991V14.2041Z" fill="white"/>
<path id="Vector_5" d="M48.9991 17.0459H46.1582V19.8868H48.9991V17.0459Z" fill="white"/>
<path id="Vector_6" d="M48.9991 19.8867H46.1582V22.7276H48.9991V19.8867Z" fill="white"/>
<path id="Vector_7" d="M48.9991 22.7275H46.1582V25.5684H48.9991V22.7275Z" fill="white"/>
<path id="Vector_8" d="M48.9991 25.5684H46.1582V28.4093H48.9991V25.5684Z" fill="white"/>
<path id="Vector_9" d="M48.9991 28.4092H46.1582V31.2501H48.9991V28.4092Z" fill="white"/>
<path id="Vector_10" d="M48.9991 31.25H46.1582V34.0909H48.9991V31.25Z" fill="white"/>
<path id="Vector_11" d="M48.9991 34.0908H46.1582V36.9317H48.9991V34.0908Z" fill="white"/>
<path id="Vector_12" d="M48.9991 36.9316H46.1582V39.7725H48.9991V36.9316Z" fill="white"/>
<path id="Vector_13" d="M48.9991 39.7725H46.1582V42.6134H48.9991V39.7725Z" fill="white"/>
<path id="Vector_14" d="M48.9991 42.6133H46.1582V45.4542H48.9991V42.6133Z" fill="white"/>
<path id="Vector_15" d="M12.0675 10.2275H9.22656V13.0684H12.0675V10.2275Z" fill="white"/>
<path id="Vector_16" d="M12.0675 13.0684H9.22656V15.9093H12.0675V13.0684Z" fill="white"/>
<path id="Vector_17" d="M12.0675 15.9092H9.22656V18.7501H12.0675V15.9092Z" fill="white"/>
<path id="Vector_18" d="M12.0675 18.75H9.22656V21.5909H12.0675V18.75Z" fill="white"/>
<path id="Vector_19" d="M12.0675 21.5908H9.22656V24.4317H12.0675V21.5908Z" fill="white"/>
<path id="Vector_20" d="M12.0675 24.4316H9.22656V27.2726H12.0675V24.4316Z" fill="white"/>
<path id="Vector_21" d="M12.0675 27.2725H9.22656V30.1134H12.0675V27.2725Z" fill="white"/>
<path id="Vector_22" d="M12.0675 30.1133H9.22656V32.9542H12.0675V30.1133Z" fill="white"/>
<path id="Vector_23" d="M12.0675 32.9541H9.22656V35.795H12.0675V32.9541Z" fill="white"/>
<path id="Vector_24" d="M22.295 17.6133H19.4541V20.4542H22.295V17.6133Z" fill="white"/>
<path id="Vector_25" d="M25.1358 17.6133H22.2949V20.4542H25.1358V17.6133Z" fill="white"/>
<path id="Vector_26" d="M25.1358 20.4541H22.2949V23.295H25.1358V20.4541Z" fill="white"/>
<path id="Vector_27" d="M25.1358 23.2959H22.2949V26.1368H25.1358V23.2959Z" fill="white"/>
<path id="Vector_28" d="M30.8175 23.2959H27.9766V26.1368H30.8175V23.2959Z" fill="white"/>
<path id="Vector_29" d="M27.9767 20.4541H25.1357V23.295H27.9767V20.4541Z" fill="white"/>
<path id="Vector_30" d="M27.9767 23.2959H25.1357V26.1368H27.9767V23.2959Z" fill="white"/>
<path id="Vector_31" d="M27.9767 26.1367H25.1357V28.9776H27.9767V26.1367Z" fill="white"/>
<path id="Vector_32" d="M30.8175 26.1367H27.9766V28.9776H30.8175V26.1367Z" fill="white"/>
<path id="Vector_33" d="M30.8175 28.9775H27.9766V31.8184H30.8175V28.9775Z" fill="white"/>
<path id="Vector_34" d="M33.6583 28.9775H30.8174V31.8184H33.6583V28.9775Z" fill="white"/>
<path id="Vector_35" d="M30.8175 31.8184H27.9766V34.6593H30.8175V31.8184Z" fill="white"/>
<path id="Vector_36" d="M33.6583 31.8184H30.8174V34.6593H33.6583V31.8184Z" fill="white"/>
<path id="Vector_37" d="M36.4991 34.6592H33.6582V37.5001H36.4991V34.6592Z" fill="white"/>
<path id="Vector_38" d="M36.4991 31.8184H33.6582V34.6593H36.4991V31.8184Z" fill="white"/>
<path id="Vector_39" d="M33.6583 34.6592H30.8174V37.5001H33.6583V34.6592Z" fill="white"/>
<path id="Vector_40" d="M19.4542 17.6133H16.6133V20.4542H19.4542V17.6133Z" fill="white"/>
<path id="Vector_41" d="M22.295 20.4541H19.4541V23.295H22.295V20.4541Z" fill="white"/>
<path id="Vector_42" d="M22.295 23.2959H19.4541V26.1368H22.295V23.2959Z" fill="white"/>
<path id="Vector_43" d="M22.295 26.1367H19.4541V28.9776H22.295V26.1367Z" fill="white"/>
<path id="Vector_44" d="M22.295 28.9775H19.4541V31.8184H22.295V28.9775Z" fill="white"/>
<path id="Vector_45" d="M22.295 31.8184H19.4541V34.6593H22.295V31.8184Z" fill="white"/>
<path id="Vector_46" d="M22.295 34.6592H19.4541V37.5001H22.295V34.6592Z" fill="white"/>
<path id="Vector_47" d="M22.295 37.5H19.4541V40.3409H22.295V37.5Z" fill="white"/>
<path id="Vector_48" d="M19.4542 38.6367H16.6133V41.4776H19.4542V38.6367Z" fill="white"/>
<path id="Vector_49" d="M25.1358 37.5H22.2949V40.3409H25.1358V37.5Z" fill="white"/>
<path id="Vector_50" d="M39.3409 17.6133H36.5V20.4542H39.3409V17.6133Z" fill="white"/>
<path id="Vector_51" d="M42.1817 16.4775H39.3408V19.3184H42.1817V16.4775Z" fill="white"/>
<path id="Vector_52" d="M36.4991 17.6133H33.6582V20.4542H36.4991V17.6133Z" fill="white"/>
<path id="Vector_53" d="M39.3409 20.4541H36.5V23.295H39.3409V20.4541Z" fill="white"/>
<path id="Vector_54" d="M39.3409 23.2959H36.5V26.1368H39.3409V23.2959Z" fill="white"/>
<path id="Vector_55" d="M39.3409 26.1367H36.5V28.9776H39.3409V26.1367Z" fill="white"/>
<path id="Vector_56" d="M39.3409 28.9775H36.5V31.8184H39.3409V28.9775Z" fill="white"/>
<path id="Vector_57" d="M39.3409 31.8184H36.5V34.6593H39.3409V31.8184Z" fill="white"/>
<path id="Vector_58" d="M39.3409 34.6592H36.5V37.5001H39.3409V34.6592Z" fill="white"/>
<path id="Vector_59" d="M39.3409 37.5H36.5V40.3409H39.3409V37.5Z" fill="white"/>
<path id="Vector_60" d="M36.4991 37.5H33.6582V40.3409H36.4991V37.5Z" fill="white"/>
<path id="Vector_61" d="M12.0675 35.7959H9.22656V38.6368H12.0675V35.7959Z" fill="white"/>
<path id="Vector_62" d="M12.0675 38.6367H9.22656V41.4776H12.0675V38.6367Z" fill="white"/>
<path id="Vector_63" d="M12.0675 41.4775H9.22656V44.3184H12.0675V41.4775Z" fill="white"/>
<path id="Vector_64" d="M12.0675 44.3184H9.22656V47.1593H12.0675V44.3184Z" fill="white"/>
<path id="Vector_65" d="M12.0675 47.1592H9.22656V50.0001H12.0675V47.1592Z" fill="white"/>
<path id="Vector_66" d="M46.1583 8.52246H43.3174V11.3634H46.1583V8.52246Z" fill="white"/>
<path id="Vector_67" d="M14.9083 10.2275H12.0674V13.0684H14.9083V10.2275Z" fill="white"/>
<path id="Vector_68" d="M37.6358 8.52246H34.7949V11.3634H37.6358V8.52246Z" fill="white"/>
<path id="Vector_69" d="M43.3175 8.52246H40.4766V11.3634H43.3175V8.52246Z" fill="white"/>
<path id="Vector_70" d="M23.4317 9.65918H20.5908V12.5001H23.4317V9.65918Z" fill="white"/>
<path id="Vector_71" d="M20.5909 9.65918H17.75V12.5001H20.5909V9.65918Z" fill="white"/>
<path id="Vector_72" d="M12.0675 1.13672H9.22656V3.97763H12.0675V1.13672Z" fill="white"/>
<path id="Vector_73" d="M9.22665 1.7041H6.38574V4.54501H9.22665V1.7041Z" fill="white"/>
<path id="Vector_74" d="M6.38583 1.7041H3.54492V4.54501H6.38583V1.7041Z" fill="white"/>
<path id="Vector_75" d="M17.7491 1.13672H14.9082V3.97763H17.7491V1.13672Z" fill="white"/>
<path id="Vector_76" d="M14.9083 1.13672H12.0674V3.97763H14.9083V1.13672Z" fill="white"/>
<path id="Vector_77" d="M20.5909 1.13672H17.75V3.97763H20.5909V1.13672Z" fill="white"/>
<path id="Vector_78" d="M26.2725 0.568359H23.4316V3.40927H26.2725V0.568359Z" fill="white"/>
<path id="Vector_79" d="M23.4317 0.568359H20.5908V3.40927H23.4317V0.568359Z" fill="white"/>
<path id="Vector_80" d="M29.1134 0.568359H26.2725V3.40927H29.1134V0.568359Z" fill="white"/>
<path id="Vector_81" d="M34.795 0H31.9541V2.84091H34.795V0Z" fill="white"/>
<path id="Vector_82" d="M40.4767 2.27246H37.6357V5.11337H40.4767V2.27246Z" fill="white"/>
<path id="Vector_83" d="M37.6358 2.27246H34.7949V5.11337H37.6358V2.27246Z" fill="white"/>
<path id="Vector_84" d="M43.3175 3.40918H40.4766V6.25009H43.3175V3.40918Z" fill="white"/>
<path id="Vector_85" d="M46.1583 5.68164H43.3174V8.52255H46.1583V5.68164Z" fill="white"/>
<path id="Vector_86" d="M9.22665 7.38672H6.38574V10.2276H9.22665V7.38672Z" fill="white"/>
<path id="Vector_87" d="M6.38583 7.38672H3.54492V10.2276H6.38583V7.38672Z" fill="white"/>
<path id="Vector_88" d="M6.38583 4.5459H3.54492V7.38681H6.38583V4.5459Z" fill="white"/>
<path id="Vector_89" d="M6.38583 10.2275H3.54492V13.0684H6.38583V10.2275Z" fill="white"/>
<path id="Vector_90" d="M3.54501 1.7041H0.704102V4.54501H3.54501V1.7041Z" fill="white"/>
<path id="Vector_91" d="M3.54501 7.38672H0.704102V10.2276H3.54501V7.38672Z" fill="white"/>
<path id="Vector_92" d="M3.54501 4.5459H0.704102V7.38681H3.54501V4.5459Z" fill="white"/>
<path id="Vector_93" d="M3.54501 10.2275H0.704102V13.0684H3.54501V10.2275Z" fill="white"/>
<path id="Vector_94" d="M3.54501 13.0684H0.704102V15.9093H3.54501V13.0684Z" fill="white"/>
<path id="Vector_95" d="M3.54501 18.75H0.704102V21.5909H3.54501V18.75Z" fill="white"/>
<path id="Vector_96" d="M3.54501 15.9092H0.704102V18.7501H3.54501V15.9092Z" fill="white"/>
<path id="Vector_97" d="M3.54501 21.5908H0.704102V24.4317H3.54501V21.5908Z" fill="white"/>
<path id="Vector_98" d="M3.54501 24.4316H0.704102V27.2726H3.54501V24.4316Z" fill="white"/>
<path id="Vector_99" d="M3.54501 30.1133H0.704102V32.9542H3.54501V30.1133Z" fill="white"/>
<path id="Vector_100" d="M3.54501 27.2725H0.704102V30.1134H3.54501V27.2725Z" fill="white"/>
<path id="Vector_101" d="M3.54501 32.9541H0.704102V35.795H3.54501V32.9541Z" fill="white"/>
<path id="Vector_102" d="M3.54501 35.7959H0.704102V38.6368H3.54501V35.7959Z" fill="white"/>
<path id="Vector_103" d="M3.54501 38.6367H0.704102V41.4776H3.54501V38.6367Z" fill="white"/>
<path id="Vector_104" d="M6.38583 15.9092H3.54492V18.7501H6.38583V15.9092Z" fill="white"/>
<path id="Vector_105" d="M6.38583 13.0684H3.54492V15.9093H6.38583V13.0684Z" fill="white"/>
<path id="Vector_106" d="M9.22665 10.2275H6.38574V13.0684H9.22665V10.2275Z" fill="white"/>
<path id="Vector_107" d="M9.22665 15.9092H6.38574V18.7501H9.22665V15.9092Z" fill="white"/>
<path id="Vector_108" d="M9.22665 13.0684H6.38574V15.9093H9.22665V13.0684Z" fill="white"/>
<path id="Vector_109" d="M9.22665 18.75H6.38574V21.5909H9.22665V18.75Z" fill="white"/>
<path id="Vector_110" d="M9.22665 24.4316H6.38574V27.2726H9.22665V24.4316Z" fill="white"/>
<path id="Vector_111" d="M9.22665 21.5908H6.38574V24.4317H9.22665V21.5908Z" fill="white"/>
<path id="Vector_112" d="M6.38583 18.75H3.54492V21.5909H6.38583V18.75Z" fill="white"/>
<path id="Vector_113" d="M6.38583 24.4316H3.54492V27.2726H6.38583V24.4316Z" fill="white"/>
<path id="Vector_114" d="M6.38583 21.5908H3.54492V24.4317H6.38583V21.5908Z" fill="white"/>
<path id="Vector_115" d="M6.38583 27.2725H3.54492V30.1134H6.38583V27.2725Z" fill="white"/>
<path id="Vector_116" d="M6.38583 32.9541H3.54492V35.795H6.38583V32.9541Z" fill="white"/>
<path id="Vector_117" d="M6.38583 35.7959H3.54492V38.6368H6.38583V35.7959Z" fill="white"/>
<path id="Vector_118" d="M6.38583 38.6367H3.54492V41.4776H6.38583V38.6367Z" fill="white"/>
<path id="Vector_119" d="M6.38583 41.4775H3.54492V44.3184H6.38583V41.4775Z" fill="white"/>
<path id="Vector_120" d="M6.38583 30.1133H3.54492V32.9542H6.38583V30.1133Z" fill="white"/>
<path id="Vector_121" d="M9.22665 27.2725H6.38574V30.1134H9.22665V27.2725Z" fill="white"/>
<path id="Vector_122" d="M9.22665 32.9541H6.38574V35.795H9.22665V32.9541Z" fill="white"/>
<path id="Vector_123" d="M9.22665 30.1133H6.38574V32.9542H9.22665V30.1133Z" fill="white"/>
<path id="Vector_124" d="M9.22665 35.7959H6.38574V38.6368H9.22665V35.7959Z" fill="white"/>
<path id="Vector_125" d="M9.22665 41.4775H6.38574V44.3184H9.22665V41.4775Z" fill="white"/>
<path id="Vector_126" d="M9.22665 44.3184H6.38574V47.1593H9.22665V44.3184Z" fill="white"/>
<path id="Vector_127" d="M9.22665 38.6367H6.38574V41.4776H9.22665V38.6367Z" fill="white"/>
<path id="Vector_128" d="M31.9542 0H29.1133V2.84091H31.9542V0Z" fill="white"/>
<path id="Vector_129" d="M34.795 9.09082H31.9541V11.9317H34.795V9.09082Z" fill="white"/>
<path id="Vector_130" d="M31.9542 9.09082H29.1133V11.9317H31.9542V9.09082Z" fill="white"/>
<path id="Vector_131" d="M26.2725 9.09082H23.4316V11.9317H26.2725V9.09082Z" fill="white"/>
<path id="Vector_132" d="M29.1134 9.09082H26.2725V11.9317H29.1134V9.09082Z" fill="white"/>
<path id="Vector_133" d="M40.4767 8.52246H37.6357V11.3634H40.4767V8.52246Z" fill="white"/>
<path id="Vector_134" d="M17.7491 46.5908H14.9082V49.4317H17.7491V46.5908Z" fill="white"/>
<path id="Vector_135" d="M46.1583 45.4541H43.3174V48.295H46.1583V45.4541Z" fill="white"/>
<path id="Vector_136" d="M14.9083 47.1592H12.0674V50.0001H14.9083V47.1592Z" fill="white"/>
<path id="Vector_137" d="M37.6358 45.4541H34.7949V48.295H37.6358V45.4541Z" fill="white"/>
<path id="Vector_138" d="M43.3175 45.4541H40.4766V48.295H43.3175V45.4541Z" fill="white"/>
<path id="Vector_139" d="M23.4317 46.5908H20.5908V49.4317H23.4317V46.5908Z" fill="white"/>
<path id="Vector_140" d="M20.5909 46.5908H17.75V49.4317H20.5909V46.5908Z" fill="white"/>
<path id="Vector_141" d="M34.795 46.0225H31.9541V48.8634H34.795V46.0225Z" fill="white"/>
<path id="Vector_142" d="M31.9542 46.0225H29.1133V48.8634H31.9542V46.0225Z" fill="white"/>
<path id="Vector_143" d="M26.2725 46.0225H23.4316V48.8634H26.2725V46.0225Z" fill="white"/>
<path id="Vector_144" d="M29.1134 46.0225H26.2725V48.8634H29.1134V46.0225Z" fill="white"/>
<path id="Vector_145" d="M40.4767 45.4541H37.6357V48.295H40.4767V45.4541Z" fill="white"/>
</g>
</svg>
