<svg width="50" height="50" viewBox="0 0 50 50" fill="none" xmlns="http://www.w3.org/2000/svg">
<g id="pixel_white &#34;github&#34;">
<path id="Vector" d="M15.625 0H12.5V3.125H15.625V0Z" fill="white"/>
<path id="Vector_2" d="M18.75 0H15.625V3.125H18.75V0Z" fill="white"/>
<path id="Vector_3" d="M21.875 0H18.75V3.125H21.875V0Z" fill="white"/>
<path id="Vector_4" d="M25 0H21.875V3.125H25V0Z" fill="white"/>
<path id="Vector_5" d="M28.125 0H25V3.125H28.125V0Z" fill="white"/>
<path id="Vector_6" d="M31.25 0H28.125V3.125H31.25V0Z" fill="white"/>
<path id="Vector_7" d="M34.375 0H31.25V3.125H34.375V0Z" fill="white"/>
<path id="Vector_8" d="M37.5 0H34.375V3.125H37.5V0Z" fill="white"/>
<path id="Vector_9" d="M12.5 3.125H9.375V6.25H12.5V3.125Z" fill="white"/>
<path id="Vector_10" d="M15.625 3.125H12.5V6.25H15.625V3.125Z" fill="white"/>
<path id="Vector_11" d="M18.75 3.125H15.625V6.25H18.75V3.125Z" fill="white"/>
<path id="Vector_12" d="M21.875 3.125H18.75V6.25H21.875V3.125Z" fill="white"/>
<path id="Vector_13" d="M25 3.125H21.875V6.25H25V3.125Z" fill="white"/>
<path id="Vector_14" d="M28.125 3.125H25V6.25H28.125V3.125Z" fill="white"/>
<path id="Vector_15" d="M31.25 3.125H28.125V6.25H31.25V3.125Z" fill="white"/>
<path id="Vector_16" d="M34.375 3.125H31.25V6.25H34.375V3.125Z" fill="white"/>
<path id="Vector_17" d="M37.5 3.125H34.375V6.25H37.5V3.125Z" fill="white"/>
<path id="Vector_18" d="M40.625 3.125H37.5V6.25H40.625V3.125Z" fill="white"/>
<path id="Vector_19" d="M9.375 6.25H6.25V9.375H9.375V6.25Z" fill="white"/>
<path id="Vector_20" d="M12.5 6.25H9.375V9.375H12.5V6.25Z" fill="white"/>
<path id="Vector_21" d="M15.625 6.25H12.5V9.375H15.625V6.25Z" fill="white"/>
<path id="Vector_22" d="M18.75 6.25H15.625V9.375H18.75V6.25Z" fill="white"/>
<path id="Vector_23" d="M21.875 6.25H18.75V9.375H21.875V6.25Z" fill="white"/>
<path id="Vector_24" d="M25 6.25H21.875V9.375H25V6.25Z" fill="white"/>
<path id="Vector_25" d="M28.125 6.25H25V9.375H28.125V6.25Z" fill="white"/>
<path id="Vector_26" d="M31.25 6.25H28.125V9.375H31.25V6.25Z" fill="white"/>
<path id="Vector_27" d="M34.375 6.25H31.25V9.375H34.375V6.25Z" fill="white"/>
<path id="Vector_28" d="M37.5 6.25H34.375V9.375H37.5V6.25Z" fill="white"/>
<path id="Vector_29" d="M40.625 6.25H37.5V9.375H40.625V6.25Z" fill="white"/>
<path id="Vector_30" d="M43.75 6.25H40.625V9.375H43.75V6.25Z" fill="white"/>
<path id="Vector_31" d="M6.25 9.375H3.125V12.5H6.25V9.375Z" fill="white"/>
<path id="Vector_32" d="M9.375 9.375H6.25V12.5H9.375V9.375Z" fill="white"/>
<path id="Vector_33" d="M12.5 9.375H9.375V12.5H12.5V9.375Z" fill="white"/>
<path id="Vector_34" d="M18.75 9.375H15.625V12.5H18.75V9.375Z" fill="white"/>
<path id="Vector_35" d="M21.875 9.375H18.75V12.5H21.875V9.375Z" fill="white"/>
<path id="Vector_36" d="M25 9.375H21.875V12.5H25V9.375Z" fill="white"/>
<path id="Vector_37" d="M28.125 9.375H25V12.5H28.125V9.375Z" fill="white"/>
<path id="Vector_38" d="M31.25 9.375H28.125V12.5H31.25V9.375Z" fill="white"/>
<path id="Vector_39" d="M34.375 9.375H31.25V12.5H34.375V9.375Z" fill="white"/>
<path id="Vector_40" d="M40.625 9.375H37.5V12.5H40.625V9.375Z" fill="white"/>
<path id="Vector_41" d="M43.75 9.375H40.625V12.5H43.75V9.375Z" fill="white"/>
<path id="Vector_42" d="M46.875 9.375H43.75V12.5H46.875V9.375Z" fill="white"/>
<path id="Vector_43" d="M6.25 12.5H3.125V15.625H6.25V12.5Z" fill="white"/>
<path id="Vector_44" d="M9.375 12.5H6.25V15.625H9.375V12.5Z" fill="white"/>
<path id="Vector_45" d="M12.5 12.5H9.375V15.625H12.5V12.5Z" fill="white"/>
<path id="Vector_46" d="M40.625 12.5H37.5V15.625H40.625V12.5Z" fill="white"/>
<path id="Vector_47" d="M43.75 12.5H40.625V15.625H43.75V12.5Z" fill="white"/>
<path id="Vector_48" d="M46.875 12.5H43.75V15.625H46.875V12.5Z" fill="white"/>
<path id="Vector_49" d="M6.25 15.625H3.125V18.75H6.25V15.625Z" fill="white"/>
<path id="Vector_50" d="M9.375 15.625H6.25V18.75H9.375V15.625Z" fill="white"/>
<path id="Vector_51" d="M12.5 15.625H9.375V18.75H12.5V15.625Z" fill="white"/>
<path id="Vector_52" d="M40.625 15.625H37.5V18.75H40.625V15.625Z" fill="white"/>
<path id="Vector_53" d="M43.75 15.625H40.625V18.75H43.75V15.625Z" fill="white"/>
<path id="Vector_54" d="M46.875 15.625H43.75V18.75H46.875V15.625Z" fill="white"/>
<path id="Vector_55" d="M3.125 18.75H0V21.875H3.125V18.75Z" fill="white"/>
<path id="Vector_56" d="M6.25 18.75H3.125V21.875H6.25V18.75Z" fill="white"/>
<path id="Vector_57" d="M9.375 18.75H6.25V21.875H9.375V18.75Z" fill="white"/>
<path id="Vector_58" d="M43.75 18.75H40.625V21.875H43.75V18.75Z" fill="white"/>
<path id="Vector_59" d="M46.875 18.75H43.75V21.875H46.875V18.75Z" fill="white"/>
<path id="Vector_60" d="M50 18.75H46.875V21.875H50V18.75Z" fill="white"/>
<path id="Vector_61" d="M3.125 21.875H0V25H3.125V21.875Z" fill="white"/>
<path id="Vector_62" d="M6.25 21.875H3.125V25H6.25V21.875Z" fill="white"/>
<path id="Vector_63" d="M9.375 21.875H6.25V25H9.375V21.875Z" fill="white"/>
<path id="Vector_64" d="M43.75 21.875H40.625V25H43.75V21.875Z" fill="white"/>
<path id="Vector_65" d="M46.875 21.875H43.75V25H46.875V21.875Z" fill="white"/>
<path id="Vector_66" d="M50 21.875H46.875V25H50V21.875Z" fill="white"/>
<path id="Vector_67" d="M3.125 25H0V28.125H3.125V25Z" fill="white"/>
<path id="Vector_68" d="M6.25 25H3.125V28.125H6.25V25Z" fill="white"/>
<path id="Vector_69" d="M9.375 25H6.25V28.125H9.375V25Z" fill="white"/>
<path id="Vector_70" d="M43.75 25H40.625V28.125H43.75V25Z" fill="white"/>
<path id="Vector_71" d="M46.875 25H43.75V28.125H46.875V25Z" fill="white"/>
<path id="Vector_72" d="M50 25H46.875V28.125H50V25Z" fill="white"/>
<path id="Vector_73" d="M3.125 28.125H0V31.25H3.125V28.125Z" fill="white"/>
<path id="Vector_74" d="M6.25 28.125H3.125V31.25H6.25V28.125Z" fill="white"/>
<path id="Vector_75" d="M9.375 28.125H6.25V31.25H9.375V28.125Z" fill="white"/>
<path id="Vector_76" d="M43.75 28.125H40.625V31.25H43.75V28.125Z" fill="white"/>
<path id="Vector_77" d="M46.875 28.125H43.75V31.25H46.875V28.125Z" fill="white"/>
<path id="Vector_78" d="M50 28.125H46.875V31.25H50V28.125Z" fill="white"/>
<path id="Vector_79" d="M3.125 31.25H0V34.375H3.125V31.25Z" fill="white"/>
<path id="Vector_80" d="M6.25 31.25H3.125V34.375H6.25V31.25Z" fill="white"/>
<path id="Vector_81" d="M9.375 31.25H6.25V34.375H9.375V31.25Z" fill="white"/>
<path id="Vector_82" d="M12.5 31.25H9.375V34.375H12.5V31.25Z" fill="white"/>
<path id="Vector_83" d="M40.625 31.25H37.5V34.375H40.625V31.25Z" fill="white"/>
<path id="Vector_84" d="M43.75 31.25H40.625V34.375H43.75V31.25Z" fill="white"/>
<path id="Vector_85" d="M46.875 31.25H43.75V34.375H46.875V31.25Z" fill="white"/>
<path id="Vector_86" d="M50 31.25H46.875V34.375H50V31.25Z" fill="white"/>
<path id="Vector_87" d="M6.25 34.375H3.125V37.5H6.25V34.375Z" fill="white"/>
<path id="Vector_88" d="M9.375 34.375H6.25V37.5H9.375V34.375Z" fill="white"/>
<path id="Vector_89" d="M12.5 34.375H9.375V37.5H12.5V34.375Z" fill="white"/>
<path id="Vector_90" d="M15.625 34.375H12.5V37.5H15.625V34.375Z" fill="white"/>
<path id="Vector_91" d="M37.5 34.375H34.375V37.5H37.5V34.375Z" fill="white"/>
<path id="Vector_92" d="M40.625 34.375H37.5V37.5H40.625V34.375Z" fill="white"/>
<path id="Vector_93" d="M43.75 34.375H40.625V37.5H43.75V34.375Z" fill="white"/>
<path id="Vector_94" d="M46.875 34.375H43.75V37.5H46.875V34.375Z" fill="white"/>
<path id="Vector_95" d="M6.25 37.5H3.125V40.625H6.25V37.5Z" fill="white"/>
<path id="Vector_96" d="M9.375 37.5H6.25V40.625H9.375V37.5Z" fill="white"/>
<path id="Vector_97" d="M15.625 37.5H12.5V40.625H15.625V37.5Z" fill="white"/>
<path id="Vector_98" d="M18.75 37.5H15.625V40.625H18.75V37.5Z" fill="white"/>
<path id="Vector_99" d="M21.875 37.5H18.75V40.625H21.875V37.5Z" fill="white"/>
<path id="Vector_100" d="M31.25 37.5H28.125V40.625H31.25V37.5Z" fill="white"/>
<path id="Vector_101" d="M34.375 37.5H31.25V40.625H34.375V37.5Z" fill="white"/>
<path id="Vector_102" d="M37.5 37.5H34.375V40.625H37.5V37.5Z" fill="white"/>
<path id="Vector_103" d="M40.625 37.5H37.5V40.625H40.625V37.5Z" fill="white"/>
<path id="Vector_104" d="M43.75 37.5H40.625V40.625H43.75V37.5Z" fill="white"/>
<path id="Vector_105" d="M46.875 37.5H43.75V40.625H46.875V37.5Z" fill="white"/>
<path id="Vector_106" d="M9.375 40.625H6.25V43.75H9.375V40.625Z" fill="white"/>
<path id="Vector_107" d="M12.5 40.625H9.375V43.75H12.5V40.625Z" fill="white"/>
<path id="Vector_108" d="M34.375 40.625H31.25V43.75H34.375V40.625Z" fill="white"/>
<path id="Vector_109" d="M37.5 40.625H34.375V43.75H37.5V40.625Z" fill="white"/>
<path id="Vector_110" d="M40.625 40.625H37.5V43.75H40.625V40.625Z" fill="white"/>
<path id="Vector_111" d="M43.75 40.625H40.625V43.75H43.75V40.625Z" fill="white"/>
<path id="Vector_112" d="M12.5 43.75H9.375V46.875H12.5V43.75Z" fill="white"/>
<path id="Vector_113" d="M15.625 43.75H12.5V46.875H15.625V43.75Z" fill="white"/>
<path id="Vector_114" d="M18.75 43.75H15.625V46.875H18.75V43.75Z" fill="white"/>
<path id="Vector_115" d="M34.375 43.75H31.25V46.875H34.375V43.75Z" fill="white"/>
<path id="Vector_116" d="M37.5 43.75H34.375V46.875H37.5V43.75Z" fill="white"/>
<path id="Vector_117" d="M40.625 43.75H37.5V46.875H40.625V43.75Z" fill="white"/>
<path id="Vector_118" d="M15.625 46.875H12.5V50H15.625V46.875Z" fill="white"/>
<path id="Vector_119" d="M18.75 46.875H15.625V50H18.75V46.875Z" fill="white"/>
<path id="Vector_120" d="M34.375 46.875H31.25V50H34.375V46.875Z" fill="white"/>
<path id="Vector_121" d="M37.5 46.875H34.375V50H37.5V46.875Z" fill="white"/>
</g>
</svg>
