<svg width="22" height="22" viewBox="0 0 22 22" fill="none" xmlns="http://www.w3.org/2000/svg">
<g id="Vector">
<mask id="path-1-outside-1_2024_2453" maskUnits="userSpaceOnUse" x="0" y="0" width="22" height="22" fill="black">
<rect fill="white" width="22" height="22"/>
<path fill-rule="evenodd" clip-rule="evenodd" d="M10.2345 5.5284L11.3971 4.36585C12.3329 3.42854 13.9765 2.77896 15.6084 2.545C16.3319 2.43228 17.0677 2.42249 17.794 2.51593C18.4378 2.61184 18.8316 2.80076 19.0147 2.98531C19.1992 3.16842 19.3882 3.56223 19.4841 4.206C19.5771 4.82651 19.5698 5.58653 19.455 6.3916C19.2225 8.02353 18.5715 9.66709 17.6342 10.603L11.1733 17.0653L9.5079 15.3999C9.44044 15.3324 9.36033 15.2788 9.27216 15.2422C9.18398 15.2056 9.08945 15.1867 8.99398 15.1866C8.89851 15.1866 8.80396 15.2053 8.71573 15.2418C8.6275 15.2783 8.54732 15.3318 8.47977 15.3992C8.34333 15.5355 8.26661 15.7203 8.26647 15.9131C8.2664 16.0086 8.28514 16.1032 8.32161 16.1914C8.35809 16.2796 8.41158 16.3598 8.47904 16.4273L10.6588 18.6071C10.7263 18.6748 10.8065 18.7285 10.8948 18.7651C10.9831 18.8017 11.0777 18.8206 11.1733 18.8206C11.2688 18.8206 11.3635 18.8017 11.4517 18.7651C11.54 18.7285 11.6202 18.6748 11.6877 18.6071L12.4826 17.8108L14.1828 20.646C14.2395 20.7409 14.3171 20.8216 14.4098 20.882C14.5024 20.9424 14.6076 20.9809 14.7173 20.9945C14.827 21.0081 14.9384 20.9965 15.043 20.9605C15.1476 20.9245 15.2425 20.8652 15.3207 20.7869L18.2271 17.8805C18.3069 17.8006 18.3669 17.7032 18.4025 17.596C18.4381 17.4887 18.4482 17.3747 18.432 17.2629L17.7562 12.5371L18.663 11.6318C19.9055 10.3879 20.6365 8.39846 20.8937 6.5965C21.0245 5.68535 21.039 4.78001 20.9213 3.98947C20.805 3.22218 20.5493 2.46362 20.0436 1.95645C19.5364 1.45074 18.7778 1.19353 18.0091 1.07872C17.1436 0.964785 16.2663 0.974571 15.4035 1.10779C13.6001 1.3621 11.6092 2.09305 10.3682 3.33553L9.46285 4.24233L4.73707 3.56659C4.62528 3.55039 4.51125 3.56047 4.40404 3.59604C4.29683 3.63161 4.19939 3.69168 4.11946 3.77149L1.21307 6.67788C1.13485 6.75603 1.07549 6.851 1.03952 6.95556C1.00355 7.06012 0.991918 7.17151 1.00551 7.28125C1.01911 7.39098 1.05757 7.49617 1.11796 7.58879C1.17836 7.68141 1.2591 7.75903 1.35403 7.81573L4.18776 9.51596L3.39286 10.3109C3.3252 10.3784 3.27151 10.4585 3.23488 10.5468C3.19825 10.6351 3.1794 10.7297 3.1794 10.8253C3.1794 10.9209 3.19825 11.0155 3.23488 11.1038C3.27151 11.192 3.3252 11.2722 3.39286 11.3397L5.57265 13.5195C5.64021 13.5871 5.72041 13.6407 5.80868 13.6772C5.89694 13.7138 5.99154 13.7326 6.08708 13.7326C6.18262 13.7326 6.27723 13.7138 6.36549 13.6772C6.45376 13.6407 6.53396 13.5871 6.60151 13.5195C6.66907 13.452 6.72266 13.3718 6.75922 13.2835C6.79578 13.1952 6.8146 13.1006 6.8146 13.0051C6.8146 12.9095 6.79578 12.8149 6.75922 12.7267C6.72266 12.6384 6.66907 12.5582 6.60151 12.4906L4.9347 10.8267L5.87492 9.88798L10.2345 5.5284ZM14.9501 19.1012L13.5405 16.7514L16.4716 13.8218L16.9424 17.1089L14.9501 19.1012ZM5.24859 8.45804L8.17823 5.5284L4.89111 5.05757L2.90023 7.04844L5.24859 8.45804ZM3.69367 14.9742C3.76123 14.9067 3.81484 14.8266 3.85144 14.7384C3.88803 14.6502 3.9069 14.5557 3.90697 14.4602C3.90704 14.3648 3.8883 14.2702 3.85183 14.182C3.81536 14.0938 3.76186 14.0136 3.6944 13.946C3.62694 13.8785 3.54683 13.8249 3.45866 13.7883C3.37048 13.7517 3.27596 13.7328 3.18048 13.7327C3.08501 13.7327 2.99046 13.7514 2.90223 13.7879C2.814 13.8243 2.73382 13.8778 2.66627 13.9453L1.21307 15.3985C1.07683 15.5349 1.00037 15.7199 1.0005 15.9127C1.00064 16.1055 1.07737 16.2904 1.2138 16.4266C1.35024 16.5629 1.53521 16.6393 1.72802 16.6392C1.92083 16.6391 2.10569 16.5623 2.24193 16.4259L3.69367 14.9742ZM5.87346 17.1539C5.94286 17.0869 5.99822 17.0067 6.0363 16.9181C6.07438 16.8294 6.09442 16.7341 6.09526 16.6376C6.0961 16.5411 6.07771 16.4455 6.04118 16.3562C6.00464 16.2669 5.95069 16.1858 5.88247 16.1175C5.81425 16.0493 5.73312 15.9954 5.64383 15.9588C5.55453 15.9223 5.45885 15.9039 5.36238 15.9047C5.2659 15.9056 5.17055 15.9256 5.08191 15.9637C4.99326 16.0018 4.91308 16.0571 4.84606 16.1265L1.93967 19.0329C1.80343 19.1694 1.72696 19.3543 1.7271 19.5471C1.72724 19.74 1.80396 19.9248 1.9404 20.0611C2.07683 20.1973 2.2618 20.2738 2.45461 20.2736C2.64743 20.2735 2.83229 20.1968 2.96853 20.0603L5.87346 17.1539ZM8.05325 19.3337C8.12081 19.2663 8.17442 19.1862 8.21101 19.098C8.24761 19.0098 8.26648 18.9153 8.26655 18.8198C8.26662 18.7243 8.24788 18.6298 8.21141 18.5416C8.17493 18.4533 8.12144 18.3732 8.05398 18.3056C7.98652 18.238 7.90641 18.1844 7.81824 18.1478C7.73006 18.1112 7.63553 18.0924 7.54006 18.0923C7.44459 18.0922 7.35004 18.111 7.26181 18.1474C7.17358 18.1839 7.0934 18.2374 7.02585 18.3049L5.57265 19.7581C5.43641 19.8945 5.35995 20.0795 5.36008 20.2723C5.36022 20.4651 5.43694 20.65 5.57338 20.7862C5.70982 20.9224 5.89478 20.9989 6.0876 20.9988C6.28041 20.9986 6.46527 20.9219 6.60151 20.7855L8.05325 19.3337ZM14.0796 9.73539C14.318 9.73539 14.554 9.68845 14.7742 9.59723C14.9944 9.50602 15.1945 9.37232 15.3631 9.20378C15.5316 9.03524 15.6653 8.83515 15.7565 8.61494C15.8477 8.39473 15.8947 8.15871 15.8947 7.92036C15.8947 7.682 15.8477 7.44598 15.7565 7.22577C15.6653 7.00556 15.5316 6.80547 15.3631 6.63693C15.1945 6.46839 14.9944 6.33469 14.7742 6.24348C14.554 6.15227 14.318 6.10532 14.0796 6.10532C13.5983 6.10532 13.1366 6.29655 12.7962 6.63693C12.4558 6.97732 12.2646 7.43898 12.2646 7.92036C12.2646 8.40173 12.4558 8.8634 12.7962 9.20378C13.1366 9.54417 13.5983 9.73539 14.0796 9.73539Z"/>
</mask>
<path fill-rule="evenodd" clip-rule="evenodd" d="M10.2345 5.5284L11.3971 4.36585C12.3329 3.42854 13.9765 2.77896 15.6084 2.545C16.3319 2.43228 17.0677 2.42249 17.794 2.51593C18.4378 2.61184 18.8316 2.80076 19.0147 2.98531C19.1992 3.16842 19.3882 3.56223 19.4841 4.206C19.5771 4.82651 19.5698 5.58653 19.455 6.3916C19.2225 8.02353 18.5715 9.66709 17.6342 10.603L11.1733 17.0653L9.5079 15.3999C9.44044 15.3324 9.36033 15.2788 9.27216 15.2422C9.18398 15.2056 9.08945 15.1867 8.99398 15.1866C8.89851 15.1866 8.80396 15.2053 8.71573 15.2418C8.6275 15.2783 8.54732 15.3318 8.47977 15.3992C8.34333 15.5355 8.26661 15.7203 8.26647 15.9131C8.2664 16.0086 8.28514 16.1032 8.32161 16.1914C8.35809 16.2796 8.41158 16.3598 8.47904 16.4273L10.6588 18.6071C10.7263 18.6748 10.8065 18.7285 10.8948 18.7651C10.9831 18.8017 11.0777 18.8206 11.1733 18.8206C11.2688 18.8206 11.3635 18.8017 11.4517 18.7651C11.54 18.7285 11.6202 18.6748 11.6877 18.6071L12.4826 17.8108L14.1828 20.646C14.2395 20.7409 14.3171 20.8216 14.4098 20.882C14.5024 20.9424 14.6076 20.9809 14.7173 20.9945C14.827 21.0081 14.9384 20.9965 15.043 20.9605C15.1476 20.9245 15.2425 20.8652 15.3207 20.7869L18.2271 17.8805C18.3069 17.8006 18.3669 17.7032 18.4025 17.596C18.4381 17.4887 18.4482 17.3747 18.432 17.2629L17.7562 12.5371L18.663 11.6318C19.9055 10.3879 20.6365 8.39846 20.8937 6.5965C21.0245 5.68535 21.039 4.78001 20.9213 3.98947C20.805 3.22218 20.5493 2.46362 20.0436 1.95645C19.5364 1.45074 18.7778 1.19353 18.0091 1.07872C17.1436 0.964785 16.2663 0.974571 15.4035 1.10779C13.6001 1.3621 11.6092 2.09305 10.3682 3.33553L9.46285 4.24233L4.73707 3.56659C4.62528 3.55039 4.51125 3.56047 4.40404 3.59604C4.29683 3.63161 4.19939 3.69168 4.11946 3.77149L1.21307 6.67788C1.13485 6.75603 1.07549 6.851 1.03952 6.95556C1.00355 7.06012 0.991918 7.17151 1.00551 7.28125C1.01911 7.39098 1.05757 7.49617 1.11796 7.58879C1.17836 7.68141 1.2591 7.75903 1.35403 7.81573L4.18776 9.51596L3.39286 10.3109C3.3252 10.3784 3.27151 10.4585 3.23488 10.5468C3.19825 10.6351 3.1794 10.7297 3.1794 10.8253C3.1794 10.9209 3.19825 11.0155 3.23488 11.1038C3.27151 11.192 3.3252 11.2722 3.39286 11.3397L5.57265 13.5195C5.64021 13.5871 5.72041 13.6407 5.80868 13.6772C5.89694 13.7138 5.99154 13.7326 6.08708 13.7326C6.18262 13.7326 6.27723 13.7138 6.36549 13.6772C6.45376 13.6407 6.53396 13.5871 6.60151 13.5195C6.66907 13.452 6.72266 13.3718 6.75922 13.2835C6.79578 13.1952 6.8146 13.1006 6.8146 13.0051C6.8146 12.9095 6.79578 12.8149 6.75922 12.7267C6.72266 12.6384 6.66907 12.5582 6.60151 12.4906L4.9347 10.8267L5.87492 9.88798L10.2345 5.5284ZM14.9501 19.1012L13.5405 16.7514L16.4716 13.8218L16.9424 17.1089L14.9501 19.1012ZM5.24859 8.45804L8.17823 5.5284L4.89111 5.05757L2.90023 7.04844L5.24859 8.45804ZM3.69367 14.9742C3.76123 14.9067 3.81484 14.8266 3.85144 14.7384C3.88803 14.6502 3.9069 14.5557 3.90697 14.4602C3.90704 14.3648 3.8883 14.2702 3.85183 14.182C3.81536 14.0938 3.76186 14.0136 3.6944 13.946C3.62694 13.8785 3.54683 13.8249 3.45866 13.7883C3.37048 13.7517 3.27596 13.7328 3.18048 13.7327C3.08501 13.7327 2.99046 13.7514 2.90223 13.7879C2.814 13.8243 2.73382 13.8778 2.66627 13.9453L1.21307 15.3985C1.07683 15.5349 1.00037 15.7199 1.0005 15.9127C1.00064 16.1055 1.07737 16.2904 1.2138 16.4266C1.35024 16.5629 1.53521 16.6393 1.72802 16.6392C1.92083 16.6391 2.10569 16.5623 2.24193 16.4259L3.69367 14.9742ZM5.87346 17.1539C5.94286 17.0869 5.99822 17.0067 6.0363 16.9181C6.07438 16.8294 6.09442 16.7341 6.09526 16.6376C6.0961 16.5411 6.07771 16.4455 6.04118 16.3562C6.00464 16.2669 5.95069 16.1858 5.88247 16.1175C5.81425 16.0493 5.73312 15.9954 5.64383 15.9588C5.55453 15.9223 5.45885 15.9039 5.36238 15.9047C5.2659 15.9056 5.17055 15.9256 5.08191 15.9637C4.99326 16.0018 4.91308 16.0571 4.84606 16.1265L1.93967 19.0329C1.80343 19.1694 1.72696 19.3543 1.7271 19.5471C1.72724 19.74 1.80396 19.9248 1.9404 20.0611C2.07683 20.1973 2.2618 20.2738 2.45461 20.2736C2.64743 20.2735 2.83229 20.1968 2.96853 20.0603L5.87346 17.1539ZM8.05325 19.3337C8.12081 19.2663 8.17442 19.1862 8.21101 19.098C8.24761 19.0098 8.26648 18.9153 8.26655 18.8198C8.26662 18.7243 8.24788 18.6298 8.21141 18.5416C8.17493 18.4533 8.12144 18.3732 8.05398 18.3056C7.98652 18.238 7.90641 18.1844 7.81824 18.1478C7.73006 18.1112 7.63553 18.0924 7.54006 18.0923C7.44459 18.0922 7.35004 18.111 7.26181 18.1474C7.17358 18.1839 7.0934 18.2374 7.02585 18.3049L5.57265 19.7581C5.43641 19.8945 5.35995 20.0795 5.36008 20.2723C5.36022 20.4651 5.43694 20.65 5.57338 20.7862C5.70982 20.9224 5.89478 20.9989 6.0876 20.9988C6.28041 20.9986 6.46527 20.9219 6.60151 20.7855L8.05325 19.3337ZM14.0796 9.73539C14.318 9.73539 14.554 9.68845 14.7742 9.59723C14.9944 9.50602 15.1945 9.37232 15.3631 9.20378C15.5316 9.03524 15.6653 8.83515 15.7565 8.61494C15.8477 8.39473 15.8947 8.15871 15.8947 7.92036C15.8947 7.682 15.8477 7.44598 15.7565 7.22577C15.6653 7.00556 15.5316 6.80547 15.3631 6.63693C15.1945 6.46839 14.9944 6.33469 14.7742 6.24348C14.554 6.15227 14.318 6.10532 14.0796 6.10532C13.5983 6.10532 13.1366 6.29655 12.7962 6.63693C12.4558 6.97732 12.2646 7.43898 12.2646 7.92036C12.2646 8.40173 12.4558 8.8634 12.7962 9.20378C13.1366 9.54417 13.5983 9.73539 14.0796 9.73539Z" fill="#808AFF"/>
<path fill-rule="evenodd" clip-rule="evenodd" d="M10.2345 5.5284L11.3971 4.36585C12.3329 3.42854 13.9765 2.77896 15.6084 2.545C16.3319 2.43228 17.0677 2.42249 17.794 2.51593C18.4378 2.61184 18.8316 2.80076 19.0147 2.98531C19.1992 3.16842 19.3882 3.56223 19.4841 4.206C19.5771 4.82651 19.5698 5.58653 19.455 6.3916C19.2225 8.02353 18.5715 9.66709 17.6342 10.603L11.1733 17.0653L9.5079 15.3999C9.44044 15.3324 9.36033 15.2788 9.27216 15.2422C9.18398 15.2056 9.08945 15.1867 8.99398 15.1866C8.89851 15.1866 8.80396 15.2053 8.71573 15.2418C8.6275 15.2783 8.54732 15.3318 8.47977 15.3992C8.34333 15.5355 8.26661 15.7203 8.26647 15.9131C8.2664 16.0086 8.28514 16.1032 8.32161 16.1914C8.35809 16.2796 8.41158 16.3598 8.47904 16.4273L10.6588 18.6071C10.7263 18.6748 10.8065 18.7285 10.8948 18.7651C10.9831 18.8017 11.0777 18.8206 11.1733 18.8206C11.2688 18.8206 11.3635 18.8017 11.4517 18.7651C11.54 18.7285 11.6202 18.6748 11.6877 18.6071L12.4826 17.8108L14.1828 20.646C14.2395 20.7409 14.3171 20.8216 14.4098 20.882C14.5024 20.9424 14.6076 20.9809 14.7173 20.9945C14.827 21.0081 14.9384 20.9965 15.043 20.9605C15.1476 20.9245 15.2425 20.8652 15.3207 20.7869L18.2271 17.8805C18.3069 17.8006 18.3669 17.7032 18.4025 17.596C18.4381 17.4887 18.4482 17.3747 18.432 17.2629L17.7562 12.5371L18.663 11.6318C19.9055 10.3879 20.6365 8.39846 20.8937 6.5965C21.0245 5.68535 21.039 4.78001 20.9213 3.98947C20.805 3.22218 20.5493 2.46362 20.0436 1.95645C19.5364 1.45074 18.7778 1.19353 18.0091 1.07872C17.1436 0.964785 16.2663 0.974571 15.4035 1.10779C13.6001 1.3621 11.6092 2.09305 10.3682 3.33553L9.46285 4.24233L4.73707 3.56659C4.62528 3.55039 4.51125 3.56047 4.40404 3.59604C4.29683 3.63161 4.19939 3.69168 4.11946 3.77149L1.21307 6.67788C1.13485 6.75603 1.07549 6.851 1.03952 6.95556C1.00355 7.06012 0.991918 7.17151 1.00551 7.28125C1.01911 7.39098 1.05757 7.49617 1.11796 7.58879C1.17836 7.68141 1.2591 7.75903 1.35403 7.81573L4.18776 9.51596L3.39286 10.3109C3.3252 10.3784 3.27151 10.4585 3.23488 10.5468C3.19825 10.6351 3.1794 10.7297 3.1794 10.8253C3.1794 10.9209 3.19825 11.0155 3.23488 11.1038C3.27151 11.192 3.3252 11.2722 3.39286 11.3397L5.57265 13.5195C5.64021 13.5871 5.72041 13.6407 5.80868 13.6772C5.89694 13.7138 5.99154 13.7326 6.08708 13.7326C6.18262 13.7326 6.27723 13.7138 6.36549 13.6772C6.45376 13.6407 6.53396 13.5871 6.60151 13.5195C6.66907 13.452 6.72266 13.3718 6.75922 13.2835C6.79578 13.1952 6.8146 13.1006 6.8146 13.0051C6.8146 12.9095 6.79578 12.8149 6.75922 12.7267C6.72266 12.6384 6.66907 12.5582 6.60151 12.4906L4.9347 10.8267L5.87492 9.88798L10.2345 5.5284ZM14.9501 19.1012L13.5405 16.7514L16.4716 13.8218L16.9424 17.1089L14.9501 19.1012ZM5.24859 8.45804L8.17823 5.5284L4.89111 5.05757L2.90023 7.04844L5.24859 8.45804ZM3.69367 14.9742C3.76123 14.9067 3.81484 14.8266 3.85144 14.7384C3.88803 14.6502 3.9069 14.5557 3.90697 14.4602C3.90704 14.3648 3.8883 14.2702 3.85183 14.182C3.81536 14.0938 3.76186 14.0136 3.6944 13.946C3.62694 13.8785 3.54683 13.8249 3.45866 13.7883C3.37048 13.7517 3.27596 13.7328 3.18048 13.7327C3.08501 13.7327 2.99046 13.7514 2.90223 13.7879C2.814 13.8243 2.73382 13.8778 2.66627 13.9453L1.21307 15.3985C1.07683 15.5349 1.00037 15.7199 1.0005 15.9127C1.00064 16.1055 1.07737 16.2904 1.2138 16.4266C1.35024 16.5629 1.53521 16.6393 1.72802 16.6392C1.92083 16.6391 2.10569 16.5623 2.24193 16.4259L3.69367 14.9742ZM5.87346 17.1539C5.94286 17.0869 5.99822 17.0067 6.0363 16.9181C6.07438 16.8294 6.09442 16.7341 6.09526 16.6376C6.0961 16.5411 6.07771 16.4455 6.04118 16.3562C6.00464 16.2669 5.95069 16.1858 5.88247 16.1175C5.81425 16.0493 5.73312 15.9954 5.64383 15.9588C5.55453 15.9223 5.45885 15.9039 5.36238 15.9047C5.2659 15.9056 5.17055 15.9256 5.08191 15.9637C4.99326 16.0018 4.91308 16.0571 4.84606 16.1265L1.93967 19.0329C1.80343 19.1694 1.72696 19.3543 1.7271 19.5471C1.72724 19.74 1.80396 19.9248 1.9404 20.0611C2.07683 20.1973 2.2618 20.2738 2.45461 20.2736C2.64743 20.2735 2.83229 20.1968 2.96853 20.0603L5.87346 17.1539ZM8.05325 19.3337C8.12081 19.2663 8.17442 19.1862 8.21101 19.098C8.24761 19.0098 8.26648 18.9153 8.26655 18.8198C8.26662 18.7243 8.24788 18.6298 8.21141 18.5416C8.17493 18.4533 8.12144 18.3732 8.05398 18.3056C7.98652 18.238 7.90641 18.1844 7.81824 18.1478C7.73006 18.1112 7.63553 18.0924 7.54006 18.0923C7.44459 18.0922 7.35004 18.111 7.26181 18.1474C7.17358 18.1839 7.0934 18.2374 7.02585 18.3049L5.57265 19.7581C5.43641 19.8945 5.35995 20.0795 5.36008 20.2723C5.36022 20.4651 5.43694 20.65 5.57338 20.7862C5.70982 20.9224 5.89478 20.9989 6.0876 20.9988C6.28041 20.9986 6.46527 20.9219 6.60151 20.7855L8.05325 19.3337ZM14.0796 9.73539C14.318 9.73539 14.554 9.68845 14.7742 9.59723C14.9944 9.50602 15.1945 9.37232 15.3631 9.20378C15.5316 9.03524 15.6653 8.83515 15.7565 8.61494C15.8477 8.39473 15.8947 8.15871 15.8947 7.92036C15.8947 7.682 15.8477 7.44598 15.7565 7.22577C15.6653 7.00556 15.5316 6.80547 15.3631 6.63693C15.1945 6.46839 14.9944 6.33469 14.7742 6.24348C14.554 6.15227 14.318 6.10532 14.0796 6.10532C13.5983 6.10532 13.1366 6.29655 12.7962 6.63693C12.4558 6.97732 12.2646 7.43898 12.2646 7.92036C12.2646 8.40173 12.4558 8.8634 12.7962 9.20378C13.1366 9.54417 13.5983 9.73539 14.0796 9.73539Z" stroke="#808AFF" stroke-width="0.4" mask="url(#path-1-outside-1_2024_2453)"/>
</g>
</svg>
