<svg width="55" height="57" viewBox="0 0 55 57" fill="none" xmlns="http://www.w3.org/2000/svg">
<g id="mdi:slack">
<path id="Vector" d="M12.8339 35.0789C12.8339 36.4748 12.2794 37.8135 11.2924 38.8006C10.3054 39.7876 8.96665 40.3421 7.57078 40.3421C6.1749 40.3421 4.83619 39.7876 3.84916 38.8006C2.86213 37.8135 2.30762 36.4748 2.30762 35.0789C2.30762 33.6831 2.86213 32.3444 3.84916 31.3573C4.83619 30.3703 6.1749 29.8158 7.57078 29.8158H12.8339V35.0789ZM15.4655 35.0789C15.4655 33.6831 16.02 32.3444 17.0071 31.3573C17.9941 30.3703 19.3328 29.8158 20.7287 29.8158C22.1245 29.8158 23.4632 30.3703 24.4503 31.3573C25.4373 32.3444 25.9918 33.6831 25.9918 35.0789V48.2368C25.9918 49.6327 25.4373 50.9714 24.4503 51.9585C23.4632 52.9455 22.1245 53.5 20.7287 53.5C19.3328 53.5 17.9941 52.9455 17.0071 51.9585C16.02 50.9714 15.4655 49.6327 15.4655 48.2368V35.0789ZM20.7287 14.0263C19.3328 14.0263 17.9941 13.4718 17.0071 12.4848C16.02 11.4977 15.4655 10.159 15.4655 8.76316C15.4655 7.36728 16.02 6.02858 17.0071 5.04154C17.9941 4.05451 19.3328 3.5 20.7287 3.5C22.1245 3.5 23.4632 4.05451 24.4503 5.04154C25.4373 6.02858 25.9918 7.36728 25.9918 8.76316V14.0263H20.7287ZM20.7287 16.6579C22.1245 16.6579 23.4632 17.2124 24.4503 18.1994C25.4373 19.1865 25.9918 20.5252 25.9918 21.9211C25.9918 23.3169 25.4373 24.6556 24.4503 25.6427C23.4632 26.6297 22.1245 27.1842 20.7287 27.1842H7.57078C6.1749 27.1842 4.83619 26.6297 3.84916 25.6427C2.86213 24.6556 2.30762 23.3169 2.30762 21.9211C2.30762 20.5252 2.86213 19.1865 3.84916 18.1994C4.83619 17.2124 6.1749 16.6579 7.57078 16.6579H20.7287ZM41.7813 21.9211C41.7813 20.5252 42.3358 19.1865 43.3228 18.1994C44.3099 17.2124 45.6486 16.6579 47.0445 16.6579C48.4403 16.6579 49.779 17.2124 50.7661 18.1994C51.7531 19.1865 52.3076 20.5252 52.3076 21.9211C52.3076 23.3169 51.7531 24.6556 50.7661 25.6427C49.779 26.6297 48.4403 27.1842 47.0445 27.1842H41.7813V21.9211ZM39.1497 21.9211C39.1497 23.3169 38.5952 24.6556 37.6082 25.6427C36.6211 26.6297 35.2824 27.1842 33.8866 27.1842C32.4907 27.1842 31.152 26.6297 30.165 25.6427C29.1779 24.6556 28.6234 23.3169 28.6234 21.9211V8.76316C28.6234 7.36728 29.1779 6.02858 30.165 5.04154C31.152 4.05451 32.4907 3.5 33.8866 3.5C35.2824 3.5 36.6211 4.05451 37.6082 5.04154C38.5952 6.02858 39.1497 7.36728 39.1497 8.76316V21.9211ZM33.8866 42.9737C35.2824 42.9737 36.6211 43.5282 37.6082 44.5152C38.5952 45.5023 39.1497 46.841 39.1497 48.2368C39.1497 49.6327 38.5952 50.9714 37.6082 51.9585C36.6211 52.9455 35.2824 53.5 33.8866 53.5C32.4907 53.5 31.152 52.9455 30.165 51.9585C29.1779 50.9714 28.6234 49.6327 28.6234 48.2368V42.9737H33.8866ZM33.8866 40.3421C32.4907 40.3421 31.152 39.7876 30.165 38.8006C29.1779 37.8135 28.6234 36.4748 28.6234 35.0789C28.6234 33.6831 29.1779 32.3444 30.165 31.3573C31.152 30.3703 32.4907 29.8158 33.8866 29.8158H47.0445C48.4403 29.8158 49.779 30.3703 50.7661 31.3573C51.7531 32.3444 52.3076 33.6831 52.3076 35.0789C52.3076 36.4748 51.7531 37.8135 50.7661 38.8006C49.779 39.7876 48.4403 40.3421 47.0445 40.3421H33.8866Z" fill="#5865F2"/>
</g>
</svg>
