<svg width="109" height="46" viewBox="0 0 109 46" fill="none" xmlns="http://www.w3.org/2000/svg">
<path fill-rule="evenodd" clip-rule="evenodd" d="M109 23.435C109 15.6839 105.246 9.56778 98.0697 9.56778C90.8636 9.56778 86.5036 15.6839 86.5036 23.3744C86.5036 32.4881 91.6508 37.0903 99.0386 37.0903C102.642 37.0903 105.367 36.2728 107.426 35.1222V29.0667C105.367 30.0961 103.005 30.7319 100.007 30.7319C97.0705 30.7319 94.4667 29.7025 94.1336 26.1297H108.939C108.939 25.7361 109 24.1617 109 23.435ZM94.0428 20.5586C94.0428 17.1372 96.1319 15.7142 98.0394 15.7142C99.8864 15.7142 101.854 17.1372 101.854 20.5586H94.0428ZM74.8164 9.56778C71.8492 9.56778 69.9417 10.9606 68.8819 11.9294L68.4883 10.0522H61.8272V45.3561L69.3967 43.7514L69.4269 35.1828C70.5169 35.97 72.1217 37.0903 74.7861 37.0903C80.2058 37.0903 85.1411 32.7303 85.1411 23.1322C85.1108 14.3517 80.115 9.56778 74.8164 9.56778ZM72.9997 30.4292C71.2133 30.4292 70.1536 29.7933 69.4269 29.0061L69.3967 17.7731C70.1839 16.895 71.2739 16.2894 72.9997 16.2894C75.755 16.2894 77.6625 19.3778 77.6625 23.3442C77.6625 27.4014 75.7853 30.4292 72.9997 30.4292ZM51.4117 7.78139L59.0114 6.14639V0L51.4117 1.60472V7.78139ZM51.4117 10.0825H59.0114V36.5756H51.4117V10.0825ZM43.2669 12.3231L42.7825 10.0825H36.2425V36.5756H43.8119V18.6208C45.5983 16.2894 48.6261 16.7133 49.5647 17.0464V10.0825C48.5958 9.71917 45.0533 9.05306 43.2669 12.3231ZM28.1281 3.51222L20.7403 5.08667L20.71 29.3392C20.71 33.8203 24.0708 37.1206 28.5519 37.1206C31.0347 37.1206 32.8514 36.6664 33.8506 36.1214V29.975C32.8817 30.3686 28.0978 31.7614 28.0978 27.2803V16.5317H33.8506V10.0825H28.0978L28.1281 3.51222ZM7.66028 17.7731C7.66028 16.5922 8.62917 16.1381 10.2339 16.1381C12.535 16.1381 15.4417 16.8344 17.7428 18.0758V10.9606C15.2297 9.96139 12.7469 9.56778 10.2339 9.56778C4.0875 9.56778 0 12.7772 0 18.1364C0 26.4931 11.5056 25.1608 11.5056 28.7639C11.5056 30.1567 10.2944 30.6108 8.59889 30.6108C6.08583 30.6108 2.87639 29.5814 0.333055 28.1886V35.3947C3.14889 36.6058 5.995 37.1206 8.59889 37.1206C14.8967 37.1206 19.2264 34.0019 19.2264 28.5822C19.1961 19.5594 7.66028 21.1642 7.66028 17.7731Z" fill="white"/>
</svg>
