<svg width="256" height="35" viewBox="0 0 256 35" fill="none" xmlns="http://www.w3.org/2000/svg">
<path d="M7.104 2.69644H5.024C2.688 2.69644 1.92 3.40044 1.6 7.81644L0.672 7.75245L1.088 2.21644L1.184 1.25644H18.816L18.88 2.21644L19.296 7.75245L18.4 7.81644C18.048 3.40044 17.312 2.69644 14.944 2.69644H12.864C12.192 2.69644 11.808 3.08044 11.808 3.78444V23.5604C11.808 25.5124 12.224 26.0884 15.2 26.0884V26.8564H4.768V26.0884C7.776 26.0884 8.192 25.5124 8.192 23.5604V3.78444C8.192 3.08044 7.808 2.69644 7.104 2.69644ZM24.7165 27.3684C20.5565 27.3684 17.8365 23.6884 17.8365 18.4404C17.8365 13.2884 20.3645 9.32044 24.7165 9.32044C28.8445 9.32044 31.5965 13.0004 31.5965 18.2484C31.5965 23.4004 29.0365 27.3684 24.7165 27.3684ZM25.1965 25.9604C27.4685 25.9604 28.3645 22.9524 28.3645 20.1364C28.3645 15.7844 27.0525 10.7284 24.2365 10.7284C21.9645 10.7284 21.0365 13.7364 21.0365 16.5524C21.0365 20.9044 22.3805 25.9604 25.1965 25.9604ZM42.429 9.32044C45.661 9.32044 47.197 12.8084 47.197 17.7364C47.197 22.9844 45.181 27.2404 41.693 27.2404C40.189 27.2404 38.717 26.4724 37.853 24.9364H37.789V30.6004C37.789 32.6804 38.109 33.1284 40.061 33.1284V33.8964H32.445V33.1284C34.397 33.1284 34.685 32.6804 34.685 30.6004V13.7044C34.685 11.5604 34.685 11.1124 32.765 11.8804L32.477 11.1444L37.277 9.25644L37.789 9.73644V12.5524H37.917C39.165 10.5044 40.637 9.32044 42.429 9.32044ZM40.893 25.7044C43.069 25.7044 43.837 22.1204 43.837 18.2164C43.837 13.9284 42.973 11.5284 41.117 11.5284C39.805 11.5284 38.621 12.6804 37.789 14.0884V19.9124C37.789 23.4964 39.197 25.7044 40.893 25.7044ZM66.8415 0.872444L74.3935 23.7204C75.0655 25.6724 75.7695 26.0884 77.8495 26.0884V26.8564H68.1215V26.0884C71.2255 26.0884 71.2575 25.5764 70.6815 23.6884L69.1455 18.7604H60.5695L59.0015 23.7204C58.3935 25.5764 58.4255 26.0884 61.4655 26.0884V26.8564H54.2335V26.0884C56.2495 26.0884 56.9535 25.6724 57.5935 23.7204L65.0815 0.872444H66.8415ZM64.8255 5.48044L60.9855 17.5124H68.7295L64.9535 5.48044H64.8255ZM78.021 26.8564V26.0884C79.877 26.0884 80.197 25.6084 80.197 23.5604V13.7044C80.197 11.5604 80.197 11.1124 78.277 11.9124L77.957 11.1764L80.517 10.1524L82.693 9.25644L83.301 9.73644V12.6804H83.397C84.837 10.6964 86.277 9.32044 88.453 9.32044C90.725 9.32044 91.973 10.9524 91.973 13.9604V23.5604C91.973 25.6084 92.261 26.0884 94.085 26.0884V26.8564H86.917V26.0884C88.613 26.0884 88.869 25.6084 88.869 23.5604V14.1524C88.869 12.3924 88.197 11.5604 86.981 11.5604C85.669 11.5604 84.517 12.4564 83.301 14.0244V23.5604C83.301 25.6084 83.557 26.0884 85.253 26.0884V26.8564H78.021ZM101.295 24.2964H105.007C108.335 24.2964 109.839 25.2564 109.839 27.6884C109.839 31.2404 105.999 34.4084 100.623 34.4084C97.1985 34.4084 94.2225 33.1604 94.2225 30.5364C94.2225 28.7124 95.5665 27.4964 97.5825 26.6004C96.2705 26.0884 95.6945 25.1924 95.6945 24.1044C95.6945 22.6324 96.7185 21.5764 98.1585 20.6804C96.5905 19.6244 95.6945 17.8004 95.6945 15.5924C95.6945 12.0084 97.9985 9.35244 101.679 9.35244C102.895 9.35244 103.951 9.64044 104.847 10.1844C106.127 9.44844 107.503 9.12844 108.495 9.12844C109.423 9.12844 109.679 9.57644 109.679 10.0884C109.679 10.6964 109.295 11.1764 108.527 11.1764C107.311 11.1764 106.447 10.5364 105.519 10.6644C106.799 11.7524 107.535 13.4164 107.535 15.4964C107.535 19.1444 105.231 21.6724 101.647 21.6724C100.655 21.6724 99.7585 21.4804 98.9905 21.1284C98.3505 21.6404 97.9345 22.1524 97.9345 22.7924C97.9345 23.6244 98.1905 24.2964 101.295 24.2964ZM101.263 10.5684C99.5025 10.5684 98.8305 12.4564 98.8305 14.4724C98.8305 17.1604 99.6945 20.4244 102.031 20.4244C103.695 20.4244 104.431 18.8244 104.431 16.6804C104.431 13.8964 103.47 10.5684 101.263 10.5684ZM101.391 32.4884C105.455 32.4884 108.047 30.4724 108.047 28.6804C108.047 27.4324 107.183 27.1444 104.911 27.1444H100.943C100.047 27.1444 99.2785 27.0804 98.6385 26.9204C97.5505 27.7844 96.7825 28.7444 96.7825 29.7684C96.7825 31.1124 98.0305 32.4884 101.391 32.4884ZM121 20.0084H121.768C121.096 25.1604 118.92 27.3684 115.912 27.3684C112.296 27.3684 110.024 23.9444 110.024 18.6644C110.024 13.6084 112.264 9.32044 116.072 9.32044C119.816 9.32044 121.576 12.8404 121.576 17.5124H113.128V17.5764C113.128 21.9284 114.472 25.0004 117.128 25.0004C118.568 25.0004 120.232 23.8804 121 20.0084ZM116.072 10.6644C114.152 10.6644 113.352 13.0004 113.16 16.2004H118.504C118.504 13.1284 117.96 10.6644 116.072 10.6644ZM128.297 0.936443V23.5604C128.297 25.6084 128.585 26.0884 130.537 26.0884V26.8564H122.921V26.0884C124.873 26.0884 125.193 25.6084 125.193 23.5604V5.06444C125.193 3.01644 125.193 2.60044 123.273 3.56044L122.953 2.85644L127.817 0.488443L128.297 0.936443ZM141.75 23.5604V4.55244C141.75 2.60044 141.334 2.02444 138.358 2.02444V1.25644H148.79V2.02444C145.782 2.02444 145.366 2.60044 145.366 4.55244V23.5604C145.366 25.5124 145.782 26.0884 148.79 26.0884V26.8564H138.358V26.0884C141.334 26.0884 141.75 25.5124 141.75 23.5604ZM150.271 26.8564V26.0884C152.127 26.0884 152.447 25.6084 152.447 23.5604V13.7044C152.447 11.5604 152.447 11.1124 150.527 11.9124L150.207 11.1764L152.767 10.1524L154.943 9.25644L155.551 9.73644V12.6804H155.647C157.087 10.6964 158.527 9.32044 160.703 9.32044C162.975 9.32044 164.223 10.9524 164.223 13.9604V23.5604C164.223 25.6084 164.511 26.0884 166.335 26.0884V26.8564H159.167V26.0884C160.863 26.0884 161.119 25.6084 161.119 23.5604V14.1524C161.119 12.3924 160.447 11.5604 159.231 11.5604C157.919 11.5604 156.767 12.4564 155.551 14.0244V23.5604C155.551 25.6084 155.807 26.0884 157.503 26.0884V26.8564H150.271ZM173.925 22.4404L176.773 13.0644C177.381 11.0804 177.413 10.6644 175.301 10.6644V9.89644H180.837V10.6644C179.365 10.6644 178.757 11.0804 178.149 13.0644L173.797 27.1124H172.069L167.717 13.0644C167.109 11.0804 166.533 10.6644 165.189 10.6644V9.89644H172.613V10.6644C170.469 10.6644 170.469 11.0804 171.045 13.0644L173.733 22.4404H173.925ZM191.5 20.0084H192.268C191.596 25.1604 189.42 27.3684 186.412 27.3684C182.796 27.3684 180.524 23.9444 180.524 18.6644C180.524 13.6084 182.764 9.32044 186.572 9.32044C190.316 9.32044 192.076 12.8404 192.076 17.5124H183.628V17.5764C183.628 21.9284 184.972 25.0004 187.628 25.0004C189.068 25.0004 190.732 23.8804 191.5 20.0084ZM186.572 10.6644C184.652 10.6644 183.852 13.0004 183.66 16.2004H189.004C189.004 13.1284 188.46 10.6644 186.572 10.6644ZM199.841 27.3684C198.209 27.3684 197.025 26.6964 196.353 26.2164C195.937 25.8964 195.681 25.9924 195.489 26.3764L195.233 27.0164H194.529L194.305 20.1044H195.009C195.489 23.9124 197.312 26.0244 199.521 26.0244C201.025 26.0244 201.825 25.0004 201.825 23.3684C201.825 21.9284 201.153 21.3204 198.177 18.9204C195.457 16.7764 194.529 15.5284 194.529 13.7044C194.529 11.0484 196.449 9.32044 198.977 9.32044C200.417 9.32044 201.409 9.92844 201.985 10.4084C202.401 10.7924 202.72 10.6324 202.817 10.2484L203.009 9.54445H203.745L203.873 15.1444H203.169C202.785 12.6484 201.377 10.6644 199.233 10.6644C197.953 10.6644 197.121 11.5284 197.121 12.8084C197.121 14.1524 197.953 14.8564 200.193 16.6164C203.073 18.8884 204.449 20.2644 204.449 22.6964C204.449 25.8644 202.305 27.3684 199.841 27.3684ZM214.913 19.6884H215.809C215.809 24.6804 214.817 27.3684 211.681 27.3684C209.185 27.3684 207.873 25.8644 207.873 21.3844V11.2084H205.633V10.0244C207.969 9.96045 209.441 8.23244 209.761 5.22444H210.913V9.89644H214.753V11.2084H210.977V20.5524C210.977 23.4004 211.265 25.2884 212.769 25.2884C214.209 25.2884 214.913 23.4964 214.913 19.6884ZM224.217 27.3684C220.057 27.3684 217.337 23.6884 217.337 18.4404C217.337 13.2884 219.865 9.32044 224.217 9.32044C228.345 9.32044 231.097 13.0004 231.097 18.2484C231.097 23.4004 228.537 27.3684 224.217 27.3684ZM224.697 25.9604C226.969 25.9604 227.865 22.9524 227.865 20.1364C227.865 15.7844 226.553 10.7284 223.737 10.7284C221.465 10.7284 220.536 13.7364 220.536 16.5524C220.536 20.9044 221.881 25.9604 224.697 25.9604ZM242.12 9.32044C243.24 9.32044 243.848 9.96045 243.848 11.0164C243.848 12.2644 243.112 13.0644 242.28 13.0644C241.704 13.0644 241.448 12.8404 241.032 12.3924C240.616 11.9764 240.456 11.8484 240.072 11.8484C239.336 11.8484 238.472 12.9044 237.8 14.8564V23.3684C237.8 25.5444 238.28 26.0564 241.192 26.0564V26.8564H232.552V26.0884C234.408 26.0884 234.728 25.6084 234.728 23.5604V13.7044C234.728 11.5604 234.728 11.1124 232.808 11.9124L232.488 11.1764L235.048 10.1524L237.224 9.25644L237.8 9.73644V12.8084H237.896C238.792 11.1124 240.36 9.32044 242.12 9.32044ZM250.809 27.3684C249.177 27.3684 247.993 26.6964 247.321 26.2164C246.905 25.8964 246.649 25.9924 246.457 26.3764L246.201 27.0164H245.497L245.273 20.1044H245.977C246.457 23.9124 248.281 26.0244 250.489 26.0244C251.993 26.0244 252.793 25.0004 252.793 23.3684C252.793 21.9284 252.121 21.3204 249.145 18.9204C246.425 16.7764 245.497 15.5284 245.497 13.7044C245.497 11.0484 247.417 9.32044 249.945 9.32044C251.385 9.32044 252.377 9.92844 252.953 10.4084C253.369 10.7924 253.689 10.6324 253.785 10.2484L253.977 9.54445H254.713L254.841 15.1444H254.137C253.753 12.6484 252.345 10.6644 250.201 10.6644C248.921 10.6644 248.089 11.5284 248.089 12.8084C248.089 14.1524 248.921 14.8564 251.161 16.6164C254.041 18.8884 255.417 20.2644 255.417 22.6964C255.417 25.8644 253.273 27.3684 250.809 27.3684Z" fill="black"/>
</svg>
