<svg width="16" height="16" viewBox="0 0 16 16" fill="none" xmlns="http://www.w3.org/2000/svg">
<path id="Vector" d="M0.439548 0.439548C0.57869 0.300207 0.743938 0.189665 0.925839 0.114243C1.10774 0.0388215 1.30273 0 1.49964 0C1.69656 0 1.89154 0.0388215 2.07345 0.114243C2.25535 0.189665 2.42059 0.300207 2.55974 0.439548L8.00022 5.87803L13.4407 0.439548C13.5799 0.300334 13.7452 0.189904 13.9271 0.114562C14.109 0.0392204 14.3039 0.000442548 14.5008 0.000442544C14.6977 0.00044254 14.8926 0.0392204 15.0745 0.114562C15.2564 0.189904 15.4217 0.300334 15.5609 0.439548C15.7001 0.578762 15.8105 0.744032 15.8859 0.925923C15.9612 1.10781 16 1.30276 16 1.49964C16 1.69652 15.9612 1.89147 15.8859 2.07336C15.8105 2.25525 15.7001 2.42052 15.5609 2.55974L10.1224 8.00022L15.5609 13.4407C15.842 13.7219 16 14.1032 16 14.5008C16 14.8984 15.842 15.2797 15.5609 15.5609C15.2797 15.8421 14.8984 16 14.5008 16C14.1032 16 13.7219 15.8421 13.4407 15.5609L8.00022 10.1224L2.55974 15.5609C2.27858 15.8421 1.89725 16 1.49964 16C1.10203 16 0.720703 15.8421 0.439548 15.5609C0.158394 15.2797 0.000442544 14.8984 0.000442544 14.5008C0.000442544 14.1032 0.158394 13.7219 0.439548 13.4407L5.87803 8.00022L0.439548 2.55974C0.300207 2.42059 0.189665 2.25535 0.114243 2.07345C0.0388215 1.89155 0 1.69656 0 1.49964C0 1.30273 0.0388215 1.10774 0.114243 0.925839C0.189665 0.743938 0.300207 0.57869 0.439548 0.439548Z" fill="#ECECEC"/>
</svg>
