<svg width="38" height="21" viewBox="0 0 38 21" fill="none" xmlns="http://www.w3.org/2000/svg">
<rect width="38" height="21" rx="10.5" fill="#313869"/>
<circle cx="28.5" cy="10.5" r="7.5" fill="#CECBD7"/>
<path d="M15.7326 16.9145C15.8108 16.9702 15.9043 17.0001 16.0003 17C16.0962 16.9999 16.1898 16.9698 16.2678 16.914C16.3458 16.8557 16.405 16.7759 16.4383 16.6844L16.6119 16.1508C16.6535 16.025 16.7239 15.9108 16.8175 15.8171C16.9111 15.7234 17.0253 15.6529 17.151 15.6111L17.6941 15.4346C17.7852 15.4019 17.8637 15.3415 17.9186 15.2617C17.9734 15.182 18.0018 15.0871 17.9998 14.9903C17.9977 14.8936 17.9653 14.7999 17.9072 14.7226C17.849 14.6453 17.768 14.5882 17.6756 14.5594L17.141 14.3863C17.0152 14.3448 16.9008 14.2744 16.807 14.1808C16.7133 14.0872 16.6427 13.9729 16.6009 13.8472L16.4243 13.3051C16.3923 13.2156 16.3333 13.1382 16.2555 13.0835C16.1776 13.0289 16.0848 12.9997 15.9897 13C15.8933 12.9996 15.7991 13.0295 15.7206 13.0855C15.6421 13.1415 15.5831 13.2208 15.5521 13.3121L15.3741 13.8572C15.3323 13.9792 15.2634 14.0902 15.1726 14.1818C15.0819 14.2735 14.9715 14.3434 14.8499 14.3863L14.3078 14.5619C14.2172 14.5939 14.1389 14.6534 14.0837 14.732C14.0286 14.8106 13.9993 14.9045 14 15.0006C14.0007 15.0966 14.0314 15.19 14.0877 15.2679C14.1441 15.3457 14.2233 15.4039 14.3143 15.4346L14.8479 15.6081C14.9739 15.6502 15.0884 15.7211 15.1822 15.8151C15.2761 15.9091 15.3467 16.0237 15.3886 16.1498L15.5646 16.6899C15.5961 16.7799 15.6551 16.8584 15.7331 16.914" fill="#7984EB"/>
<path d="M12.599 9.87168C12.7161 9.95527 12.8565 10.0001 13.0004 10C13.1444 9.99987 13.2847 9.95474 13.4017 9.87093C13.5186 9.7835 13.6075 9.66383 13.6575 9.5266L13.9178 8.72615C13.9802 8.53757 14.0859 8.36618 14.2263 8.22564C14.3667 8.08511 14.538 7.97932 14.7265 7.91671L15.5412 7.65189C15.6778 7.60289 15.7956 7.51218 15.8779 7.3926C15.9601 7.27302 16.0027 7.13061 15.9997 6.9855C15.9966 6.84038 15.948 6.6999 15.8608 6.5839C15.7735 6.4679 15.652 6.38226 15.5134 6.33907L14.7115 6.07951C14.5228 6.01717 14.3512 5.91158 14.2106 5.77117C14.0699 5.63076 13.964 5.45942 13.9013 5.27081L13.6365 4.45762C13.5884 4.32333 13.4999 4.20723 13.3832 4.12528C13.2665 4.04334 13.1272 3.99957 12.9846 4.00001C12.8399 3.99939 12.6987 4.04425 12.5809 4.12825C12.4631 4.21225 12.3747 4.33114 12.3282 4.46812L12.0611 5.28582C11.9984 5.46883 11.8951 5.63529 11.7589 5.77274C11.6228 5.91019 11.4573 6.01506 11.2749 6.07951L10.4617 6.34282C10.3259 6.39083 10.2084 6.48003 10.1256 6.59798C10.0428 6.71592 9.99895 6.85675 10 7.00083C10.0011 7.14492 10.0471 7.28507 10.1316 7.40178C10.2161 7.51848 10.3349 7.60591 10.4715 7.65189L11.2719 7.9122C11.4609 7.97534 11.6326 8.08164 11.7733 8.22266C11.9141 8.36368 12.0201 8.53555 12.0828 8.72465L12.3469 9.53485C12.3942 9.66988 12.4827 9.78766 12.5997 9.87093" fill="#7984EB"/>
<path d="M6.29949 12.9358C6.35807 12.9776 6.42826 13.0001 6.50022 13C6.57219 12.9999 6.64233 12.9774 6.70083 12.9355C6.75932 12.8917 6.80377 12.8319 6.82874 12.7633L6.9589 12.3631C6.99012 12.2688 7.04293 12.1831 7.11313 12.1128C7.18334 12.0426 7.26898 11.9897 7.36324 11.9584L7.77059 11.8259C7.83891 11.8014 7.89779 11.7561 7.93893 11.6963C7.98006 11.6365 8.00137 11.5653 7.99984 11.4927C7.9983 11.4202 7.97401 11.3499 7.93038 11.2919C7.88675 11.234 7.826 11.1911 7.75672 11.1695L7.35574 11.0398C7.26138 11.0086 7.17561 10.9558 7.10528 10.8856C7.03494 10.8154 6.98199 10.7297 6.95064 10.6354L6.81824 10.2288C6.79421 10.1617 6.74997 10.1036 6.6916 10.0626C6.63323 10.0217 6.5636 9.99979 6.49228 10C6.41995 9.9997 6.34935 10.0221 6.29045 10.0641C6.23156 10.1061 6.18735 10.1656 6.16408 10.2341L6.03055 10.6429C5.99919 10.7344 5.94754 10.8176 5.87947 10.8864C5.81139 10.9551 5.72866 11.0075 5.63745 11.0398L5.23085 11.1714C5.16293 11.1954 5.10418 11.24 5.0628 11.299C5.02142 11.358 4.99947 11.4284 5.00001 11.5004C5.00055 11.5725 5.02354 11.6425 5.0658 11.7009C5.10805 11.7592 5.16745 11.803 5.23573 11.8259L5.63595 11.9561C5.73044 11.9877 5.81628 12.0408 5.88666 12.1113C5.95704 12.1818 6.01003 12.2678 6.04142 12.3623L6.17346 12.7674C6.19709 12.8349 6.24097 12.8942 6.29949 12.9358Z" fill="#7984EB"/>
</svg>
