<svg width="16" height="17" viewBox="0 0 16 17" fill="none" xmlns="http://www.w3.org/2000/svg">
<g id="ep:arrow-down">
<path id="Vector" d="M6.11458 4.96712L10.1872 9.14712L6.11458 13.3271C6.04166 13.4018 6.00084 13.5021 6.00084 13.6064C6.00084 13.7108 6.04166 13.8111 6.11458 13.8858C6.14999 13.9219 6.19226 13.9507 6.23891 13.9703C6.28556 13.9899 6.33565 14 6.38625 14C6.43685 14 6.48694 13.9899 6.53359 13.9703C6.58024 13.9507 6.62251 13.9219 6.65792 13.8858L10.9913 9.439C11.0674 9.36091 11.11 9.25617 11.11 9.14712C11.11 9.03807 11.0674 8.93333 10.9913 8.85524L6.65876 4.40845C6.62332 4.37203 6.58095 4.34309 6.53414 4.32332C6.48734 4.30356 6.43705 4.29338 6.38625 4.29338C6.33545 4.29338 6.28516 4.30356 6.23836 4.32332C6.19155 4.34309 6.14918 4.37203 6.11374 4.40845C6.04082 4.48313 6 4.58339 6 4.68779C6 4.79218 6.04082 4.89244 6.11374 4.96712H6.11458Z" fill="#A2A1A5"/>
</g>
</svg>
