<svg width="16" height="17" viewBox="0 0 16 17" fill="none" xmlns="http://www.w3.org/2000/svg">
<g id="ep:arrow-down">
<path id="Vector" d="M9.88542 4.96712L5.81282 9.14712L9.88542 13.3271C9.95834 13.4018 9.99916 13.5021 9.99916 13.6064C9.99916 13.7108 9.95834 13.8111 9.88542 13.8858C9.85001 13.9219 9.80774 13.9507 9.76109 13.9703C9.71444 13.9899 9.66435 14 9.61375 14C9.56315 14 9.51306 13.9899 9.46641 13.9703C9.41976 13.9507 9.37749 13.9219 9.34208 13.8858L5.00866 9.439C4.93258 9.36091 4.89 9.25617 4.89 9.14712C4.89 9.03807 4.93258 8.93333 5.00866 8.85524L9.34124 4.40845C9.37668 4.37203 9.41905 4.34309 9.46586 4.32332C9.51266 4.30356 9.56295 4.29338 9.61375 4.29338C9.66455 4.29338 9.71484 4.30356 9.76164 4.32332C9.80845 4.34309 9.85082 4.37203 9.88626 4.40845C9.95918 4.48313 10 4.58339 10 4.68779C10 4.79218 9.95918 4.89244 9.88626 4.96712H9.88542Z" fill="#A2A1A5"/>
</g>
</svg>
