<svg width="38" height="21" viewBox="0 0 38 21" fill="none" xmlns="http://www.w3.org/2000/svg">
<rect width="38" height="21" rx="10.5" transform="matrix(-1 0 0 1 38 0)" fill="#9FC8EC"/>
<circle cx="7.5" cy="7.5" r="7.5" transform="matrix(-1 0 0 1 17 3)" fill="#FFD870"/>
<path d="M20.5 17C20.0864 17 19.733 16.8687 19.4399 16.6062C19.1468 16.3437 19.0002 16.0229 19 15.6437C19 15.3187 19.1068 15.0292 19.3205 14.775C19.5341 14.5208 19.8136 14.3583 20.1591 14.2875C20.2727 13.9042 20.5 13.5938 20.8409 13.3563C21.1818 13.1188 21.5682 13 22 13C22.5318 13 22.983 13.1698 23.3535 13.5095C23.7241 13.8492 23.9093 14.2627 23.9091 14.75C24.2227 14.7833 24.483 14.9073 24.6899 15.122C24.8968 15.3367 25.0002 15.5877 25 15.875C25 16.1875 24.8807 16.4532 24.6422 16.672C24.4036 16.8908 24.1138 17.0002 23.7727 17H20.5Z" fill="#D2EAFF"/>
<path d="M31.25 11C32.0083 11 32.6562 10.7703 33.1935 10.3109C33.7308 9.85156 33.9997 9.2901 34 8.62656C34 8.05781 33.8042 7.55104 33.4125 7.10625C33.0208 6.66146 32.5083 6.37708 31.875 6.25312C31.6667 5.58229 31.25 5.03906 30.625 4.62344C30 4.20781 29.2917 4 28.5 4C27.525 4 26.6978 4.29721 26.0185 4.89163C25.3392 5.48604 24.9997 6.20967 25 7.0625C24.425 7.12083 23.9478 7.33783 23.5685 7.7135C23.1892 8.08917 22.9997 8.52842 23 9.03125C23 9.57812 23.2187 10.043 23.656 10.426C24.0933 10.809 24.6247 11.0003 25.25 11H31.25Z" fill="#D2EAFF"/>
</svg>
